<?xml version="1.0" encoding="UTF-8" standalone="no"?>
<svg
   xmlns:osb="http://www.openswatchbook.org/uri/2009/osb"
   xmlns:dc="http://purl.org/dc/elements/1.1/"
   xmlns:cc="http://creativecommons.org/ns#"
   xmlns:rdf="http://www.w3.org/1999/02/22-rdf-syntax-ns#"
   xmlns:svg="http://www.w3.org/2000/svg"
   xmlns="http://www.w3.org/2000/svg"
   xmlns:sodipodi="http://sodipodi.sourceforge.net/DTD/sodipodi-0.dtd"
   xmlns:inkscape="http://www.inkscape.org/namespaces/inkscape"
   version="1.1"
   id="_x32_"
   x="0px"
   y="0px"
   width="670"
   height="625"
   viewBox="0 0 670 625"
   style="opacity:1"
   xml:space="preserve"
   sodipodi:docname="nologin.svg"
   inkscape:version="1.0.2 (e86c8708, 2021-01-15)"><metadata
   id="metadata846"><rdf:RDF><cc:Work
       rdf:about=""><dc:format>image/svg+xml</dc:format><dc:type
         rdf:resource="http://purl.org/dc/dcmitype/StillImage" /><dc:title /></cc:Work></rdf:RDF></metadata><defs
   id="defs844"><linearGradient
     id="linearGradient863"
     osb:paint="solid"><stop
       style="stop-color:#000000;stop-opacity:1;"
       offset="0"
       id="stop861" /></linearGradient><linearGradient
     id="linearGradient857"
     osb:paint="solid"><stop
       style="stop-color:#ff0000;stop-opacity:1;"
       offset="0"
       id="stop855" /></linearGradient></defs><sodipodi:namedview
   pagecolor="#ffffff"
   bordercolor="#666666"
   borderopacity="1"
   objecttolerance="10"
   gridtolerance="10"
   guidetolerance="10"
   inkscape:pageopacity="0"
   inkscape:pageshadow="2"
   inkscape:window-width="1440"
   inkscape:window-height="800"
   id="namedview842"
   showgrid="false"
   inkscape:snap-global="true"
   inkscape:zoom="0.52926191"
   inkscape:cx="227.79184"
   inkscape:cy="497.63152"
   inkscape:window-x="0"
   inkscape:window-y="24"
   inkscape:window-maximized="0"
   inkscape:current-layer="_x32_"
   inkscape:document-rotation="0"
   showguides="false" />
<style
   type="text/css"
   id="style833">

	.st0{fill:#4B4B4B;}

</style>
<g
   id="g839"
   transform="translate(72.335261,47.852557)">
	<path
   class="st0"
   d="m 461.344,197.344 c -15.813,-15.875 -37.984,-25.781 -62.156,-25.75 h -8.953 V 134.219 C 390.251,97.25 375.157,63.5 350.907,39.313 326.703,15.063 292.969,-0.016 256,0 219.031,-0.016 185.281,15.063 161.078,39.313 136.844,63.5 121.75,97.25 121.766,134.219 v 37.375 h -8.969 c -24.172,-0.031 -46.328,9.875 -62.141,25.75 -15.859,15.813 -25.766,37.969 -25.75,62.156 v 164.594 c -0.016,24.188 9.891,46.344 25.75,62.156 15.813,15.875 37.969,25.766 62.141,25.75 h 286.391 c 24.172,0.016 46.344,-9.875 62.156,-25.75 15.859,-15.813 25.766,-37.969 25.75,-62.156 V 259.5 c 0.015,-24.187 -9.891,-46.344 -25.75,-62.156 z M 179.891,134.219 c 0.016,-21.094 8.469,-39.938 22.297,-53.813 13.859,-13.812 32.703,-22.281 53.812,-22.281 21.109,0 39.953,8.469 53.813,22.281 13.828,13.875 22.281,32.719 22.297,53.813 v 37.375 H 179.891 Z M 420.25,445.156 c -5.484,5.438 -12.75,8.719 -21.063,8.719 h -286.39 c -8.313,0 -15.563,-3.281 -21.047,-8.719 -5.438,-5.469 -8.703,-12.75 -8.719,-21.063 V 259.5 c 0.016,-8.328 3.281,-15.594 8.719,-21.063 5.484,-5.438 12.734,-8.719 21.047,-8.719 h 286.391 c 8.313,0 15.578,3.281 21.063,8.719 5.422,5.469 8.703,12.734 8.719,21.063 v 164.594 c -0.017,8.312 -3.298,15.594 -8.72,21.062 z"
   style="fill:#6021e2"
   id="path835" />
	<path
   class="st0"
   d="m 255.984,279.969 c -23.109,0 -41.844,18.75 -41.844,41.875 0,17.031 10.219,31.625 24.828,38.156 l -9.25,60.094 h 26.266 26.297 L 273.016,360 c 14.609,-6.531 24.844,-21.125 24.844,-38.156 -0.001,-23.125 -18.751,-41.875 -41.876,-41.875 z"
   style="fill:#6021e2"
   id="path837" />
</g>
<ellipse
   style="fill:#000000;fill-opacity:0.0656717;fill-rule:evenodd;stroke:#ff0000;stroke-width:36.32503937;stroke-miterlimit:4;stroke-dasharray:none;stroke-opacity:1"
   id="path848"
   cx="329.17065"
   cy="317.89874"
   rx="318.63354"
   ry="301.36255" /><path
   style="fill:none;stroke:#ffff00;stroke-width:1px;stroke-linecap:butt;stroke-linejoin:miter;stroke-opacity:0"
   d="M 35.611205,77.899512 494.10547,481.86412"
   id="path867" /><path
   style="fill:none;stroke:#ff0000;stroke-width:29.5597;stroke-linecap:butt;stroke-linejoin:miter;stroke-miterlimit:4;stroke-dasharray:none;stroke-opacity:1"
   d="M 122.26419,104.28784 488.86007,582.13919"
   id="path872" /></svg>
