<?xml version="1.0" encoding="UTF-8" standalone="no"?>
<svg
   xmlns:dc="http://purl.org/dc/elements/1.1/"
   xmlns:cc="http://creativecommons.org/ns#"
   xmlns:rdf="http://www.w3.org/1999/02/22-rdf-syntax-ns#"
   xmlns:svg="http://www.w3.org/2000/svg"
   xmlns="http://www.w3.org/2000/svg"
   xmlns:sodipodi="http://sodipodi.sourceforge.net/DTD/sodipodi-0.dtd"
   xmlns:inkscape="http://www.inkscape.org/namespaces/inkscape"
   width="236mm"
   height="242mm"
   viewBox="0 0 236 242"
   version="1.1"
   id="svg8"
   inkscape:version="1.0.2 (e86c8708, 2021-01-15)"
   sodipodi:docname="area-new.svg">
  <defs
     id="defs2" />
  <sodipodi:namedview
     id="base"
     pagecolor="#ffffff"
     bordercolor="#666666"
     borderopacity="1.0"
     inkscape:pageopacity="0.0"
     inkscape:pageshadow="2"
     inkscape:zoom="0.31875634"
     inkscape:cx="239.82662"
     inkscape:cy="308.51282"
     inkscape:document-units="mm"
     inkscape:current-layer="layer1"
     inkscape:document-rotation="0"
     showgrid="false"
     inkscape:window-width="1440"
     inkscape:window-height="773"
     inkscape:window-x="-14"
     inkscape:window-y="25"
     inkscape:window-maximized="0" />
  <metadata
     id="metadata5">
    <rdf:RDF>
      <cc:Work
         rdf:about="">
        <dc:format>image/svg+xml</dc:format>
        <dc:type
           rdf:resource="http://purl.org/dc/dcmitype/StillImage" />
        <dc:title />
      </cc:Work>
    </rdf:RDF>
  </metadata>
  <g
     inkscape:label="レイヤー 1"
     inkscape:groupmode="layer"
     id="layer1">
    <path
       style="fill:#522f60;fill-opacity:1;fill-rule:evenodd;stroke:#ffffff;stroke-width:7.70458"
       d="m 78.040046,235.2495 c -0.752573,-0.43777 -3.691021,-1.01243 -6.529881,-1.27703 -4.334666,-0.40401 -5.242989,-0.74852 -5.669829,-2.15048 -0.798077,-2.62127 -2.776984,-4.44186 -4.82814,-4.44186 -2.05716,0 -3.421371,-2.45619 -3.438387,-6.19061 -0.0053,-1.16974 -1.263875,-4.97849 -2.796772,-8.46388 -2.434782,-5.53604 -2.723617,-6.85747 -2.285005,-10.45388 0.462018,-3.78836 0.327667,-4.27813 -1.68409,-6.13904 -1.202391,-1.11223 -2.684181,-2.02225 -3.292862,-2.02225 -0.608682,0 -2.113151,-0.7427 -3.343262,-1.65044 l -2.236564,-1.65045 -4.101268,2.14045 c -2.255699,1.17724 -4.584316,2.8288 -5.17471,3.67011 -0.917047,1.3068 -1.23436,1.36904 -2.177944,0.42723 -0.607479,-0.60633 -1.920834,-1.53848 -2.918568,-2.07144 -2.10773,-1.12589 -3.4426,-4.04003 -2.428396,-5.3014 1.51907,-1.88926 -0.801122,-9.82248 -2.872737,-9.82248 -1.570396,0 -2.406754,-2.09241 -1.34969,-3.37666 2.324606,-2.82423 5.719927,-10.26589 5.719927,-12.5366 0,-1.42878 -0.746127,-4.13617 -1.658059,-6.01642 l -1.658061,-3.41863 1.658061,-3.41863 c 0.911932,-1.88025 1.658059,-4.71517 1.658059,-6.29981 0,-1.58464 0.418768,-3.79854 0.9306,-4.91976 0.744963,-1.63194 0.690383,-2.54795 -0.273619,-4.59205 -0.713799,-1.51356 -1.054661,-3.78683 -0.836985,-5.58197 0.29385,-2.42335 0.03751,-3.25902 -1.282801,-4.18206 -2.133998,-1.49189 -3.358047,-6.00056 -2.777268,-10.22981 0.286033,-2.08291 0.124693,-3.5485 -0.428186,-3.88956 -0.487939,-0.30099 -0.88716,-1.57457 -0.88716,-2.83017 0,-1.25559 -0.380336,-2.51752 -0.845191,-2.80427 -0.464853,-0.28676 -0.732704,-1.6391 -0.595224,-3.00522 0.194751,-1.93518 -0.08779,-2.54903 -1.279069,-2.778939 -1.639116,-0.31635 -4.35333,-3.12949 -4.396804,-4.55705 -0.01458,-0.47707 -0.740669,-1.51258 -1.613668,-2.30114 -1.198866,-1.08292 -1.587266,-2.43975 -1.587266,-5.54495 0,-3.10432 -0.388479,-4.462105 -1.5862316,-5.54402 -1.5686305,-1.41691 -1.5355745,-1.483011 2.9761166,-5.948712 2.509305,-2.483734 5.146804,-5.237387 5.861098,-6.119228 0.714312,-0.88184 1.785715,-1.793983 2.380901,-2.026989 0.741331,-0.290216 -0.167604,-1.626081 -2.886018,-4.241564 -2.182483,-2.099858 -4.250452,-3.729905 -4.59551,-3.622326 -1.245785,0.38839 -3.7375155,-1.496256 -3.7339368,-2.824175 0.00266,-0.747102 1.0959868,-2.521617 2.4310258,-3.943369 1.486322,-1.582886 2.270147,-3.118308 2.02187,-3.960675 -0.223015,-0.756618 0.458833,-2.801511 1.515216,-4.544208 2.664008,-4.394811 4.345428,-8.246229 4.345428,-9.953503 0,-0.793439 0.80355,-2.007973 1.78567,-2.698967 1.721457,-1.211172 1.920831,-1.113088 5.544244,2.727555 2.067214,2.191147 4.088989,3.983905 4.492832,3.983905 0.820518,0 4.843515,-4.541078 4.843515,-5.467261 0,-0.326095 1.607105,-2.658628 3.571342,-5.183409 1.964239,-2.524779 3.571343,-5.038662 3.571343,-5.586407 0,-0.547746 0.534058,-1.438294 1.186796,-1.978996 0.652736,-0.540703 1.614,-2.406285 2.136137,-4.145737 0.522138,-1.739453 1.595182,-3.565215 2.384544,-4.057251 0.789364,-0.492035 1.443147,-1.43267 1.452853,-2.0903 0.0097,-0.6576291 0.690295,-2.0692711 1.512421,-3.1369821 1.126952,-1.463592 1.757304,-1.733192 2.561657,-1.095608 0.586782,0.465127 3.56682,1.63808 6.6223,2.606564 3.525467,1.117453 6.340522,2.5939481 7.704023,4.0407571 2.018659,2.141996 2.07895,2.413155 0.996928,4.483605 -1.457945,2.789778 -1.449314,3.042826 0.227404,6.66701 0.989004,2.137708 1.769478,2.887312 2.710922,2.603697 0.727134,-0.219055 1.551764,-0.02732 1.832507,0.426076 0.700586,1.131434 5.437736,1.040948 6.607095,-0.126205 0.523797,-0.522809 0.952358,-1.409886 0.952358,-1.971282 0,-0.561396 0.575013,-1.691021 1.277807,-2.510277 1.167058,-1.360452 1.581378,-1.398369 4.780252,-0.437465 2.134846,0.641282 4.190882,0.797904 5.265537,0.401111 0.994278,-0.367113 2.744459,-0.309523 4.013595,0.132065 1.625239,0.565493 2.784772,0.497648 4.173542,-0.244198 1.70105,-0.908651 2.14455,-0.819567 3.84149,0.771628 1.52999,1.434649 1.83119,2.335482 1.48754,4.449127 -0.57107,3.512452 0.21865,6.394156 1.93845,7.073522 2.40659,0.950661 5.69769,1.158116 6.17382,0.389168 0.45784,-0.739407 6.97574,-0.404815 8.32474,0.427344 0.7623,0.470239 3.17012,-3.575874 3.16143,-5.312473 -0.008,-1.646781 5.79557,-6.263999 7.14784,-5.686461 0.65475,0.279634 4.22609,1.085383 7.93632,1.790554 8.07651,1.535036 8.72994,1.898294 8.72994,4.853174 0,3.192475 4.5698,6.655946 8.59607,6.515008 1.60137,-0.05606 3.7108,-0.339143 4.68762,-0.629081 1.24811,-0.370465 1.92208,-0.147259 2.2674,0.750911 0.27024,0.70294 0.89957,1.292558 1.3985,1.310267 0.49891,0.0177 2.1436,1.087086 3.65486,2.376403 3.2053,2.73458 3.40609,2.76793 6.09141,1.011748 1.13189,-0.740241 3.69444,-1.35644 5.76558,-1.386409 3.38076,-0.04891 3.83534,0.167484 4.87891,2.322634 0.63293,1.307116 1.95433,2.728447 2.93646,3.158514 1.51751,0.664512 1.78566,1.391404 1.78566,4.840301 0,3.046963 0.50583,4.802333 2.02969,7.043621 1.11632,1.641893 1.84515,3.465203 1.61964,4.051802 -0.56338,1.465334 1.56498,6.315036 3.32986,7.587504 0.79575,0.573728 2.61281,3.092791 4.03793,5.597917 1.42511,2.505128 2.97761,4.554775 3.45,4.554775 0.47238,0 2.05101,0.907566 3.50806,2.016816 3.64244,2.772985 8.93078,5.069505 11.78602,5.118215 1.48608,0.0254 3.35025,0.92081 4.96019,2.38264 2.97958,2.70547 3.03509,2.9251 1.23982,4.90512 -1.13575,1.25262 -1.19611,1.87306 -0.39681,4.07928 0.51846,1.43108 0.94266,3.853989 0.94266,5.384219 0,1.53023 0.22689,3.00871 0.50421,3.28549 1.07655,1.07454 0.97435,6.09321 -0.14688,7.21233 -1.33064,1.32813 -1.5075,3.32492 -0.35733,4.03442 1.37088,0.84566 0.86396,4.83981 -0.80566,6.34794 -0.87962,0.79454 -1.81281,2.77731 -2.07376,4.40616 -0.84486,5.27346 -7.32126,9.97807 -13.0966,9.51368 -1.63344,-0.13134 -2.27202,0.31678 -2.9359,2.06027 -1.0918,2.8673 -4.48062,6.58487 -6.00257,6.58487 -0.64993,0 -1.4024,0.35646 -1.67217,0.79213 -0.26976,0.43567 -1.49709,0.79214 -2.72737,0.79214 -1.23029,0 -2.65047,0.4974 -3.15596,1.10533 -0.5055,0.60794 -2.17865,1.3412 -3.71811,1.62945 -1.82669,0.34205 -4.18756,1.85995 -6.79609,4.36949 -3.50152,3.36866 -3.93429,4.13058 -3.49083,6.14584 0.35906,1.63171 0.0702,2.86104 -0.99344,4.22882 -0.82483,1.0606 -1.65536,2.41309 -1.84565,3.00552 -0.53171,1.65548 -8.81618,5.77803 -9.74608,4.84988 -1.47652,-1.47373 -6.5,-0.83893 -9.51344,1.20218 -1.93612,1.31141 -4.01672,1.98033 -6.15953,1.98033 -4.15127,0 -18.22584,2.08196 -23.75882,3.5145 -4.92025,1.27389 -5.16025,1.10001 -5.94449,-4.30663 -0.89662,-6.18126 -3.29389,-7.30387 -12.00408,-5.62135 -3.71455,0.71753 -3.47491,1.02831 -5.74387,-7.44887 -0.49061,-1.83302 -1.72698,-3.80362 -2.93328,-4.67528 -1.97884,-1.42987 -2.21115,-1.43878 -4.553582,-0.17462 -1.357602,0.73266 -4.206826,3.30445 -6.331598,5.71507 -3.592192,4.07544 -3.828179,4.60178 -3.363555,7.50187 0.333327,2.08057 0.201893,3.11891 -0.394784,3.11891 -0.856979,0 -0.694379,3.55512 0.545343,11.92347 0.358889,2.42256 0.02452,3.22915 -2.404101,5.79938 -1.551525,1.642 -2.808417,3.22742 -2.793082,3.52315 0.01532,0.29574 0.52271,2.84184 1.127505,5.65802 0.774346,3.60569 0.859511,5.5681 0.287912,6.63412 -0.553064,1.03148 -0.553143,2.05016 -2.22e-4,3.19711 1.985985,4.11964 3.254955,9.43162 2.561892,10.72419 -0.431673,0.80506 -0.429101,1.80064 0.0063,2.48773 1.151026,1.81589 0.871313,3.12585 -0.667453,3.12585 -0.779814,0 -2.750982,1.78231 -4.380359,3.96068 -3.158501,4.2227 -3.376326,4.34635 -5.490492,3.11656 z"
       id="path851" />
    <path
       style="opacity:0.842105;fill:#ffffff;fill-rule:evenodd;stroke:#ffffff;stroke-width:30.4846"
       d="m 278.19003,869.87866 c -9.17307,-1.80809 -16.71229,-6.1531 -23.89938,-13.77362 -5.77451,-6.12276 -12.62252,-11.1323 -15.2178,-11.1323 -3.09728,0 -5.42439,-4.41315 -6.77242,-12.84325 -1.12955,-7.06383 -5.54519,-21.13866 -9.81254,-31.27741 -5.34103,-12.68972 -7.75881,-24.2952 -7.75881,-37.24264 0,-16.50895 -1.17431,-20.14599 -9.60479,-29.74777 -5.28264,-6.01661 -12.69425,-11.87654 -16.47026,-13.02208 -3.77601,-1.14552 -11.72479,-5.72695 -17.66395,-10.18094 l -10.79848,-8.09813 -21.65067,11.60356 c -11.90787,6.38196 -22.93059,10.81252 -24.49493,9.8457 -1.56435,-0.96682 -2.84427,-8.43471 -2.84427,-16.59534 0,-8.7026 -2.62291,-19.97601 -6.34363,-27.26527 l -6.34362,-12.4278 8.39864,-18.73074 c 9.49843,-21.18348 10.55051,-39.85078 3.06212,-54.33172 -4.28652,-8.28921 -4.37275,-10.94635 -0.64942,-20.01165 8.22425,-20.02376 12.63804,-54.74962 8.65054,-68.05875 -2.0006,-6.67739 -3.63744,-17.17008 -3.63744,-23.31709 0,-6.14702 -2.11213,-13.28855 -4.69361,-15.87003 -7.34122,-7.34121 -11.441487,-21.077 -9.25854,-31.01588 1.09611,-4.99058 0.61227,-12.86284 -1.075198,-17.49386 -3.467338,-9.51564 -8.90569,-29.36262 -11.491006,-41.9358 -0.970522,-4.71994 -4.535894,-9.30843 -8.115735,-10.44462 -9.513409,-3.01946 -20.90836,-23.33198 -24.751598,-44.12196 L 51.554741,304.00513 71.966656,283.4356 c 26.062595,-26.26385 26.554077,-32.09134 4.516842,-53.55627 -8.742289,-8.51526 -17.191959,-15.48229 -18.777043,-15.48229 -1.585084,0 -0.08452,-4.58814 3.334575,-10.19587 3.419101,-5.60773 6.181971,-12.31348 6.139712,-14.90167 -0.05807,-3.55675 14.835001,-36.2741 21.323333,-46.84345 0.457215,-0.74479 5.465501,3.13749 11.12953,8.62728 16.578255,16.06828 32.220435,12.29393 46.384615,-11.19227 3.90301,-6.47175 10.90928,-16.70789 15.56948,-22.74698 7.96805,-10.3257 16.11892,-23.623946 27.88167,-45.489297 10.72587,-19.937935 17.53681,-29.758821 20.55392,-29.637291 1.72546,0.0695 10.77398,3.272641 20.10782,7.118088 l 16.97063,6.991722 0.28395,18.743913 c 0.45015,29.718555 16.71777,45.410055 47.07727,45.410055 11.31154,0 26.04638,-7.95763 28.38635,-15.33019 1.72281,-5.428098 4.95329,-5.944181 34.58123,-5.524494 31.98711,0.453101 32.64445,0.609244 30.96423,7.355004 -2.29978,9.23312 3.86938,27.05015 11.87512,34.29638 5.42201,4.90762 12.08541,5.94409 40.66313,6.32501 l 34.17849,0.45558 7.84618,-9.32464 c 4.3154,-5.12856 8.63205,-12.45582 9.59253,-16.28281 3.12477,-12.45006 10.45758,-14.3034 36.09466,-9.12282 22.66499,4.58 23.51188,5.08625 29.60678,17.69839 8.18227,16.93149 28.68339,28.23166 47.05789,25.93818 10.3549,-1.29249 14.74264,0.034 25.09754,7.58733 21.69441,15.82492 25.87638,17.25083 37.08315,12.64414 19.91945,-8.18815 26.36434,-7.86041 34.83573,1.77153 4.33573,4.92968 8.71908,13.90413 9.74077,19.94322 1.02172,6.0391 4.52838,17.33299 7.7926,25.09754 3.26421,7.76455 6.80378,18.63231 7.86566,24.15056 1.06191,5.51826 5.95245,15.09389 10.86789,21.27918 4.91545,6.18529 13.3604,18.13894 18.76653,26.56368 11.47864,17.8879 42.52703,38.32133 71.35109,46.95727 17.41333,5.21719 18.12393,5.83996 17.21936,15.09116 -0.51893,5.30719 1.32191,21.73912 4.09074,36.51539 3.92939,20.96993 4.23125,28.36631 1.37537,33.70254 -2.01235,3.76015 -2.9157,12.37704 -2.00745,19.14867 1.01466,7.56469 -0.0543,15.55555 -2.77209,20.7238 -2.43292,4.62648 -6.496,13.75659 -9.02906,20.28913 -4.89267,12.61779 -18.79636,21.06314 -34.67655,21.06314 -7.9845,0 -14.84011,5.8157 -29.01652,24.61514 -3.90668,5.18066 -11.41286,10.36042 -16.69488,11.52055 -41.15072,9.03822 -89.06631,47.874 -82.92814,67.2136 1.24016,3.90744 -1.62535,9.45217 -8.8361,17.09779 -9.88316,10.4792 -12.03445,11.32009 -29.12415,11.3839 -11.78986,0.0439 -23.55019,2.39045 -32.57009,6.49835 -7.76455,3.53621 -26.82299,7.84828 -42.35209,9.5824 -15.52911,1.73411 -38.11689,5.0186 -50.19509,7.29883 -12.07819,2.28024 -22.85912,3.59971 -23.95761,2.93212 -1.09848,-0.66756 -2.88477,-5.94464 -3.96952,-11.72683 -1.08474,-5.78222 -5.59371,-13.9153 -10.01994,-18.07352 -6.87011,-6.45412 -11.15959,-7.56041 -29.3144,-7.56041 h -21.26671 l -3.67619,-13.74489 c -4.56227,-17.05783 -21.48868,-34.8816 -33.1254,-34.8816 -4.57186,0 -12.14388,1.98129 -16.82674,4.40289 -11.0243,5.70088 -40.53473,36.91438 -44.32467,46.88268 -1.61399,4.24512 -2.62631,23.73603 -2.2496,43.31315 0.67276,34.96256 0.52249,35.80735 -8.46074,47.56369 -8.65706,11.32947 -9.01761,13.00555 -6.74866,31.37193 1.31836,10.67166 2.17823,25.11912 1.91082,32.10546 -0.26742,6.98637 1.66889,18.81067 4.30291,26.27628 2.63401,7.46558 4.78911,19.47218 4.78911,26.68132 0,10.70821 -1.89368,14.94295 -10.34522,23.13451 -5.68988,5.51484 -11.68976,9.87233 -13.33307,9.68325 -1.64331,-0.18917 -9.01797,-1.53233 -16.38811,-2.98507 z"
       id="path839"
       transform="scale(0.26458333)" />
  </g>
</svg>
