<?xml version="1.0" encoding="UTF-8" standalone="no"?>
<svg
   xmlns:dc="http://purl.org/dc/elements/1.1/"
   xmlns:cc="http://creativecommons.org/ns#"
   xmlns:rdf="http://www.w3.org/1999/02/22-rdf-syntax-ns#"
   xmlns:svg="http://www.w3.org/2000/svg"
   xmlns="http://www.w3.org/2000/svg"
   xmlns:sodipodi="http://sodipodi.sourceforge.net/DTD/sodipodi-0.dtd"
   xmlns:inkscape="http://www.inkscape.org/namespaces/inkscape"
   width="236mm"
   height="242mm"
   viewBox="0 0 236 242"
   version="1.1"
   id="svg8"
   inkscape:version="1.0.2 (e86c8708, 2021-01-15)"
   sodipodi:docname="area.svg">
  <defs
     id="defs2" />
  <sodipodi:namedview
     id="base"
     pagecolor="#ffffff"
     bordercolor="#666666"
     borderopacity="1.0"
     inkscape:pageopacity="0.0"
     inkscape:pageshadow="2"
     inkscape:zoom="0.33401305"
     inkscape:cx="239.82662"
     inkscape:cy="308.51282"
     inkscape:document-units="mm"
     inkscape:current-layer="layer1"
     inkscape:document-rotation="0"
     showgrid="false"
     inkscape:window-width="1440"
     inkscape:window-height="773"
     inkscape:window-x="-14"
     inkscape:window-y="28"
     inkscape:window-maximized="0" />
  <metadata
     id="metadata5">
    <rdf:RDF>
      <cc:Work
         rdf:about="">
        <dc:format>image/svg+xml</dc:format>
        <dc:type
           rdf:resource="http://purl.org/dc/dcmitype/StillImage" />
        <dc:title></dc:title>
      </cc:Work>
    </rdf:RDF>
  </metadata>
  <g
     inkscape:label="レイヤー 1"
     inkscape:groupmode="layer"
     id="layer1">
    <path
       style="fill:#522f60;fill-opacity:1;fill-rule:evenodd;stroke:#ffffff;stroke-width:7.70458"
       d="m 78.040046,235.2495 c -0.752573,-0.43777 -3.691021,-1.01243 -6.529881,-1.27703 -4.334666,-0.40401 -5.242989,-0.74852 -5.669829,-2.15048 -0.798077,-2.62127 -2.776984,-4.44186 -4.82814,-4.44186 -2.05716,0 -3.421371,-2.45619 -3.438387,-6.19061 -0.0053,-1.16974 -1.263875,-4.97849 -2.796772,-8.46388 -2.434782,-5.53604 -2.723617,-6.85747 -2.285005,-10.45388 0.462018,-3.78836 0.327667,-4.27813 -1.68409,-6.13904 -1.202391,-1.11223 -2.684181,-2.02225 -3.292862,-2.02225 -0.608682,0 -2.113151,-0.7427 -3.343262,-1.65044 l -2.236564,-1.65045 -4.101268,2.14045 c -2.255699,1.17724 -4.584316,2.8288 -5.17471,3.67011 -0.917047,1.3068 -1.23436,1.36904 -2.177944,0.42723 -0.607479,-0.60633 -1.920834,-1.53848 -2.918568,-2.07144 -2.10773,-1.12589 -3.4426,-4.04003 -2.428396,-5.3014 1.51907,-1.88926 -0.801122,-9.82248 -2.872737,-9.82248 -1.570396,0 -2.406754,-2.09241 -1.34969,-3.37666 2.324606,-2.82423 5.719927,-10.26589 5.719927,-12.5366 0,-1.42878 -0.746127,-4.13617 -1.658059,-6.01642 l -1.658061,-3.41863 1.658061,-3.41863 c 0.911932,-1.88025 1.658059,-4.71517 1.658059,-6.29981 0,-1.58464 0.418768,-3.79854 0.9306,-4.91976 0.744963,-1.63194 0.690383,-2.54795 -0.273619,-4.59205 -0.713799,-1.51356 -1.054661,-3.78683 -0.836985,-5.58197 0.29385,-2.42335 0.03751,-3.25902 -1.282801,-4.18206 -2.133998,-1.49189 -3.358047,-6.00056 -2.777268,-10.22981 0.286033,-2.08291 0.124693,-3.5485 -0.428186,-3.88956 -0.487939,-0.30099 -0.88716,-1.57457 -0.88716,-2.83017 0,-1.25559 -0.380336,-2.51752 -0.845191,-2.80427 -0.464853,-0.28676 -0.732704,-1.6391 -0.595224,-3.00522 0.194751,-1.93518 -0.08779,-2.54903 -1.279069,-2.778939 -1.639116,-0.31635 -4.35333,-3.12949 -4.396804,-4.55705 -0.01458,-0.47707 -0.740669,-1.51258 -1.613668,-2.30114 -1.198866,-1.08292 -1.587266,-2.43975 -1.587266,-5.54495 0,-3.10432 -0.388479,-4.462105 -1.5862316,-5.54402 -1.5686305,-1.41691 -1.5355745,-1.483011 2.9761166,-5.948712 2.509305,-2.483734 5.146804,-5.237387 5.861098,-6.119228 0.714312,-0.88184 1.785715,-1.793983 2.380901,-2.026989 0.741331,-0.290216 -0.167604,-1.626081 -2.886018,-4.241564 -2.182483,-2.099858 -4.250452,-3.729905 -4.59551,-3.622326 -1.245785,0.38839 -3.7375155,-1.496256 -3.7339368,-2.824175 0.00266,-0.747102 1.0959868,-2.521617 2.4310258,-3.943369 1.486322,-1.582886 2.270147,-3.118308 2.02187,-3.960675 -0.223015,-0.756618 0.458833,-2.801511 1.515216,-4.544208 2.664008,-4.394811 4.345428,-8.246229 4.345428,-9.953503 0,-0.793439 0.80355,-2.007973 1.78567,-2.698967 1.721457,-1.211172 1.920831,-1.113088 5.544244,2.727555 2.067214,2.191147 4.088989,3.983905 4.492832,3.983905 0.820518,0 4.843515,-4.541078 4.843515,-5.467261 0,-0.326095 1.607105,-2.658628 3.571342,-5.183409 1.964239,-2.524779 3.571343,-5.038662 3.571343,-5.586407 0,-0.547746 0.534058,-1.438294 1.186796,-1.978996 0.652736,-0.540703 1.614,-2.406285 2.136137,-4.145737 0.522138,-1.739453 1.595182,-3.565215 2.384544,-4.057251 0.789364,-0.492035 1.443147,-1.43267 1.452853,-2.0903 0.0097,-0.6576291 0.690295,-2.0692711 1.512421,-3.1369821 1.126952,-1.463592 1.757304,-1.733192 2.561657,-1.095608 0.586782,0.465127 3.56682,1.63808 6.6223,2.606564 3.525467,1.117453 6.340522,2.5939481 7.704023,4.0407571 2.018659,2.141996 2.07895,2.413155 0.996928,4.483605 -1.457945,2.789778 -1.449314,3.042826 0.227404,6.66701 0.989004,2.137708 1.769478,2.887312 2.710922,2.603697 0.727134,-0.219055 1.551764,-0.02732 1.832507,0.426076 0.700586,1.131434 5.437736,1.040948 6.607095,-0.126205 0.523797,-0.522809 0.952358,-1.409886 0.952358,-1.971282 0,-0.561396 0.575013,-1.691021 1.277807,-2.510277 1.167058,-1.360452 1.581378,-1.398369 4.780252,-0.437465 2.134846,0.641282 4.190882,0.797904 5.265537,0.401111 0.994278,-0.367113 2.744459,-0.309523 4.013595,0.132065 1.625239,0.565493 2.784772,0.497648 4.173542,-0.244198 1.70105,-0.908651 2.14455,-0.819567 3.84149,0.771628 1.52999,1.434649 1.83119,2.335482 1.48754,4.449127 -0.57107,3.512452 0.21865,6.394156 1.93845,7.073522 2.40659,0.950661 5.69769,1.158116 6.17382,0.389168 0.45784,-0.739407 6.97574,-0.404815 8.32474,0.427344 0.7623,0.470239 3.17012,-3.575874 3.16143,-5.312473 -0.008,-1.646781 5.79557,-6.263999 7.14784,-5.686461 0.65475,0.279634 4.22609,1.085383 7.93632,1.790554 8.07651,1.535036 8.72994,1.898294 8.72994,4.853174 0,3.192475 4.5698,6.655946 8.59607,6.515008 1.60137,-0.05606 3.7108,-0.339143 4.68762,-0.629081 1.24811,-0.370465 1.92208,-0.147259 2.2674,0.750911 0.27024,0.70294 0.89957,1.292558 1.3985,1.310267 0.49891,0.0177 2.1436,1.087086 3.65486,2.376403 3.2053,2.73458 3.40609,2.76793 6.09141,1.011748 1.13189,-0.740241 3.69444,-1.35644 5.76558,-1.386409 3.38076,-0.04891 3.83534,0.167484 4.87891,2.322634 0.63293,1.307116 1.95433,2.728447 2.93646,3.158514 1.51751,0.664512 1.78566,1.391404 1.78566,4.840301 0,3.046963 0.50583,4.802333 2.02969,7.043621 1.11632,1.641893 1.84515,3.465203 1.61964,4.051802 -0.56338,1.465334 1.56498,6.315036 3.32986,7.587504 0.79575,0.573728 2.61281,3.092791 4.03793,5.597917 1.42511,2.505128 2.97761,4.554775 3.45,4.554775 0.47238,0 2.05101,0.907566 3.50806,2.016816 3.64244,2.772985 8.93078,5.069505 11.78602,5.118215 1.48608,0.0254 3.35025,0.92081 4.96019,2.38264 2.97958,2.70547 3.03509,2.9251 1.23982,4.90512 -1.13575,1.25262 -1.19611,1.87306 -0.39681,4.07928 0.51846,1.43108 0.94266,3.853989 0.94266,5.384219 0,1.53023 0.22689,3.00871 0.50421,3.28549 1.07655,1.07454 0.97435,6.09321 -0.14688,7.21233 -1.33064,1.32813 -1.5075,3.32492 -0.35733,4.03442 1.37088,0.84566 0.86396,4.83981 -0.80566,6.34794 -0.87962,0.79454 -1.81281,2.77731 -2.07376,4.40616 -0.84486,5.27346 -7.32126,9.97807 -13.0966,9.51368 -1.63344,-0.13134 -2.27202,0.31678 -2.9359,2.06027 -1.0918,2.8673 -4.48062,6.58487 -6.00257,6.58487 -0.64993,0 -1.4024,0.35646 -1.67217,0.79213 -0.26976,0.43567 -1.49709,0.79214 -2.72737,0.79214 -1.23029,0 -2.65047,0.4974 -3.15596,1.10533 -0.5055,0.60794 -2.17865,1.3412 -3.71811,1.62945 -1.82669,0.34205 -4.18756,1.85995 -6.79609,4.36949 -3.50152,3.36866 -3.93429,4.13058 -3.49083,6.14584 0.35906,1.63171 0.0702,2.86104 -0.99344,4.22882 -0.82483,1.0606 -1.65536,2.41309 -1.84565,3.00552 -0.53171,1.65548 -8.81618,5.77803 -9.74608,4.84988 -1.47652,-1.47373 -6.5,-0.83893 -9.51344,1.20218 -1.93612,1.31141 -4.01672,1.98033 -6.15953,1.98033 -4.15127,0 -18.22584,2.08196 -23.75882,3.5145 -4.92025,1.27389 -5.16025,1.10001 -5.94449,-4.30663 -0.89662,-6.18126 -3.29389,-7.30387 -12.00408,-5.62135 -3.71455,0.71753 -3.47491,1.02831 -5.74387,-7.44887 -0.49061,-1.83302 -1.72698,-3.80362 -2.93328,-4.67528 -1.97884,-1.42987 -2.21115,-1.43878 -4.553582,-0.17462 -1.357602,0.73266 -4.206826,3.30445 -6.331598,5.71507 -3.592192,4.07544 -3.828179,4.60178 -3.363555,7.50187 0.333327,2.08057 0.201893,3.11891 -0.394784,3.11891 -0.856979,0 -0.694379,3.55512 0.545343,11.92347 0.358889,2.42256 0.02452,3.22915 -2.404101,5.79938 -1.551525,1.642 -2.808417,3.22742 -2.793082,3.52315 0.01532,0.29574 0.52271,2.84184 1.127505,5.65802 0.774346,3.60569 0.859511,5.5681 0.287912,6.63412 -0.553064,1.03148 -0.553143,2.05016 -2.22e-4,3.19711 1.985985,4.11964 3.254955,9.43162 2.561892,10.72419 -0.431673,0.80506 -0.429101,1.80064 0.0063,2.48773 1.151026,1.81589 0.871313,3.12585 -0.667453,3.12585 -0.779814,0 -2.750982,1.78231 -4.380359,3.96068 -3.158501,4.2227 -3.376326,4.34635 -5.490492,3.11656 z"
       id="path851" />
  </g>
</svg>
