<?xml version="1.0" encoding="UTF-8" standalone="no"?>
<svg
   xmlns:dc="http://purl.org/dc/elements/1.1/"
   xmlns:cc="http://creativecommons.org/ns#"
   xmlns:rdf="http://www.w3.org/1999/02/22-rdf-syntax-ns#"
   xmlns:svg="http://www.w3.org/2000/svg"
   xmlns="http://www.w3.org/2000/svg"
   xmlns:sodipodi="http://sodipodi.sourceforge.net/DTD/sodipodi-0.dtd"
   xmlns:inkscape="http://www.inkscape.org/namespaces/inkscape"
   version="1.1"
   id="_x32_"
   x="0px"
   y="0px"
   viewBox="0 0 512 512"
   style="width: 64px; height: 64px; opacity: 1;"
   xml:space="preserve"
   sodipodi:docname="enquete.svg"
   inkscape:version="1.0.2 (e86c8708, 2021-01-15)"><metadata
   id="metadata41"><rdf:RDF><cc:Work
       rdf:about=""><dc:format>image/svg+xml</dc:format><dc:type
         rdf:resource="http://purl.org/dc/dcmitype/StillImage" /><dc:title /></cc:Work></rdf:RDF></metadata><defs
   id="defs39" /><sodipodi:namedview
   pagecolor="#ffffff"
   bordercolor="#666666"
   borderopacity="1"
   objecttolerance="10"
   gridtolerance="10"
   guidetolerance="10"
   inkscape:pageopacity="0"
   inkscape:pageshadow="2"
   inkscape:window-width="1375"
   inkscape:window-height="772"
   id="namedview37"
   showgrid="false"
   inkscape:zoom="0.82499504"
   inkscape:cx="147.42437"
   inkscape:cy="174.14484"
   inkscape:window-x="60"
   inkscape:window-y="25"
   inkscape:window-maximized="0"
   inkscape:current-layer="_x32_"
   inkscape:document-rotation="0" />
<style
   type="text/css"
   id="style10">
	.st0{fill:#4B4B4B;}
</style>
<g
   id="g34">
	<path
   class="st0"
   d="M155.907,110.129h129.006c15.28,0,27.653-12.382,27.653-27.662v-3.177V57.943v-3.176   c0-15.28-12.373-27.662-27.653-27.662h-34.96C248.555,11.929,235.944,0,220.41,0c-15.55,0-28.162,11.929-29.56,27.105h-34.943   c-15.281,0-27.67,12.382-27.67,27.662v3.176v21.348v3.177C128.237,97.748,140.626,110.129,155.907,110.129z M220.41,16.265   c7.481,0,13.549,6.068,13.549,13.548c0,7.489-6.068,13.557-13.549,13.557c-7.497,0-13.565-6.068-13.565-13.557   C206.845,22.332,212.912,16.265,220.41,16.265z"
   id="path12" />
	<path
   class="st0"
   d="M480.09,160.996c0.08,0.072,0.128,0.159,0.191,0.238c0.063,0.055,0.143,0.095,0.19,0.15L480.09,160.996z"
   id="path14" />
	<path
   class="st0"
   d="M480.282,161.235c-8.927-8.752-23.254-8.72-32.116,0.15l-20.331,20.331l31.926,31.926l20.331-20.331   C488.938,184.456,488.986,170.161,480.282,161.235z"
   id="path16" />
	<path
   class="st0"
   d="M280.878,401.966l69.285-69.276l-41.377-41.377l-69.284,69.292c-4.146,4.153-4.146,10.904,0,15.065   l26.303,26.295C269.966,406.128,276.717,406.128,280.878,401.966z"
   id="path18" />
	<polygon
   class="st0"
   points="218.122,417.81 208.529,427.42 214.056,432.956 223.666,423.354 264.852,409.868 231.607,376.632  "
   id="polygon20" />
	<path
   class="st0"
   d="M383.058,100.782v93.276l32.53-32.53v-58.84c0-25.462-20.649-46.103-46.11-46.103h-40.647v25.882   c0,3.113-0.333,6.155-0.953,9.094h45.951C378.928,91.561,383.058,95.691,383.058,100.782z"
   id="path22" />
	<path
   class="st0"
   d="M383.058,457.241c0,5.091-4.13,9.22-9.229,9.22H66.974c-5.083,0-9.212-4.13-9.212-9.22v-356.46   c0-5.091,4.13-9.22,9.212-9.22h45.968c-0.62-2.938-0.969-5.981-0.969-9.094V56.585H71.326c-25.462,0-46.094,20.641-46.094,46.103   v363.21c0,25.461,20.633,46.102,46.094,46.102h298.151c25.461,0,46.11-20.641,46.11-46.102V290.257l-32.53,32.53V457.241z"
   id="path24" />
	<path
   class="st0"
   d="M316.172,283.928l41.377,41.369l100.94-100.948l-41.361-41.361L316.172,283.928z M426.976,214.492   c3.574,3.566,3.574,9.364,0,12.929l-49.112,49.12c-3.573,3.566-9.356,3.566-12.929,0c-3.574-3.566-3.574-9.364,0-12.93   l49.128-49.12C417.62,210.926,423.418,210.926,426.976,214.492z"
   id="path26" />
	<polygon
   class="st0"
   points="93.086,182.454 125.744,215.127 137.624,203.247 170.297,170.574 158.416,158.701 125.744,191.366    104.968,170.574  "
   id="polygon28" />
	<polygon
   class="st0"
   points="158.416,244.091 125.744,276.756 104.968,255.964 93.086,267.845 125.744,300.518 137.624,288.637    170.297,255.964  "
   id="polygon30" />
	<polygon
   class="st0"
   points="104.968,341.354 93.086,353.235 125.744,385.908 137.624,374.027 170.297,341.354 158.416,329.481    125.744,362.146  "
   id="polygon32" />
</g>
<path
   style="fill:#ff9955;stroke:#000000;stroke-width:9.67651;stroke-opacity:0"
   d="m 149.05884,108.79913 c -8.30094,-2.57451 -15.99298,-9.658615 -18.5107,-17.047715 -1.12626,-3.305393 -1.42749,-8.33212 -1.42749,-23.821421 V 48.298008 l 2.77144,-5.546129 c 3.17314,-6.350012 6.46586,-9.457748 13.54162,-12.780827 4.82249,-2.264845 5.65489,-2.35133 25.60244,-2.660062 18.80357,-0.291027 20.6179,-0.456828 20.6179,-1.884149 0,-7.66905 10.03774,-20.1556002 18.51363,-23.0302093 5.01904,-1.70221378 13.78839,-1.97222556 18.80458,-0.5790005 8.58565,2.3846268 16.585,10.8047088 19.37169,20.3905558 l 1.39097,4.784758 20.57845,0.331379 c 18.69055,0.300977 20.9672,0.509275 24.81592,2.270489 5.97161,2.732675 11.95471,8.576979 14.46521,14.129652 2.0477,4.529093 2.14178,5.632878 2.14178,25.1285 0,19.745951 -0.0695,20.532528 -2.19583,24.852863 -2.8013,5.691717 -8.15368,11.044092 -13.52889,13.528892 -4.18628,1.93518 -4.66659,1.94878 -74.45024,2.10743 -38.63023,0.0878 -71.25635,-0.15653 -72.50248,-0.54302 z m 78.939,-67.379231 c 11.56654,-7.726956 6.16823,-25.124459 -7.79594,-25.124459 -5.91741,0 -9.9992,2.491732 -12.26758,7.488767 -2.27992,5.022417 -2.21915,7.701562 0.28194,12.431203 3.74131,7.074921 13.24058,9.574157 19.78158,5.204489 z"
   id="path43" /><path
   style="fill:#ff9955;stroke:#000000;stroke-width:9.67651;stroke-opacity:0.05373134"
   d="M 66.580396,511.15467 C 55.711065,509.72343 46.168197,505.02382 39.144436,497.64319 33.018419,491.20591 29.57525,485.3322 27.463524,477.71665 25.880496,472.00776 25.804615,463.17126 25.804615,284.5313 c 0,-204.964342 -0.341741,-191.726772 5.239812,-202.967088 3.370556,-6.787738 12.039142,-15.430279 18.996949,-18.939875 9.964495,-5.026202 13.655214,-5.553026 38.902283,-5.553026 h 22.881861 l 0.26447,17.220344 0.26446,17.220344 -24.765867,-0.001 -24.765873,-0.001 -2.649129,2.649129 -2.649129,2.64913 V 279.11018 461.4121 l 2.649129,2.64912 2.649129,2.64913 h 157.29518 157.29518 l 2.9597,-2.64425 2.95972,-2.64425 0.24299,-69.20464 0.24299,-69.20463 15.86887,-15.8338 15.86888,-15.83381 -0.25782,91.08125 -0.25783,91.08124 -2.04166,6.02671 c -4.85635,14.3353 -15.65703,25.10403 -30.11956,30.03047 l -5.89083,2.00662 -152.70836,0.12034 c -83.98959,0.0662 -154.954487,-0.17543 -157.699764,-0.53692 z"
   id="path45" /><path
   style="fill:#ff9955;stroke:#000000;stroke-width:9.67651;stroke-opacity:0.02089552"
   d="m 109.39093,198.20673 -15.632036,-15.65121 5.692212,-5.64161 5.692214,-5.64162 10.3908,10.42037 10.39081,10.42037 16.34364,-16.32574 16.34365,-16.32573 5.40119,5.45814 5.4012,5.45815 -21.72589,21.74004 c -11.94924,11.95702 -21.93736,21.74004 -22.19582,21.74004 -0.25846,0 -7.50435,-7.04304 -16.10197,-15.6512 z"
   id="path47" /><path
   style="fill:#ff9955;stroke:#000000;stroke-width:9.67651;stroke-opacity:0"
   d="m 109.84553,283.85174 -16.086893,-16.10554 5.69234,-5.64175 5.692343,-5.64174 10.3908,10.42037 10.39081,10.42036 16.34254,-16.32462 16.34253,-16.32463 5.63797,5.68852 5.63796,5.68853 -21.97675,21.96302 -21.97675,21.96301 z"
   id="path49" /><path
   style="fill:#ff9955;stroke:#000000;stroke-width:9.67651;stroke-opacity:0"
   d="m 109.84666,369.04328 -16.090235,-16.10888 5.454159,-5.39725 5.454156,-5.39725 10.41807,10.38852 10.41807,10.38851 16.31057,-16.29169 16.31058,-16.29169 5.65836,5.65837 5.65837,5.65837 -21.75093,21.75093 -21.75094,21.75094 z"
   id="path51" /><path
   style="fill:#ff9955;stroke:#000000;stroke-width:9.67651;stroke-opacity:0"
   d="m 253.08252,388.06253 c -14.30876,-14.30876 -16.11442,-16.44638 -16.11442,-19.07691 0,-1.62937 0.58509,-4.06376 1.30021,-5.40975 0.71511,-1.346 16.82471,-17.94311 35.79909,-36.88247 l 34.49888,-34.4352 20.40217,20.40217 20.40217,20.40217 -35.63205,35.5572 -35.63205,35.55721 h -4.45479 -4.45479 z"
   id="path53" /><path
   style="fill:#ff7f2a;stroke:#000000;stroke-width:9.67651;stroke-opacity:0"
   d="m 211.59318,430.00697 -2.16616,-2.30577 4.63115,-4.73845 c 4.57116,-4.67706 4.71551,-5.0013 11.1431,-25.02876 l 6.51195,-20.29032 15.7507,15.73141 c 8.66289,8.65228 15.45285,15.99792 15.08881,16.32366 -0.36405,0.32574 -9.4144,3.49586 -20.11189,7.04471 -18.93242,6.28075 -19.57281,6.57375 -24.06574,11.01087 l -4.61576,4.55842 z"
   id="path55" /><path
   style="fill:#ff9955;stroke:#000000;stroke-width:9.67651;stroke-opacity:0"
   d="m 336.88019,304.25424 -20.15503,-20.16998 50.06986,-50.04648 50.06986,-50.04649 20.16476,19.81953 c 11.09061,10.90075 20.16475,20.17104 20.16475,20.60067 0,0.81085 -98.8932,100.01273 -99.70153,100.01273 -0.2517,0 -9.5274,-9.07649 -20.61267,-20.16998 z m 38.09831,-25.50621 c 1.60396,-0.69764 14.48124,-12.87698 28.61617,-27.06521 24.89209,-24.98595 25.71431,-25.92476 26.15882,-29.86844 0.40424,-3.58652 0.13154,-4.43808 -2.28881,-7.1469 -2.36909,-2.65148 -3.32169,-3.07525 -6.91287,-3.07525 h -4.16516 l -27.17588,27.21937 c -26.54936,26.59184 -27.17589,27.30282 -27.17589,30.83848 0,4.34112 1.94839,7.39628 5.78054,9.06411 3.57631,1.5565 3.6613,1.5569 7.16308,0.0338 z"
   id="path57" /><path
   style="fill:#ff9955;stroke:#000000;stroke-width:9.67651;stroke-opacity:0"
   d="m 444.26835,197.76018 c -8.34277,-8.35361 -15.16867,-15.47666 -15.16867,-15.829 0,-1.38963 22.36828,-22.72831 25.49942,-24.3257 5.15917,-2.63202 9.85837,-3.04417 15.61799,-1.3698 13.02719,3.78711 19.54126,17.93879 13.80021,29.98068 -1.46881,3.08084 -5.74883,8.0848 -13.37033,15.6318 l -11.20996,11.1004 z"
   id="path59" /><path
   style="fill:#ff9955;stroke:#000000;stroke-width:9.67651;stroke-opacity:0"
   d="m 383.78563,146.16271 c 0,-26.70776 -0.36084,-47.327259 -0.85076,-48.615865 -0.46792,-1.230721 -1.7683,-3.092488 -2.88974,-4.137264 -1.96738,-1.832898 -2.91195,-1.89959 -26.90409,-1.89959 h -24.86513 l 0.56643,-2.832128 c 0.31153,-1.557671 0.56642,-9.306374 0.56642,-17.21934 V 57.071311 l 22.8836,0.05224 c 25.90454,0.05914 30.98287,0.860051 40.04118,6.31495 6.51402,3.922729 14.90595,12.7575 17.70026,18.634299 4.82491,10.147417 4.86457,10.493701 5.23255,45.68843 l 0.34587,33.07926 -15.91329,15.8502 -15.9133,15.85022 z"
   id="path61" /><path
   style="fill:#784421;stroke:#000000;stroke-width:10.6614;stroke-opacity:0"
   d="M 61.670712,509.75667 C 44.68038,506.0658 30.129534,491.09463 27.412835,474.50919 26.211397,467.1744 26.213759,109.59344 27.415327,97.177152 28.126736,89.82588 28.94503,86.783597 31.500562,81.988929 35.727982,74.057478 44.648471,65.67526 53.144563,61.65095 l 6.77758,-3.21031 25.711971,-0.324212 25.711976,-0.324212 0.005,5.316828 c 0.002,2.924255 0.29582,10.371851 0.65182,16.550213 l 0.64728,11.233386 H 87.838361 63.026989 l -2.800577,2.683122 -2.800577,2.683123 V 279.11426 461.96963 l 2.800577,2.68312 2.800577,2.68313 H 220.2935 377.56002 l 3.19144,-3.29274 3.19145,-3.29273 v -68.86266 -68.86264 l 15.47711,-15.45294 15.47711,-15.45295 v 90.5811 90.5811 l -2.45545,6.52354 c -5.37832,14.28887 -15.90922,24.62214 -30.05193,29.48794 -5.63786,1.93971 -8.73717,1.97646 -160.11428,1.89861 -126.051507,-0.0648 -155.509611,-0.32799 -160.604758,-1.43484 z"
   id="path928" /><path
   style="fill:#784421;stroke:#000000;stroke-width:10.6614;stroke-opacity:0"
   d="m 383.73945,144.52685 -0.2958,-47.599516 -2.6959,-2.694982 -2.6959,-2.694981 -24.64576,-0.45607 -24.64577,-0.456071 0.62407,-6.606325 c 0.34324,-3.633479 0.62727,-11.212013 0.63117,-16.841187 l 0.007,-10.234863 13.23043,0.0371 c 7.27674,0.0204 19.00835,0.432125 26.07025,0.914935 11.4651,0.783849 13.53629,1.220707 19.34481,4.080235 13.06495,6.431851 23.24046,20.006395 25.21072,33.632109 0.53828,3.722634 0.9876,20.029256 0.99848,36.236936 l 0.0198,29.46852 -15.43094,15.40684 -15.43093,15.40685 z"
   id="path930" /><path
   style="fill:#784421;stroke:#000000;stroke-width:10.6614;stroke-opacity:0"
   d="m 272.98562,403.63846 c -4.49292,-0.2989 -4.9821,-0.6808 -18.5565,-14.48649 -7.66806,-7.79872 -14.73026,-15.3969 -15.69378,-16.88485 -3.65976,-5.65175 -2.88923,-6.63819 34.74915,-44.48599 l 35.06992,-35.26505 20.21824,20.26627 20.21823,20.26628 -35.69534,35.44841 -35.69535,35.44841 z"
   id="path932" /><path
   style="fill:#784421;stroke:#000000;stroke-width:10.6614;stroke-opacity:0"
   d="m 211.70657,429.40184 c -1.75163,-1.93554 -1.67989,-2.11389 2.75978,-6.86025 4.23767,-4.53042 4.99732,-6.23363 10.80418,-24.22403 3.4353,-10.64304 6.44513,-19.57565 6.6885,-19.85025 0.63097,-0.71192 30.11988,30.21787 29.60478,31.05132 -0.23465,0.37968 -8.85452,3.52677 -19.15526,6.99352 -16.73091,5.63087 -19.21894,6.76046 -23.32551,10.59005 -2.5283,2.35776 -4.81767,4.28684 -5.08749,4.28684 -0.26982,0 -1.29986,-0.89424 -2.28898,-1.9872 z"
   id="path934" /><path
   style="fill:#784421;stroke:#000000;stroke-width:10.6614;stroke-opacity:0"
   d="m 336.75602,303.82127 -19.70877,-19.72728 49.92379,-49.9163 49.92379,-49.91631 20.17737,20.17736 20.17736,20.17736 -49.34317,49.46622 c -27.13874,27.20642 -49.81531,49.46622 -50.39238,49.46622 -0.57707,0 -9.91816,-8.87727 -20.75799,-19.72727 z m 52.6756,-38.06422 c 7.91808,-7.4816 20.25706,-19.79862 27.41994,-27.37115 11.89959,-12.58014 13.02341,-14.08892 13.02341,-17.48436 0,-5.48115 -3.75878,-9.18759 -9.31732,-9.18759 -4.22646,0 -4.35544,0.11203 -31.41307,27.28582 -25.04119,25.1487 -27.16918,27.55574 -27.16918,30.73204 0,1.89542 0.73165,4.4908 1.6259,5.76751 1.94649,2.77901 6.90711,5.04441 9.53889,4.35618 1.04219,-0.27254 8.37334,-6.61684 16.29143,-14.09845 z"
   id="path936" /><path
   style="fill:#784421;stroke:#000000;stroke-width:10.6614;stroke-opacity:0"
   d="m 444.5983,197.88331 c -8.09783,-8.25612 -14.72333,-15.43406 -14.72333,-15.95097 0,-0.51692 5.37047,-6.11761 11.93436,-12.44599 13.22601,-12.75145 16.04809,-14.27581 24.76384,-13.37626 10.02991,1.03518 17.70937,8.55504 18.88649,18.49402 1.0188,8.60212 -1.2942,12.79828 -14.55481,26.40489 l -11.58323,11.88545 z"
   id="path938" /><path
   style="fill:#784421;stroke:#000000;stroke-width:10.6614;stroke-opacity:0"
   d="m 144.29735,106.30754 c -5.94731,-3.40972 -9.70461,-7.053736 -12.29065,-11.920066 -1.92228,-3.617289 -2.15843,-5.933086 -2.50312,-24.547264 l -0.3806,-20.553172 2.99374,-5.907692 c 3.63144,-7.166064 6.02808,-9.497674 13.17915,-12.821513 4.76467,-2.214628 6.94631,-2.568732 16.47564,-2.67416 6.04106,-0.06683 15.2357,-0.408226 20.43252,-0.758647 l 9.44877,-0.637127 0.61905,-2.99557 c 1.50014,-7.259203 8.62764,-16.1700747 15.68402,-19.6083319 6.67474,-3.25229974 18.95532,-3.31423302 24.71078,-0.1246212 7.62145,4.2237195 13.33852,11.0961521 15.42243,18.5391311 l 1.23014,4.393652 11.14492,0.642221 c 6.1297,0.353222 15.4136,0.654133 20.63088,0.668692 10.86997,0.03034 15.25551,1.52643 21.79634,7.43568 7.58046,6.848491 8.15936,9.214079 8.15936,33.342156 0,23.698752 -0.40256,25.443293 -7.51151,32.552252 -7.52208,7.52208 -1.67148,7.00404 -82.35558,7.29209 l -72.39293,0.25844 z M 226.1069,42.500133 c 5.05352,-2.613275 8.05753,-7.158085 8.05753,-12.19032 0,-5.853952 -2.45487,-9.872423 -7.53273,-12.330572 -7.56008,-3.659771 -15.06268,-1.58445 -18.47867,5.111455 -2.61508,5.125967 -2.46042,9.667335 0.4764,13.989255 4.18716,6.161958 11.5984,8.460364 17.47747,5.420182 z"
   id="path940" /><path
   style="fill:#d38d5f;stroke:#000000;stroke-width:10.6614;stroke-opacity:0"
   d=""
   id="path942" /><path
   style="fill:#784421;stroke:#000000;stroke-width:10.6614;stroke-opacity:0"
   d="m 109.83434,198.33424 -15.96241,-15.38801 5.46623,-5.59517 5.46623,-5.59518 10.02793,9.9938 c 5.51536,5.49659 10.46463,9.9938 10.99838,9.9938 0.53375,0 8.17497,-7.19459 16.98049,-15.98798 l 16.01004,-15.98798 5.20822,5.27374 5.20823,5.27373 -21.72046,21.70363 -21.72046,21.70363 z"
   id="path944" /><path
   style="fill:#784421;stroke:#000000;stroke-width:10.6614;stroke-opacity:0"
   d="m 109.86125,283.62059 -15.943382,-15.96679 5.443631,-5.5121 5.443631,-5.5121 10.52377,10.49114 10.52377,10.49114 15.96237,-15.99464 c 8.77931,-8.79705 16.41375,-15.87305 16.96542,-15.72444 0.55168,0.14861 3.11468,2.54136 5.69556,5.31724 l 4.69251,5.04704 -21.68195,21.66514 -21.68194,21.66514 z"
   id="path946" /><path
   style="fill:#784421;stroke:#000000;stroke-width:10.6614;stroke-opacity:0"
   d="m 110.09038,368.72451 -15.71972,-15.74278 5.228049,-5.22805 5.228051,-5.22805 10.25258,10.21769 10.25258,10.21769 16.24539,-16.22301 16.24539,-16.22302 5.45065,5.51921 5.45064,5.5192 -21.45695,21.45695 -21.45695,21.45695 z"
   id="path948" /><path
   style="fill:#c83771;fill-rule:evenodd;stroke:#000000;stroke-width:13.7549;stroke-miterlimit:4;stroke-dasharray:none;stroke-opacity:0"
   d="m 142.34704,104.66292 c -6.82673,-4.985965 -10.32697,-9.864767 -11.52694,-16.066801 -0.4963,-2.565138 -0.92188,-12.832531 -0.94573,-22.816427 l -0.0434,-18.152537 3.589,-6.050846 c 2.99091,-5.042502 4.76028,-6.646686 10.61761,-9.626346 6.30991,-3.209895 8.05172,-3.588091 17.03433,-3.69864 5.50315,-0.06773 14.67934,-0.439029 20.39153,-0.825116 l 10.3858,-0.701975 0.95374,-3.69711 c 2.24317,-8.695461 10.9572,-17.9262213 18.98035,-20.1058407 2.42033,-0.6575246 7.64223,-0.9661055 11.60422,-0.6857352 11.3293,0.8017194 19.91013,7.7126813 24.07638,19.3910069 l 1.81861,5.097679 8.20416,0.681321 c 4.51229,0.374728 13.05939,0.74603 18.99357,0.825115 5.93417,0.07909 13.00534,0.701772 15.71369,1.383744 6.49673,1.635896 15.38469,9.549489 16.9155,15.06109 1.49481,5.381998 1.47352,44.270701 -0.0264,48.261377 -1.72124,4.579447 -9.76248,12.308921 -14.20764,13.656811 -2.50617,0.75994 -29.21306,1.35438 -75.39099,1.67804 l -71.50999,0.50121 -5.62741,-4.11002 z m 84.39169,-62.589946 c 4.09181,-2.115955 7.59347,-7.683652 7.57746,-12.04828 -0.0409,-11.157605 -14.51883,-18.038903 -22.97771,-10.921226 -4.28291,3.603832 -6.31313,10.408497 -4.44852,14.910065 3.41576,8.246369 12.41841,11.901828 19.84877,8.059441 z"
   id="path901" /><path
   style="fill:#e6e6e6;fill-rule:evenodd;stroke:#000000;stroke-width:13.7549;stroke-miterlimit:4;stroke-dasharray:none;stroke-opacity:0"
   d="m 101.76798,510.28469 -41.805841,-0.59293 -6.360233,-2.98029 C 45.294373,502.81872 35.307815,493.20656 31.271889,485.2186 L 28.073065,478.88745 27.116672,383.866 c -0.538827,-53.53465 -0.542186,-138.3246 -0.0077,-194.20307 l 0.9487,-99.181631 3.602028,-7.313965 C 35.910031,74.536997 44.030898,66.595248 53.523131,61.786143 l 6.439008,-3.262234 25.578577,-0.322424 25.578574,-0.322424 0.007,7.525816 c 0.004,4.139199 0.32453,11.610136 0.71313,16.602084 l 0.70655,9.076269 H 87.270742 c -24.957712,0 -25.304679,0.03177 -27.654064,2.532581 l -2.379236,2.532581 -0.01923,183.040668 -0.01923,183.04067 2.398467,2.55305 2.398468,2.55305 H 220.02046 378.04501 l 2.95622,-3.08562 2.95621,-3.08562 v -68.71416 -68.71414 l 15.41961,-15.38742 15.41961,-15.38742 -0.29249,91.31277 -0.2925,91.31277 -3.52209,7.43542 c -4.67961,9.87905 -13.06854,18.61082 -22.2044,23.11186 l -7.22071,3.55749 -25.88233,0.71241 c -29.99383,0.82558 -192.37588,0.74909 -253.61416,-0.11948 z"
   id="path903" /><path
   style="fill:#e6e6e6;fill-rule:evenodd;stroke:#000000;stroke-width:13.7549;stroke-miterlimit:4;stroke-dasharray:none;stroke-opacity:0"
   d="m 110.31265,198.4016 -15.658718,-15.45553 4.89029,-5.42299 4.890288,-5.423 9.98124,9.62194 c 5.48968,5.29206 10.70237,9.46516 11.58376,9.27353 0.88139,-0.19162 8.71355,-7.12381 17.4048,-15.40487 l 15.80228,-15.05648 4.78175,4.87225 4.78175,4.87224 -21.38598,21.73585 c -11.76229,11.95471 -21.392,21.75986 -21.39936,21.78922 -0.007,0.0293 -7.05981,-6.90162 -15.6721,-15.40216 z"
   id="path905" /><path
   style="fill:#e6e6e6;fill-rule:evenodd;stroke:#000000;stroke-width:13.7549;stroke-miterlimit:4;stroke-dasharray:none;stroke-opacity:0"
   d="m 110.3537,283.34049 -15.599951,-15.68257 4.845821,-5.50077 4.84582,-5.50077 10.73668,10.70724 10.73667,10.70723 16.28853,-16.15858 16.28853,-16.15859 5.1818,5.18181 5.18181,5.18181 -21.45288,21.45288 -21.45288,21.45288 z"
   id="path907" /><path
   style="fill:#e6e6e6;fill-rule:evenodd;stroke:#000000;stroke-width:13.7549;stroke-miterlimit:4;stroke-dasharray:none;stroke-opacity:0"
   d="m 110.58717,368.33998 -15.359129,-15.38858 4.886729,-4.97922 4.88674,-4.97922 10.21389,10.17142 10.21389,10.17142 16.25072,-16.22363 16.25073,-16.22363 5.18477,5.26391 5.18476,5.26392 -21.17698,21.1561 -21.17699,21.1561 z"
   id="path909" /><path
   style="fill:#e6e6e6;fill-rule:evenodd;stroke:#000000;stroke-width:13.7549;stroke-miterlimit:4;stroke-dasharray:none;stroke-opacity:0"
   d="M 383.95744,144.35674 V 96.995657 l -3.02543,-2.830865 c -3.01801,-2.823938 -3.08405,-2.832134 -26.97936,-3.348532 -13.17467,-0.284715 -24.08388,-0.712424 -24.24269,-0.950462 -0.15881,-0.238039 -0.0993,-7.808409 0.13223,-16.823045 l 0.42096,-16.390246 20.75787,0.764476 c 32.7961,1.207824 38.64013,2.842903 49.43872,13.832254 12.4787,12.699138 14.19232,20.503245 14.26276,64.955043 l 0.0392,24.76819 -15.40215,15.37268 -15.40215,15.37268 z"
   id="path911" /><path
   style="fill:#e6e6e6;fill-rule:evenodd;stroke:#000000;stroke-width:13.7549;stroke-miterlimit:4;stroke-dasharray:none;stroke-opacity:0"
   d="m 212.54632,429.70342 c -2.03605,-2.03605 -1.62833,-3.28213 2.84535,-8.6959 3.24664,-3.92888 5.44601,-8.86932 10.03118,-22.53299 3.23004,-9.62542 6.21972,-17.88134 6.64372,-18.34648 0.42401,-0.46514 5.76419,4.23801 11.86706,10.45146 12.48918,12.71545 17.32889,18.29259 16.54988,19.07159 -0.29177,0.29177 -8.39825,3.29186 -18.01439,6.66686 -9.61615,3.375 -19.14852,7.44723 -21.18306,9.04939 -7.26345,5.71986 -7.32528,5.75054 -8.73974,4.33607 z"
   id="path913" /><path
   style="fill:#e6e6e6;fill-rule:evenodd;stroke:#000000;stroke-width:13.7549;stroke-miterlimit:4;stroke-dasharray:none;stroke-opacity:0"
   d="m 267.86863,401.49219 c -4.75423,-2.89927 -29.10087,-28.84067 -29.84794,-31.80302 -0.36659,-1.45366 0.15856,-3.68116 1.26652,-5.37212 2.76643,-4.2221 67.99979,-70.79681 69.37501,-70.80152 0.64102,-0.002 9.75549,8.94867 20.25439,19.89081 l 19.08891,19.89482 -35.10001,35.11288 c -38.19845,38.21244 -37.48135,37.68575 -45.03688,33.07815 z"
   id="path915" /><path
   style="fill:#e6e6e6;fill-rule:evenodd;stroke:#000000;stroke-width:13.7549;stroke-miterlimit:4;stroke-dasharray:none;stroke-opacity:0"
   d="m 337.13798,303.34992 -19.7238,-19.74666 49.48096,-49.49012 49.48095,-49.49012 20.37079,20.06384 20.37079,20.06383 -48.64663,48.34396 c -26.75564,26.58917 -49.31321,48.71701 -50.12794,49.17294 -1.01918,0.57037 -7.63475,-5.33156 -21.20512,-18.91767 z m 50.84849,-36.06629 c 16.92534,-15.54789 38.80059,-38.55665 41.00916,-43.13412 2.22267,-4.60667 0.56113,-8.7826 -4.47589,-11.24923 -3.1336,-1.53454 -4.62724,-1.70515 -7.007,-0.80036 -3.88793,1.47818 -54.34697,52.53138 -55.17304,55.82269 -0.34313,1.36713 -0.30938,3.73872 0.075,5.2702 0.72214,2.87725 6.42379,7.10553 9.59125,7.11276 0.99024,0.002 8.18148,-5.85761 15.98052,-13.02194 z"
   id="path917" /><path
   style="fill:#e6e6e6;fill-rule:evenodd;stroke:#000000;stroke-width:13.7549;stroke-miterlimit:4;stroke-dasharray:none;stroke-opacity:0"
   d="m 444.52595,197.18586 -14.65367,-15.00343 9.77215,-9.82797 c 15.35582,-15.44353 20.2116,-17.9314 29.90415,-15.32147 9.7252,2.61872 16.48673,12.53777 15.36012,22.53301 -0.67662,6.003 -5.06781,12.19363 -17.06115,24.05253 l -8.66793,8.57077 z"
   id="path919" /><path
   style="fill:#aa00d4;fill-rule:evenodd;stroke:#000000;stroke-width:14.4379;stroke-opacity:0"
   d="m 102.96516,509.71128 -43.881822,-0.67887 -6.254741,-3.29246 C 44.830199,501.52963 35.406935,492.10636 31.196616,484.10797 L 27.90415,477.85323 V 284.42678 91.000339 l 3.293026,-6.255845 C 35.689764,76.20981 44.524408,67.169245 52.47427,62.971463 c 6.598263,-3.484094 6.651072,-3.491157 32.303028,-4.32104 l 25.693962,-0.831241 v 5.731416 c 0,3.152279 0.33496,10.450365 0.74436,16.217969 l 0.74435,10.486552 -24.965061,0.37261 c -23.192367,0.346152 -25.121598,0.536606 -27.169555,2.682179 -2.143686,2.245866 -2.225824,7.354602 -2.977883,185.215932 l -0.773392,182.90637 3.16416,3.30267 3.16416,3.30268 H 220.17581 377.94922 l 3.10301,-3.23885 3.10301,-3.23885 v -68.66317 -68.66316 l 15.0122,-14.97888 15.0122,-14.97887 v 90.46507 90.46507 l -4.11653,7.83377 c -5.06909,9.6465 -13.57402,18.28516 -22.89157,23.25152 l -7.05805,3.76201 -116.63325,0.16846 c -64.1483,0.0926 -136.38008,-0.13704 -160.51508,-0.5104 z"
   id="path881" /><path
   style="fill:#aa00d4;fill-rule:evenodd;stroke:#000000;stroke-width:14.4379;stroke-opacity:0"
   d="m 110.39306,197.97312 -15.511396,-14.99045 4.894521,-4.96601 4.894525,-4.96601 5.49854,5.18603 c 10.26291,9.6796 12.60972,11.55431 15.05308,12.02486 2.3339,0.44947 7.36393,-3.75016 28.85784,-24.09369 l 4.92362,-4.66011 4.60071,4.60072 4.60072,4.60071 -21.15038,21.1272 -21.15038,21.1272 z"
   id="path883" /><path
   style="fill:#aa00d4;fill-rule:evenodd;stroke:#000000;stroke-width:14.4379;stroke-opacity:0"
   d="M 110.75798,282.98192 95.482565,267.675 l 4.531595,-5.19283 4.5316,-5.19283 10.74642,10.67844 10.74643,10.67844 16.20963,-16.18072 16.20964,-16.18071 4.86045,4.95243 4.86044,4.95244 -21.07268,21.04959 -21.07269,21.04959 z"
   id="path885" /><path
   style="fill:#aa00d4;fill-rule:evenodd;stroke:#000000;stroke-width:14.4379;stroke-opacity:0"
   d=""
   id="path887" /><path
   style="fill:#aa00d4;fill-rule:evenodd;stroke:#000000;stroke-width:14.4379;stroke-opacity:0"
   d="m 110.16544,367.84346 -14.707308,-14.74003 4.888388,-4.88839 4.88839,-4.88839 10.12859,10.08167 10.12859,10.08166 16.16192,-16.13098 16.16191,-16.13098 4.89409,4.89408 4.89408,4.89409 -20.75959,20.78365 c -11.41777,11.431 -21.03232,20.78365 -21.36567,20.78365 -0.33335,0 -7.22437,-6.63302 -15.31339,-14.74003 z"
   id="path889" /><path
   style="fill:#aa00d4;fill-rule:evenodd;stroke:#000000;stroke-width:14.4379;stroke-opacity:0"
   d="M 384.15524,143.89889 V 96.364499 l -2.98186,-2.345534 c -2.18025,-1.714981 -3.93595,-2.154717 -6.53088,-1.635732 -2.52833,0.505666 -3.31171,0.325849 -2.72391,-0.625242 0.60925,-0.98578 -3.38005,-1.335044 -15.24886,-1.335044 -8.84068,0 -18.55937,-0.340664 -21.5971,-0.757031 l -5.52313,-0.75703 0.65029,-15.50989 c 0.35766,-8.53044 0.86667,-15.726263 1.13112,-15.990719 1.06427,-1.064268 45.74205,1.983166 51.50324,3.512993 7.60423,2.019229 13.86416,6.247791 19.87194,13.423426 9.63281,11.505327 11.44901,21.281617 11.46408,61.708904 l 0.009,25.42193 -15.0122,14.97888 -15.0122,14.97887 z"
   id="path891" /><path
   style="fill:#aa00d4;fill-rule:evenodd;stroke:#000000;stroke-width:14.4379;stroke-opacity:0"
   d="m 265.99452,399.30448 c -8.2172,-6.2743 -27.34216,-28.19731 -27.34216,-31.34242 0,-1.90877 7.21128,-10.16405 25.29452,-28.9565 13.91198,-14.4576 29.65341,-30.58469 34.98094,-35.83797 l 9.68641,-9.55143 19.52936,19.7439 19.52935,19.74389 -32.85808,32.69705 c -30.05806,29.91075 -38.6464,37.55222 -42.21898,37.56429 -0.70258,0.002 -3.67319,-1.82499 -6.60136,-4.06081 z"
   id="path893" /><path
   style="fill:#aa00d4;fill-rule:evenodd;stroke:#000000;stroke-width:14.4379;stroke-opacity:0"
   d="m 212.52564,428.23847 c -0.35693,-0.93015 0.47425,-3.26859 1.84706,-5.19653 1.37281,-1.92794 2.0709,-3.52187 1.5513,-3.54207 -0.5196,-0.0202 0.064,-0.79968 1.29686,-1.73218 1.23288,-0.9325 1.84533,-1.69545 1.361,-1.69545 -0.48432,0 -0.17749,-0.7031 0.68185,-1.56244 0.85935,-0.85935 4.09165,-8.88545 7.1829,-17.83578 l 5.62045,-16.27333 4.78588,3.92166 c 5.64249,4.6236 22.58555,23.01305 22.58555,24.51363 0,0.5712 -5.80599,3.07961 -12.90221,5.57425 -7.09621,2.49464 -13.4666,5.1001 -14.15642,5.78992 -0.68982,0.68982 -1.89914,1.03924 -2.68739,0.77649 -0.78824,-0.26275 -1.43317,0.1159 -1.43317,0.84145 0,0.72554 -0.47776,1.02389 -1.06168,0.66301 -0.58393,-0.36089 -1.88306,0.16521 -2.88697,1.16911 -1.0039,1.00391 -1.82527,1.50189 -1.82527,1.10663 0,-0.39525 -1.73793,0.60694 -3.86205,2.22709 -4.46903,3.40869 -5.21237,3.56163 -6.09769,1.25454 z"
   id="path895" /><path
   style="fill:#aa00d4;fill-rule:evenodd;stroke:#000000;stroke-width:14.4379;stroke-opacity:0"
   d="m 337.00137,302.3683 -19.24625,-19.01159 49.10037,-49.14104 49.10037,-49.14104 19.89802,19.17112 c 10.94391,10.54411 19.89801,19.56772 19.89801,20.05245 0,0.9287 -93.56228,94.49716 -96.10334,96.10969 -0.81178,0.51515 -1.90908,0.9446 -2.43844,0.95432 -0.52937,0.009 -9.6233,-8.53753 -20.20874,-18.99391 z m 38.83417,-24.56278 c 1.71774,-1.73631 3.54576,-3.02449 4.06226,-2.86263 1.43134,0.44854 47.19416,-45.82705 46.47306,-46.9938 -0.34656,-0.56075 0.17933,-1.33014 1.16863,-1.70978 0.98931,-0.37963 1.47531,-1.21356 1.08,-1.85318 -0.3953,-0.63962 -0.16841,-1.16294 0.5042,-1.16294 1.79901,0 1.48822,-4.98177 -0.47251,-7.57408 -0.9325,-1.23288 -1.71198,-1.77131 -1.73218,-1.19652 -0.0202,0.57478 -0.94612,0.27812 -2.0576,-0.65926 -3.35119,-2.82627 -7.88783,-2.45182 -10.03715,0.82847 -1.04547,1.59558 -2.30185,2.65323 -2.79196,2.35033 -1.14258,-0.70615 -40.89518,39.03939 -39.97083,39.96374 0.38114,0.38114 -1.58071,2.59357 -4.35968,4.9165 -4.51805,3.77662 -5.04512,4.73131 -4.98136,9.02286 0.0614,4.13224 0.61673,5.16688 3.99513,7.44328 4.9503,3.33557 5.33391,3.31399 9.11999,-0.51299 z"
   id="path897" /><path
   style="fill:#aa00d4;fill-rule:evenodd;stroke:#000000;stroke-width:14.4379;stroke-opacity:0"
   d="m 444.40895,196.29114 -14.19526,-14.22942 11.49776,-11.03582 c 13.50953,-12.96678 18.90932,-15.73485 26.63595,-13.65429 14.17719,3.81752 20.41811,19.6553 12.26409,31.12296 -3.1273,4.39817 -20.20025,22.02599 -21.33268,22.02599 -0.37104,0 -7.06247,-6.40324 -14.86986,-14.22942 z"
   id="path899" /><path
   style="fill:#aa00d4;fill-rule:evenodd;stroke:#000000;stroke-width:14.4379;stroke-opacity:0"
   d="m 70.631185,508.52505 c -12.071501,-0.56399 -14.452722,-1.01574 -18.476556,-3.50534 -7.257613,-4.49039 -14.42422,-11.55664 -19.242797,-18.97333 l -4.43029,-6.81904 V 284.42678 89.626229 l 4.436061,-6.819046 c 5.294056,-8.137944 14.142843,-16.616521 20.985194,-20.107228 4.411554,-2.250607 7.782333,-2.653356 30.328645,-3.623743 13.951011,-0.600448 25.492258,-0.938301 25.647228,-0.750784 0.15496,0.187516 0.56646,7.449676 0.91444,16.138133 l 0.63269,15.797195 -24.688813,0.369791 c -21.857303,0.327381 -24.925051,0.606256 -26.748625,2.431594 -1.917028,1.918884 -2.11209,7.161959 -2.814031,75.638399 -0.414822,40.46713 -0.804562,122.91522 -0.866089,183.21796 l -0.111866,109.64136 3.103011,3.23885 3.103012,3.23885 H 220.44725 378.4921 l 2.79507,-3.17566 2.79509,-3.17566 0.0365,-68.72636 0.0365,-68.72635 15.0122,-14.97888 15.0122,-14.97887 v 90.19304 90.19305 l -4.33044,7.79365 c -5.34725,9.62364 -13.16931,17.71087 -22.31389,23.07037 l -6.96816,4.08392 -148.03928,-0.21867 c -81.4216,-0.12026 -154.275106,-0.51 -161.896685,-0.86609 z"
   id="path902" /><path
   style="fill:#aa00d4;fill-rule:evenodd;stroke:#000000;stroke-width:14.4379;stroke-opacity:0"
   d="m 68.321616,508.53497 c -9.557992,-0.54407 -12.34379,-1.1498 -16.166987,-3.51526 -7.257613,-4.49039 -14.42422,-11.55664 -19.242797,-18.97333 l -4.43029,-6.81904 V 284.42678 89.626229 l 4.436061,-6.819046 c 5.315313,-8.17062 14.148841,-16.619581 21.065012,-20.147948 4.492868,-2.29209 7.791684,-2.697027 30.24033,-3.712061 13.858536,-0.626625 25.361535,-0.946154 25.562215,-0.710063 0.20068,0.23609 0.68999,7.510919 1.08735,16.166286 l 0.72247,15.737031 -24.944555,0.483465 C 64.94511,91.044576 61.52105,91.360111 60.282634,93.053747 57.840934,96.39297 57.404891,120.11067 56.599239,293.40508 l -0.77993,167.76121 3.291545,3.43563 3.291545,3.43564 H 220.03997 377.67755 l 3.23884,-3.10301 3.23885,-3.10302 v -68.799 -68.799 l 15.0122,-14.97888 15.0122,-14.97887 v 90.53248 90.53248 l -3.04284,5.29799 c -6.15406,10.71499 -12.30757,17.51268 -21.0464,23.24964 l -8.7152,5.72144 -150.75286,-0.20875 C 147.70825,509.28624 74.672932,508.8965 68.321616,508.53497 Z"
   id="path904" /><path
   style="fill:#c83771;fill-rule:evenodd;stroke:#000000;stroke-width:15.1549;stroke-opacity:0"
   d="M 180.7579,509.29837 58.332925,508.69231 52.374828,505.19036 C 45.082404,500.90415 37.080996,493.04939 32.254485,485.43877 l -3.618708,-5.70611 V 284.34934 88.966032 l 4.863905,-7.283755 C 43.925038,66.070184 52.646943,60.914391 71.033704,59.494736 c 16.340817,-1.261687 38.780786,-1.376437 38.929536,-0.199071 0.0632,0.500003 0.47227,7.591612 0.9091,15.759132 0.76396,14.283942 0.70182,14.854135 -1.63002,14.95756 -1.33334,0.05914 -12.606682,0.467573 -25.051872,0.907634 -12.445189,0.440062 -23.06421,1.237253 -23.597824,1.771538 -2.281792,2.284657 -2.70303,24.964141 -3.567737,192.087491 l -0.911095,176.08913 3.45757,3.60892 3.45757,3.60893 H 220.75697 378.48501 l 2.65221,-3.58731 2.65221,-3.58729 v -68.2495 -68.2495 l 15.1516,-15.11523 15.15161,-15.11523 v 90.7439 90.7439 l -3.72481,6.5103 c -5.23031,9.14163 -14.18526,18.50278 -22.46302,23.48194 l -7.05298,4.24245 h -38.83447 c -21.35897,0 -93.92572,-0.27272 -161.25946,-0.60606 z"
   id="path894" /><path
   style="fill:#c83771;fill-rule:evenodd;stroke:#000000;stroke-width:15.1549;stroke-opacity:0"
   d="m 110.49901,197.64394 -15.356182,-15.0142 4.62721,-4.49726 4.627212,-4.49726 9.57579,8.43668 c 5.26669,4.64017 10.39159,8.43667 11.38867,8.43667 2.27645,0 10.14222,-6.3763 22.79775,-18.48076 5.40433,-5.169 10.34281,-9.39819 10.97441,-9.39819 0.63159,0 2.88182,1.78848 5.0005,3.9744 l 3.85214,3.9744 -21.06565,21.03986 -21.06566,21.03985 z"
   id="path896" /><path
   style="fill:#c83771;fill-rule:evenodd;stroke:#000000;stroke-width:15.1549;stroke-opacity:0"
   d="M 110.61158,282.78788 C 94.966795,267.10223 95.038573,267.2829 101.90109,260.86352 l 3.18446,-2.97882 10.55083,10.55084 10.55084,10.55083 16.07147,-16.03839 16.07147,-16.03839 4.53038,4.53038 4.53038,4.53038 -20.57603,20.60277 c -11.31681,11.33152 -20.8633,20.60276 -21.21441,20.60276 -0.35111,0 -7.09612,-6.4746 -14.9889,-14.388 z"
   id="path898" /><path
   style="fill:#c83771;fill-rule:evenodd;stroke:#000000;stroke-width:15.1549;stroke-opacity:0"
   d="m 110.45508,367.47996 -14.507023,-14.54491 4.522623,-4.52262 4.52262,-4.52262 10.00334,9.87469 10.00335,9.87469 16.31351,-15.65579 c 8.97242,-8.61069 16.6382,-15.65579 17.03505,-15.65579 0.39685,0 2.58342,1.92096 4.85904,4.26881 l 4.1375,4.26881 -20.55311,20.57983 c -11.30422,11.3189 -20.84039,20.57982 -21.1915,20.57982 -0.35111,0 -7.16654,-6.54521 -15.1454,-14.54492 z"
   id="path900" /><path
   style="fill:#c83771;fill-rule:evenodd;stroke:#000000;stroke-width:15.1549;stroke-opacity:0"
   d=""
   id="path906" /><path
   style="fill:#c83771;fill-rule:evenodd;stroke:#000000;stroke-width:15.1549;stroke-opacity:0"
   d="m 212.87931,428.07271 c 0,-0.67385 2.349,-5.71933 5.22,-11.21219 2.87099,-5.49285 7.09399,-15.57795 9.38444,-22.41133 2.29044,-6.83337 4.79299,-12.42431 5.56121,-12.42431 1.95956,0 26.04576,25.44264 25.27177,26.69498 -0.34844,0.56378 -5.12346,2.75126 -10.61116,4.86105 -5.48769,2.1098 -12.2659,4.87284 -15.06267,6.1401 -2.79678,1.26726 -5.37951,2.30411 -5.7394,2.30411 -0.3599,0 -3.3138,1.63637 -6.56424,3.63638 -6.40553,3.94137 -7.45995,4.28218 -7.45995,2.41121 z"
   id="path908" /><path
   style="fill:#c83771;fill-rule:evenodd;stroke:#000000;stroke-width:15.1549;stroke-opacity:0"
   d="m 266.69786,399.20362 c -5.55824,-4.02987 -19.11467,-18.43892 -24.0553,-25.56825 -2.84948,-4.11181 -3.24055,-5.48164 -2.21038,-7.7426 1.30592,-2.86619 38.07214,-41.97388 57.18143,-60.82306 l 11.04451,-10.89417 19.45618,19.45619 19.45618,19.45618 -31.67571,31.19127 c -30.36132,29.89698 -39.84425,38.35188 -43.0151,38.35188 -0.79995,0 -3.58177,-1.54235 -6.18181,-3.42744 z"
   id="path910" /><path
   style="fill:#c83771;fill-rule:evenodd;stroke:#000000;stroke-width:15.1549;stroke-opacity:0"
   d="m 337.71041,302.3987 -19.48941,-19.1623 48.88615,-48.82385 48.88616,-48.82386 19.95888,19.30315 19.95888,19.30316 -44.84875,45.06831 c -24.66682,24.78757 -46.87685,46.69492 -49.35562,48.68299 l -4.50687,3.6147 z m 37.91603,-23.70778 c 4.23558,-3.09226 47.80831,-46.23506 50.59075,-50.09156 3.71141,-5.14409 4.67359,-7.5761 4.00653,-10.12696 -0.78449,-2.99988 -9.417,-7.88439 -11.62717,-6.57896 -12.67389,7.48577 -56.76676,53.03889 -56.54024,58.41272 0.15705,3.72583 1.76581,6.32381 5.39883,8.71854 4.41061,2.90728 3.69169,2.93665 8.1713,-0.33378 z"
   id="path912" /><path
   style="fill:#c83771;fill-rule:evenodd;stroke:#000000;stroke-width:15.1549;stroke-opacity:0"
   d="m 444.37608,195.9174 -13.91971,-13.98524 9.09097,-8.49819 c 12.46868,-11.65567 18.7506,-15.65286 24.59972,-15.65286 10.90719,0 19.31663,8.35011 19.31663,19.18035 0,3.25108 -0.68968,7.22007 -1.53262,8.81999 -1.57762,2.99436 -21.65743,24.12118 -22.92577,24.12118 -0.39023,0 -6.97338,-6.29335 -14.62922,-13.98523 z"
   id="path914" /><path
   style="fill:#522f60;fill-rule:evenodd;stroke:#000000;stroke-width:15.1549;stroke-opacity:0;fill-opacity:1"
   d="M 385.00156,143.05299 V 96.241366 l -2.98768,-1.9576 c -1.64322,-1.07668 -4.61105,-1.9576 -6.59517,-1.9576 -1.98412,0 -3.94461,-0.545457 -4.35663,-1.212128 -0.43874,-0.709895 -7.43688,-1.212129 -16.88982,-1.212129 -8.87738,0 -17.84524,-0.340911 -19.92859,-0.75758 l -3.7879,-0.75758 v -9.982398 c 0,-5.49032 0.35164,-12.547865 0.78142,-15.683435 l 0.78141,-5.701037 11.03684,0.755926 c 42.70591,2.924977 46.51268,3.845718 56.2661,13.609056 6.51173,6.518362 10.54043,13.973111 12.33343,22.821946 0.66847,3.299007 1.54804,19.634643 1.95462,36.301403 l 0.73922,30.30322 -14.67363,14.52659 -14.67362,14.5266 z"
   id="path916" /><path
   style="fill:#522f60;fill-opacity:1;fill-rule:evenodd;stroke:#000000;stroke-width:15.1549;stroke-opacity:0"
   d="m 140.88677,103.12402 c -9.45423,-8.367026 -10.37443,-11.525191 -10.40558,-35.712208 -0.0265,-20.61966 -0.018,-20.685526 3.39479,-26.060763 2.29026,-3.607251 5.5675,-6.554724 9.91275,-8.915273 6.13561,-3.333165 7.59214,-3.578562 26.57877,-4.478006 11.04809,-0.523376 20.41019,-0.981957 20.80466,-1.019067 0.39448,-0.03712 1.39551,-2.33136 2.22451,-5.098328 0.96514,-3.221344 3.80871,-7.332281 7.90579,-11.429357 7.17234,-7.1723462 10.81496,-8.3918768 22.53379,-7.5442131 10.11026,0.73131 16.26353,5.1523585 21.48119,15.4339651 2.17421,4.284369 4.1688,8.005449 4.43242,8.269068 0.26361,0.263617 9.93742,1.011692 21.49733,1.662388 23.08121,1.29922 27.33991,2.638496 34.15878,10.742275 4.05514,4.819252 4.69842,9.999179 4.2294,34.056452 -0.38496,19.745635 -0.44999,20.175113 -3.69925,24.430704 -1.81907,2.382456 -5.31101,5.570033 -7.75986,7.083513 l -4.45248,2.75178 -73.45273,0.53825 -73.45274,0.53825 z M 230.1267,39.043959 c 4.46526,-4.952858 5.33639,-9.084831 2.96414,-14.059499 -4.02473,-8.43995 -15.66155,-11.36859 -21.89689,-5.510792 -4.96847,4.667633 -6.22079,10.14667 -3.56257,15.586638 4.48434,9.177065 15.97816,11.212483 22.49532,3.983653 z"
   id="path918" /><path
   style="fill:#522f60;fill-opacity:1;fill-rule:evenodd;stroke:#000000;stroke-width:15.1549;stroke-opacity:0"
   d="m 219.46823,509.26624 -161.290869,-0.6382 -5.98286,-3.84815 C 45.372143,500.3918 36.510461,491.55584 31.826862,484.4714 l -3.191085,-4.82687 0.05006,-195.7804 0.05006,-195.780413 6.933509,-9.086897 c 8.042619,-10.540472 16.04064,-15.959485 26.581317,-18.010016 9.04006,-1.758609 44.123177,-3.079199 46.033607,-1.732786 0.92181,0.649658 1.77274,6.456274 2.29161,15.63749 l 0.82535,14.604109 -24.600003,1.23441 C 66.349766,91.756271 61.956036,92.299843 60.746964,93.953347 58.25896,97.355895 57.781185,122.54428 56.94325,294.48572 l -0.810938,166.40176 3.448311,3.59926 3.448309,3.59926 H 220.90239 378.77583 l 2.50681,-3.52047 c 2.46301,-3.45899 2.50679,-4.71361 2.50679,-71.83681 V 324.4124 l 15.1516,-15.11523 15.15161,-15.11523 v 90.73289 90.73289 l -4.16954,6.82526 c -4.7324,7.74664 -15.62642,18.74217 -23.70942,23.93035 l -5.45457,3.5011 z"
   id="path920" /><path
   style="fill:#522f60;fill-opacity:1;fill-rule:evenodd;stroke:#000000;stroke-width:15.1549;stroke-opacity:0"
   d="m 110.13188,197.45946 -14.831731,-14.86743 4.473227,-4.47323 4.473224,-4.47322 7.34638,6.41492 c 11.0094,9.61352 13.32188,10.90329 16.49967,9.20258 1.45704,-0.77978 7.56359,-5.86403 13.57011,-11.29833 6.00653,-5.4343 12.45356,-11.12088 14.32673,-12.63684 l 3.40576,-2.75628 4.40536,3.86796 4.40537,3.86796 -20.98394,21.00967 c -11.54117,11.55532 -21.2707,21.00967 -21.62118,21.00967 -0.35049,0 -7.31153,-6.69035 -15.46898,-14.86743 z"
   id="path922" /><path
   style="fill:#522f60;fill-opacity:1;fill-rule:evenodd;stroke:#000000;stroke-width:15.1549;stroke-opacity:0"
   d="m 110.77954,282.77968 c -7.56109,-7.63734 -13.052438,-14.17141 -13.052438,-15.53089 0,-1.29075 1.651908,-3.92945 3.670908,-5.86377 l 3.67091,-3.51695 10.55915,10.55915 10.55915,10.55915 16.07147,-16.03839 16.07147,-16.03839 4.54717,4.56693 4.54716,4.56694 -20.13906,19.96015 c -11.07649,10.97808 -20.8848,19.96014 -21.79626,19.96014 -0.91146,0 -7.53079,-5.93283 -14.70963,-13.18407 z"
   id="path924" /><path
   style="fill:#522f60;fill-opacity:1;fill-rule:evenodd;stroke:#000000;stroke-width:15.1549;stroke-opacity:0"
   d="m 109.95063,366.90349 -14.041721,-13.90926 4.542191,-4.55221 4.5422,-4.55221 10.15634,10.10359 c 5.74407,5.71423 10.49709,9.55225 10.94067,8.83451 0.43138,-0.69799 7.91669,-7.91926 16.63402,-16.04727 l 15.84969,-14.7782 4.42524,4.42975 4.42523,4.42975 -20.07327,19.9754 c -11.04029,10.98648 -20.81252,19.97541 -21.71606,19.97541 -0.90354,0 -7.96158,-6.25917 -15.68453,-13.90926 z"
   id="path926" /><path
   style="fill:#522f60;fill-opacity:1;fill-rule:evenodd;stroke:#000000;stroke-width:15.1549;stroke-opacity:0"
   d="m 212.87931,428.86051 c 0,-0.2595 2.359,-5.58547 5.24222,-11.83547 2.88322,-6.25001 7.30106,-16.71243 9.81743,-23.24981 4.44856,-11.55711 4.64738,-11.83863 7.1821,-10.16961 4.21224,2.77362 22.78344,23.81997 22.0565,24.99618 -0.36583,0.59193 -6.80076,3.61979 -14.29983,6.72856 -7.49908,3.10877 -17.31653,7.53099 -21.81655,9.82715 -4.50003,2.29615 -8.18187,3.96251 -8.18187,3.703 z"
   id="path929" /><path
   style="fill:#522f60;fill-opacity:1;fill-rule:evenodd;stroke:#000000;stroke-width:15.1549;stroke-opacity:0"
   d="m 267.14064,398.95583 c -4.99251,-3.30691 -16.65748,-15.44456 -23.70945,-24.67022 -1.47011,-1.92325 -2.67293,-4.72501 -2.67293,-6.22614 0,-3.04459 17.53518,-22.65874 48.7185,-54.49455 l 19.02136,-19.41936 19.56605,19.50104 19.56604,19.50104 -31.31463,30.42588 c -28.34574,27.54125 -40.95697,39.01276 -42.92506,39.04578 -0.38571,0.006 -3.19816,-1.64209 -6.24988,-3.66347 z"
   id="path931" /><path
   style="fill:#522f60;fill-opacity:1;fill-rule:evenodd;stroke:#000000;stroke-width:15.1549;stroke-opacity:0"
   d="m 337.69852,302.45215 -19.42433,-19.21575 48.81832,-48.71643 48.81832,-48.71643 20.00012,19.25 20.00012,19.25 -41.21237,41.36383 c -22.6668,22.75011 -44.89415,44.65709 -49.39411,48.68218 l -8.18174,7.31833 z M 401.6141,253.182 c 24.82229,-24.8223 28.23621,-28.69532 28.23621,-32.03343 0,-4.54514 -4.68957,-8.82168 -9.67368,-8.82168 -7.57699,0 -58.20552,51.38795 -58.20552,59.07859 0,2.19708 7.66882,10.01273 9.82462,10.01273 0.87019,0 14.28845,-12.70629 29.81837,-28.23621 z"
   id="path933" /><path
   style="fill:#522f60;fill-opacity:1;fill-rule:evenodd;stroke:#000000;stroke-width:15.1549;stroke-opacity:0"
   d="m 443.76912,195.26941 -13.31275,-13.42109 7.87884,-7.26527 c 13.08481,-12.06583 20.00718,-16.21102 26.8978,-16.1067 6.34214,0.096 10.46501,2.38896 14.84574,8.25647 1.9043,2.55061 2.49915,5.16163 2.49915,10.96978 v 7.62244 l -10.72398,11.68273 c -5.89819,6.4255 -11.6348,11.68273 -12.74802,11.68273 -1.11322,0 -8.01478,-6.03949 -15.33678,-13.42109 z"
   id="path935" /></svg>
