<?xml version="1.0" encoding="UTF-8" standalone="no"?>
<svg
   xmlns:dc="http://purl.org/dc/elements/1.1/"
   xmlns:cc="http://creativecommons.org/ns#"
   xmlns:rdf="http://www.w3.org/1999/02/22-rdf-syntax-ns#"
   xmlns:svg="http://www.w3.org/2000/svg"
   xmlns="http://www.w3.org/2000/svg"
   xmlns:sodipodi="http://sodipodi.sourceforge.net/DTD/sodipodi-0.dtd"
   xmlns:inkscape="http://www.inkscape.org/namespaces/inkscape"
   width="214mm"
   height="133mm"
   viewBox="0 0 214 133"
   version="1.1"
   id="svg8"
   inkscape:version="1.0.2 (e86c8708, 2021-01-15)"
   sodipodi:docname="new.svg">
  <defs
     id="defs2" />
  <sodipodi:namedview
     id="base"
     pagecolor="#ffffff"
     bordercolor="#666666"
     borderopacity="1.0"
     inkscape:pageopacity="0.0"
     inkscape:pageshadow="2"
     inkscape:zoom="0.40355185"
     inkscape:cx="1385.3539"
     inkscape:cy="510.22626"
     inkscape:document-units="mm"
     inkscape:current-layer="layer1"
     inkscape:document-rotation="0"
     showgrid="false"
     inkscape:window-width="1440"
     inkscape:window-height="773"
     inkscape:window-x="0"
     inkscape:window-y="25"
     inkscape:window-maximized="0" />
  <metadata
     id="metadata5">
    <rdf:RDF>
      <cc:Work
         rdf:about="">
        <dc:format>image/svg+xml</dc:format>
        <dc:type
           rdf:resource="http://purl.org/dc/dcmitype/StillImage" />
        <dc:title></dc:title>
      </cc:Work>
    </rdf:RDF>
  </metadata>
  <g
     inkscape:label="レイヤー 1"
     inkscape:groupmode="layer"
     id="layer1">
    <path
       id="path833"
       style="fill:#522f60;fill-opacity:1;fill-rule:evenodd;stroke:#ffffff;stroke-width:2.81456"
       d="M 107.03623,7.4759136 C 49.003423,7.5672736 2.0573711,30.618322 2.0576351,59.021604 c 2.7e-5,28.46796 47.1523479,51.545756 105.3175949,51.545696 4.85306,-3e-5 13.11033,0.0862 17.91713,-0.24105 L 185.22733,130.795 171.5065,101.29917 C 193.28218,91.535484 212.69225,73.475554 212.69232,59.021604 212.6923,45.350856 201.59642,32.240028 181.84565,22.573338 162.09487,12.906651 135.30707,7.4759456 107.37523,7.4759136 Z"
       sodipodi:nodetypes="ccsccccssc" />
    <g
       aria-label="N E W"
       transform="matrix(0.91183337,0,0,1.0966916,340.931,-21.636004)"
       id="text851"
       style="font-size:41.0804px;line-height:1.25;font-family:AppleMyungjo;-inkscape-font-specification:AppleMyungjo;letter-spacing:0.791654px;fill:#ffffff;fill-opacity:1;stroke-width:0.42792">
      <path
         d="m -322.48715,59.86316 v -1.52298 h 7.13396 l 17.83491,23.245494 V 64.75273 q 0,-4.929648 -4.36855,-4.929648 V 58.34018 h 10.42039 v 1.52298 h -0.40078 q -1.84361,0 -2.88565,1.202353 -1.04204,1.202354 -1.04204,3.326511 v 23.566121 h -1.88369 l -18.51623,-24.207376 v 17.834905 q 0,4.849491 5.0098,4.849491 v 1.52298 h -11.30212 v -1.52298 q 2.044,0 3.32651,-1.28251 1.28251,-1.28251 1.28251,-3.326511 V 61.746847 q -1.24243,-1.28251 -1.28251,-1.322589 -0.72141,-0.561098 -1.96384,-0.561098 z"
         style="fill:#ffffff;fill-opacity:1;stroke-width:0.42792"
         id="path862" />
      <path
         d="m -271.67961,59.86316 v -1.52298 h 23.44588 l 0.60118,9.979531 h -1.36267 q -0.80157,-4.448707 -2.44478,-6.452629 -1.64322,-2.003922 -4.60902,-2.003922 h -5.81138 q -1.44282,0 -1.44282,1.482903 v 10.540629 h 2.56502 q 2.20431,0 3.44674,-1.482903 1.24244,-1.482902 1.24244,-4.448706 h 1.40274 v 13.746904 h -1.40274 q 0,-6.332393 -4.88957,-6.332393 h -2.36463 v 11.742982 q 0,1.322589 1.88369,1.322589 h 4.60902 q 7.49466,0 8.57678,-9.49859 h 1.44283 l -0.48095,11.02157 h -24.40776 v -1.52298 h 2.00392 q 2.16423,0 2.16423,-1.603138 V 61.346063 q 0,-1.482903 -1.76345,-1.482903 z"
         style="fill:#ffffff;fill-opacity:1;stroke-width:0.42792"
         id="path864" />
      <path
         d="M -226.92972,59.823082 V 58.34018 h 9.89938 v 1.52298 h -1.28251 q -1.00196,0 -1.44283,0.200393 -0.40078,0.160313 -0.40078,0.76149 0,0.280549 0.16031,0.76149 0.16032,0.480941 0.24047,0.761491 l 6.05185,18.796787 5.29035,-17.353964 q -0.60117,-1.883686 -0.84165,-2.444784 -0.64125,-1.482903 -2.00392,-1.482903 h -2.32455 v -1.52298 h 12.38424 v 1.52298 h -1.80353 q -1.16227,0 -1.68329,0.240471 -0.48094,0.200392 -0.48094,0.841647 l 0.12023,0.761491 6.17208,19.438042 5.0098,-16.832944 q 0.32063,-0.881726 0.32063,-1.963843 0,-2.484864 -2.48486,-2.484864 h -0.88173 v -1.52298 h 9.25812 v 1.482902 q -1.84361,0.240471 -2.80549,1.322588 -0.80157,0.921804 -1.44282,3.166197 l -7.29428,24.327612 h -1.36266 l -6.85342,-21.722514 -6.53278,21.722514 h -1.4829 l -8.33632,-26.291455 q -0.44086,-1.442824 -1.1222,-1.963844 -0.64125,-0.561098 -2.044,-0.561098 z"
         style="fill:#ffffff;fill-opacity:1;stroke-width:0.42792"
         id="path866" />
    </g>
  </g>
</svg>
