<?xml version="1.0" encoding="UTF-8" standalone="no"?>
<svg
   xmlns:dc="http://purl.org/dc/elements/1.1/"
   xmlns:cc="http://creativecommons.org/ns#"
   xmlns:rdf="http://www.w3.org/1999/02/22-rdf-syntax-ns#"
   xmlns:svg="http://www.w3.org/2000/svg"
   xmlns="http://www.w3.org/2000/svg"
   xmlns:sodipodi="http://sodipodi.sourceforge.net/DTD/sodipodi-0.dtd"
   xmlns:inkscape="http://www.inkscape.org/namespaces/inkscape"
   version="1.1"
   id="_x32_"
   x="0px"
   y="0px"
   width="512px"
   height="512px"
   viewBox="0 0 512 512"
   style="width: 64px; height: 64px; opacity: 1;"
   xml:space="preserve"
   sodipodi:docname="questionのコピー.svg"
   inkscape:version="1.0.2 (e86c8708, 2021-01-15)"><metadata
   id="metadata856"><rdf:RDF><cc:Work
       rdf:about=""><dc:format>image/svg+xml</dc:format><dc:type
         rdf:resource="http://purl.org/dc/dcmitype/StillImage" /></cc:Work></rdf:RDF></metadata><defs
   id="defs854" /><sodipodi:namedview
   pagecolor="#ffffff"
   bordercolor="#666666"
   borderopacity="1"
   objecttolerance="10"
   gridtolerance="10"
   guidetolerance="10"
   inkscape:pageopacity="0"
   inkscape:pageshadow="2"
   inkscape:window-width="1440"
   inkscape:window-height="900"
   id="namedview852"
   showgrid="false"
   inkscape:zoom="1.3452539"
   inkscape:cx="199.50509"
   inkscape:cy="238.1595"
   inkscape:window-x="0"
   inkscape:window-y="0"
   inkscape:window-maximized="0"
   inkscape:current-layer="_x32_" />
<style
   type="text/css"
   id="style833">

	.st0{fill:#4B4B4B;}

</style>
<g
   id="g849">
	<path
   class="st0"
   d="M449.891,87.953c-3.766-8.906-10.031-16.438-17.922-21.781c-7.891-5.328-17.5-8.469-27.719-8.469h-42.656   v-7.359h-61.828c0.281-2,0.438-4.063,0.438-6.141C300.203,19.828,280.375,0,256,0s-44.203,19.828-44.203,44.203   c0,2.078,0.156,4.141,0.438,6.141h-61.828v7.359H107.75c-6.813,0-13.359,1.391-19.281,3.906   c-8.906,3.766-16.453,10.031-21.797,17.922c-5.328,7.906-8.469,17.5-8.469,27.719v355.219c0,6.781,1.391,13.344,3.906,19.281   c3.766,8.906,10.031,16.438,17.922,21.781c7.906,5.344,17.5,8.469,27.719,8.469h296.5c6.797,0,13.359-1.375,19.281-3.906   c8.922-3.75,16.453-10.031,21.797-17.922c5.328-7.891,8.469-17.5,8.469-27.703V107.25   C453.797,100.438,452.422,93.891,449.891,87.953z M256,27.797c9.047,0,16.406,7.359,16.406,16.406c0,2.172-0.438,4.234-1.203,6.141   h-30.391c-0.781-1.906-1.219-3.969-1.219-6.141C239.594,35.156,246.969,27.797,256,27.797z M424.328,462.469   c0,2.813-0.563,5.406-1.578,7.797c-1.5,3.578-4.063,6.672-7.281,8.859c-3.219,2.156-7,3.406-11.219,3.406h-296.5   c-2.813,0-5.422-0.563-7.813-1.563c-3.594-1.516-6.672-4.094-8.844-7.297c-2.156-3.219-3.406-7-3.422-11.203V107.25   c0-2.813,0.563-5.422,1.578-7.813c1.516-3.594,4.078-6.688,7.281-8.844c3.219-2.156,7-3.406,11.219-3.422h42.656v6.141   c0,11.531,9.344,20.875,20.891,20.875h169.422c11.531,0,20.875-9.344,20.875-20.875v-6.141h42.656c2.813,0,5.422,0.563,7.813,1.578   c3.578,1.5,6.672,4.063,8.844,7.281s3.422,7,3.422,11.219V462.469z"
   style="fill:#800000"
   id="path835" />
	<path
   id="rect837"
   style="fill:#4b4b4b"
   d="m 156.14101,170.672 h 31.625 v 31.625 h -31.625 z"
   class="st0" />
	<path
   id="rect839"
   style="fill:#4b4b4b"
   d="M 225.51601,170.672 H 355.875 v 31.625 H 225.51601 Z"
   class="st0" />
	<path
   id="rect841"
   style="fill:#4b4b4b"
   d="m 156.14101,264.125 h 31.625 v 31.625 h -31.625 z"
   class="st0" />
	<path
   id="rect843"
   style="fill:#4b4b4b"
   d="M 225.51601,264.125 H 355.875 V 295.75 H 225.51601 Z"
   class="st0" />
	<path
   id="rect845"
   style="fill:#4b4b4b"
   d="m 156.14101,357.59399 h 31.625 v 31.625 h -31.625 z"
   class="st0" />
	<path
   id="rect847"
   style="fill:#4b4b4b"
   d="M 225.51601,357.59399 H 355.875 v 31.625 H 225.51601 Z"
   class="st0" />
</g>
<path
   style="fill:#800000;fill-opacity:0.0666667;fill-rule:evenodd;stroke:#000000;stroke-width:7.22329;stroke-opacity:0"
   d="m 99.895636,480.43456 c -4.094807,-1.85141 -7.778387,-5.28196 -9.914581,-9.23354 L 88.373648,468.2276 88.170651,286.10584 c -0.183176,-164.33942 -0.08855,-182.42472 0.96914,-185.22462 1.863466,-4.932955 4.981059,-8.616943 9.326458,-11.020864 l 4.031131,-2.230063 23.89499,-0.231981 23.895,-0.231982 0.2866,6.178815 c 0.33251,7.168425 1.74189,10.652695 6.05272,14.963525 1.58795,1.58796 4.44237,3.60611 6.34316,4.48478 l 3.45598,1.59759 H 256 345.57417 l 3.45598,-1.59759 c 1.90079,-0.87867 4.75521,-2.89682 6.34316,-4.48478 4.31083,-4.31083 5.72021,-7.7951 6.05272,-14.963525 l 0.2866,-6.178815 23.895,0.231982 23.89499,0.231981 4.02941,2.230063 c 4.53073,2.507517 8.44801,7.309815 9.70178,11.893664 0.58119,2.12486 0.75325,54.84155 0.60291,184.7235 l -0.21037,181.75008 -1.6074,2.97342 c -2.1362,3.95158 -5.81978,7.38213 -9.91459,9.23354 -3.3292,1.50526 -4.07041,1.51244 -156.10436,1.51244 -152.03395,0 -152.77515,-0.007 -156.104364,-1.51244 z M 187.9831,373.44995 v -15.98211 h -15.98211 -15.98212 l -0.20176,15.21869 c -0.11096,8.37027 -0.0353,15.65253 0.16821,16.18278 0.29046,0.75695 3.76775,0.92098 16.18386,0.76343 l 15.81392,-0.20068 z m 167.99803,0 v -15.98211 l -65.22933,-0.1899 -65.22932,-0.1899 v 16.36191 16.36191 l 65.22932,-0.1899 65.22933,-0.1899 z m -167.79741,-93.47678 0.20063,-15.79627 h -16.36858 -16.36858 v 15.48654 c 0,8.5176 0.22948,15.71602 0.50996,15.99649 0.28047,0.28048 7.55605,0.41986 16.16795,0.30974 l 15.658,-0.20022 z m 168.16909,0.18584 V 264.1769 h -65.41517 -65.41516 v 15.98211 15.98211 h 65.41516 65.41517 z m -168.16909,-93.84846 0.20063,-15.79627 h -16.36858 -16.36858 v 15.99661 15.9966 l 16.16796,-0.20033 16.16795,-0.20033 z m 168.16909,0.18584 v -15.98211 h -65.41517 -65.41516 v 15.98211 15.98211 h 65.41516 65.41517 z"
   id="path864" /><path
   style="fill:#800000;fill-opacity:0.0666667;fill-rule:evenodd;stroke:#000000;stroke-width:7.22329;stroke-opacity:0"
   d="m 100.79886,481.04543 c -3.312135,-1.06131 -8.781505,-6.00593 -10.783743,-9.74911 L 88.373648,468.2276 88.181877,286.12968 C 87.971213,86.092205 87.657158,100.38473 92.38947,94.643612 c 1.180168,-1.431749 3.937243,-3.595461 6.126833,-4.808249 l 3.981077,-2.20507 23.97317,-0.232456 23.97317,-0.232457 v 5.503044 c 0,7.263855 2.9339,13.538156 8.07642,17.271826 6.41121,4.65479 1.94339,4.45079 97.47986,4.45079 95.53647,0 91.06865,0.204 97.47986,-4.45079 5.14252,-3.73367 8.07642,-10.007971 8.07642,-17.271826 V 87.16538 l 23.97317,0.232457 23.97317,0.232456 3.95729,2.192122 c 2.1765,1.205666 4.95062,3.44631 6.16469,4.979208 4.72005,5.959547 4.40446,-8.436053 4.19382,191.304217 l -0.19207,182.12176 -1.64146,3.06872 c -2.13133,3.98451 -7.52948,8.70234 -11.22365,9.80913 -3.93151,1.17791 -306.28176,1.11936 -309.96238,-0.06 z M 187.9831,373.37457 v -15.90673 h -15.98211 -15.98212 l -0.20176,15.21869 c -0.11096,8.37027 -0.0697,15.56222 0.0918,15.98211 0.18943,0.49267 5.92906,0.73669 16.18387,0.68805 l 15.89033,-0.0754 z m 167.99803,0.0754 v -15.98211 l -65.22933,-0.1899 -65.22932,-0.1899 v 15.98156 15.98155 l 57.05243,0.20644 c 31.37884,0.11353 60.73203,0.19924 65.22932,0.19046 l 8.1769,-0.016 z M 187.61142,280.15901 V 264.1769 h -15.98211 -15.98212 v 15.48654 c 0,8.5176 0.22301,15.70955 0.49557,15.98211 0.27257,0.27257 7.46452,0.49557 15.98212,0.49557 h 15.48654 z m 168.57033,-0.18584 0.20063,-15.79627 h -65.42995 -65.42995 v 15.98617 15.98617 l 65.22932,-0.1899 65.22933,-0.18989 z M 187.61142,186.49639 v -15.98211 h -15.98211 -15.98212 v 15.98211 15.98211 h 15.98212 15.98211 z m 168.74139,0 v -15.98211 h -65.41517 -65.41516 v 15.98211 15.98211 h 65.41516 65.41517 z"
   id="path866" /><path
   style="fill:#800000;fill-opacity:0.0666667;fill-rule:evenodd;stroke:#000000;stroke-width:7.22329;stroke-opacity:0"
   d="m 104.28362,481.97629 c -1.87947,-0.32132 -4.388293,-1.09347 -5.575151,-1.71587 -3.216885,-1.68698 -7.454282,-6.39222 -9.162793,-10.17444 -1.505793,-3.33344 -1.511097,-3.97667 -1.523234,-184.72349 -0.0082,-122.70296 0.236578,-182.27411 0.756785,-184.14721 1.148666,-4.135988 5.033936,-8.686654 9.629701,-11.278897 l 4.088452,-2.30609 23.97317,-0.223979 23.97317,-0.223979 v 5.494566 c 0,4.662799 0.35051,6.195998 2.31542,10.128149 2.5528,5.1086 6.95798,8.92994 12.05453,10.45691 4.18441,1.25368 178.19539,1.25154 182.38014,-0.002 5.08936,-1.52481 9.49547,-5.34853 12.04704,-10.45467 1.96589,-3.934093 2.31543,-5.464348 2.31543,-10.136636 V 87.16538 l 23.97317,0.232457 23.97317,0.232456 3.8274,2.018633 c 2.10507,1.110248 4.85543,3.265825 6.11193,4.79017 4.91354,5.960974 4.55682,-9.007249 4.54882,190.869974 l -0.007,181.43182 -1.76016,3.71677 c -2.19522,4.63545 -5.77435,8.28742 -10.11898,10.32492 l -3.34492,1.56875 -150.52921,0.10459 c -82.79106,0.0575 -152.06696,-0.15831 -153.94644,-0.47963 z m 68.8932,-92.9159 h 14.4346 v -15.9969 -15.9969 l -15.79627,0.20062 -15.79628,0.20063 -0.20176,15.21869 c -0.11096,8.37027 -0.0245,15.68056 0.19211,16.24507 0.22171,0.57777 0.90506,0.83022 1.56342,0.57759 0.64326,-0.24684 7.66514,-0.4488 15.60418,-0.4488 z m 183.00493,-15.79628 -0.20062,-15.79627 -65.22933,-0.1899 -65.22932,-0.1899 v 15.98617 15.98618 h 65.42995 65.42995 z M 187.61142,280.15901 V 264.1769 h -15.98211 -15.98212 v 15.48654 c 0,8.5176 0.22301,15.70955 0.49557,15.98211 0.27257,0.27257 7.46452,0.49557 15.98212,0.49557 h 15.48654 z m 168.57033,-0.18584 0.20063,-15.79627 h -65.42995 -65.42995 v 15.98617 15.98617 l 65.22932,-0.1899 65.22933,-0.18989 z M 187.61142,186.48161 v -15.9969 l -15.79627,0.20062 -15.79628,0.20062 -0.2021,14.84612 c -0.11116,8.16535 -0.038,15.27368 0.16251,15.79627 0.27999,0.72964 3.99308,0.95016 15.99838,0.95016 h 15.63376 z m 168.36971,0.0148 v -15.61044 l -65.22933,-0.1899 -65.22932,-0.18989 v 15.99023 15.99023 l 65.22932,-0.1899 65.22933,-0.1899 z"
   id="path868" /><path
   style="fill:#800000;fill-opacity:0.0666667;fill-rule:evenodd;stroke:#000000;stroke-width:7.22329;stroke-opacity:0"
   d="m 106.5344,482.43268 c -0.17614,-0.17125 -1.59356,-0.51168 -3.14983,-0.7565 -5.516827,-0.86788 -10.809751,-4.98131 -13.571242,-10.54697 -1.411047,-2.8439 -1.442469,-6.53112 -1.579876,-185.39505 -0.117092,-152.41907 0.02676,-182.96782 0.872903,-185.37207 1.500273,-4.26291 4.823226,-7.990848 9.360874,-10.501734 l 4.030151,-2.230063 23.97317,-0.223979 23.97317,-0.223979 0.0163,5.427458 c 0.0271,9.007327 3.87398,15.478527 11.40421,19.184077 l 4.56158,2.2447 90.31752,-0.19544 c 85.81569,-0.1857 90.45386,-0.26327 93.05266,-1.55612 7.35308,-3.65803 11.74141,-11.0051 11.75301,-19.677217 l 0.007,-5.427458 23.97317,0.223979 23.97317,0.223979 3.80578,2.007679 c 4.29154,2.263936 7.32347,5.499985 9.28263,9.907588 1.26718,2.85083 1.33398,11.7631 1.38752,185.12549 l 0.0563,182.13047 -2.27097,4.54459 c -2.33868,4.68012 -5.3215,7.5243 -10.21728,9.7424 -2.58855,1.17278 -13.55014,1.27681 -153.7396,1.45918 -83.02376,0.108 -151.09642,0.0563 -151.27256,-0.11501 z m 81.07702,-109.36919 v -15.9969 l -15.79627,0.20062 -15.79628,0.20063 v 15.79264 15.79263 l 15.79628,0.004 15.79627,0.004 v -15.9969 z m 168.74139,0.43033 c 0,-9.35577 -0.29043,-15.74606 -0.72792,-16.01645 -0.40036,-0.24742 -29.83718,-0.21345 -65.41516,0.0755 l -64.68725,0.52537 v 15.49107 15.49108 h 65.41516 65.41517 z M 187.61142,280.15901 V 264.1769 h -15.55564 -15.55565 l -0.25216,15.42459 c -0.13869,8.48353 -0.14361,15.67548 -0.0109,15.98212 0.13268,0.30663 7.2462,0.55751 15.80781,0.55751 h 15.56656 z m 168.37304,15.23338 c 0.25451,-0.41181 0.22475,-7.60376 -0.0662,-15.98212 l -0.52883,-15.23337 h -64.93349 -64.9335 v 15.98211 15.98211 h 64.99961 c 42.84276,0 65.15736,-0.25523 65.46237,-0.74873 z m -168.37304,-108.896 v -15.98211 h -15.61043 -15.61044 v 15.98211 15.98211 h 15.61044 15.61043 z m 168.36971,0 v -15.61044 l -65.22933,-0.18989 -65.22932,-0.1899 v 15.99023 15.99023 l 65.22932,-0.1899 65.22933,-0.18989 z"
   id="path870" /><path
   style="fill:#800000;fill-opacity:0.0666667;fill-rule:evenodd;stroke:#000000;stroke-width:7.22329;stroke-opacity:0"
   d="m 106.52746,482.42574 c -0.17232,-0.16744 -1.63788,-0.51289 -3.25679,-0.76766 -6.199914,-0.97573 -12.132185,-6.30645 -14.388447,-12.92939 -0.618587,-1.81578 -0.83799,-50.80131 -0.826191,-184.46207 l 0.01606,-181.98974 1.888935,-3.790598 c 1.038914,-2.084831 3.266463,-4.969712 4.950107,-6.410849 5.205896,-4.456048 7.677166,-4.816817 32.995206,-4.816817 h 22.53737 l 0.007,5.389318 c 0.0122,9.033386 4.31369,15.926656 12.24251,19.618866 l 3.73234,1.73804 h 89.57417 89.57417 l 3.73235,-1.73804 c 7.92879,-3.69221 12.23031,-10.58548 12.24248,-19.618866 l 0.007,-5.389318 h 22.53739 c 25.33461,0 27.7874,0.359143 33.0155,4.834198 1.69481,1.450697 3.92368,4.38519 4.95305,6.521096 l 1.87157,3.88347 0.0587,181.66409 c 0.0656,202.8173 0.52502,185.88546 -5.20465,191.78948 -3.2014,3.29884 -6.17098,5.05557 -9.83131,5.81599 -2.5573,0.53127 -301.88922,1.18333 -302.42905,0.6588 z m 81.08396,-108.97579 v -15.61044 h -15.61043 -15.61044 v 15.61044 15.61044 h 15.61044 15.61043 z m 167.99803,3.44884 c 0,-6.68887 0.21273,-13.71356 0.47271,-15.61043 l 0.47273,-3.44885 h -65.51621 -65.5162 v 15.61044 15.61044 h 65.04349 65.04348 z M 187.61142,280.15901 V 264.1769 h -15.58117 -15.58117 l -0.21511,15.42459 c -0.1183,8.48353 -0.11173,15.67548 0.0146,15.98212 0.12634,0.30663 7.23467,0.55751 15.79628,0.55751 h 15.56656 z m 167.99803,0 V 264.1769 h -65.04348 -65.04349 v 15.98211 15.98211 h 65.04349 65.04348 z M 187.61142,186.49639 v -15.98211 h -15.61043 -15.61044 v 15.98211 15.98211 h 15.61044 15.61043 z m 167.99803,0 v -15.98211 h -65.04348 -65.04349 v 15.98211 15.98211 h 65.04349 65.04348 z"
   id="path872" /><path
   style="fill:#800000;fill-opacity:0.0666667;fill-rule:evenodd;stroke:#000000;stroke-width:7.22329;stroke-opacity:0"
   d="m 105.62455,482.25729 c -0.25614,-0.25613 -1.53645,-0.59037 -2.84514,-0.74274 -5.448533,-0.63439 -11.708854,-6.35767 -13.855824,-12.66721 -0.563225,-1.65521 -0.813978,-56.38422 -0.844982,-184.42436 l -0.04409,-182.07069 1.907725,-3.828303 c 1.049249,-2.105568 3.285253,-5.007417 4.968897,-6.448554 5.086508,-4.353861 7.362894,-4.685976 32.792404,-4.784269 l 22.74018,-0.0879 0.007,5.416992 c 0.012,8.938084 4.66891,16.259314 12.62976,19.855404 3.30321,1.49214 4.46656,1.51117 92.91926,1.52012 l 89.57417,0.009 3.73234,-1.73804 c 7.93906,-3.69698 12.23037,-10.58359 12.24251,-19.646544 l 0.007,-5.416992 22.74018,0.0879 c 25.44637,0.09836 27.70392,0.428716 32.81271,4.80165 1.69481,1.450697 3.92441,4.38519 4.95466,6.521096 l 1.87319,3.88347 0.0556,181.77132 c 0.0608,198.78953 0.3679,184.74752 -4.17058,190.69777 -2.49858,3.27581 -7.9065,6.51184 -10.74733,6.43107 -1.18141,-0.0336 -2.34081,0.25089 -2.57647,0.6322 -0.47814,0.77364 -300.10101,1.00025 -300.8737,0.22755 z m 81.98687,-108.80734 v -15.61044 h -15.61043 -15.61044 v 15.61044 15.61044 h 15.61044 15.61043 z m 167.99803,0 v -15.61044 h -65.04348 -65.04349 v 15.61044 15.61044 h 65.04349 65.04348 z m -179.70586,-78.01884 11.70783,-0.0333 V 279.78733 264.1769 h -15.58173 -15.58174 l -0.21454,15.67381 c -0.11799,8.6206 -0.0546,15.83312 0.14092,16.02784 0.1955,0.19471 2.0353,0.1812 4.08845,-0.03 2.05314,-0.21124 9.00151,-0.39907 15.44081,-0.41741 z M 355.60945,280.2601 v -16.0832 h -65.04348 -65.04349 v 15.60392 15.60392 l 39.58361,0.19235 c 21.77098,0.1058 51.04055,0.32147 65.04348,0.47928 l 25.45988,0.28693 z M 187.61142,186.49639 v -15.98211 h -15.61043 -15.61044 v 15.98211 15.98211 h 15.61044 15.61043 z m 167.99803,0 v -15.98211 h -65.04348 -65.04349 v 15.98211 15.98211 h 65.04349 65.04348 z"
   id="path874" /><path
   style="fill:#800000;fill-opacity:0.0666667;fill-rule:evenodd;stroke:#000000;stroke-width:7.22329;stroke-opacity:0"
   d="m 104.78487,482.07257 c -0.2211,-0.35774 -1.22726,-0.65044 -2.23591,-0.65044 -2.564062,0 -8.001997,-3.34972 -10.27433,-6.3289 -4.334267,-5.68252 -4.028944,8.24442 -4.168018,-190.11891 L 87.978653,102.4644 89.91431,98.58004 c 1.064612,-2.136397 3.291237,-5.044684 4.948057,-6.46286 5.216863,-4.465444 7.225993,-4.763311 32.723213,-4.851461 l 22.85814,-0.07903 0.007,5.425278 c 0.012,8.946893 4.66571,16.266143 12.62976,19.863683 3.30321,1.49214 4.46656,1.51117 92.91926,1.52012 l 89.57417,0.009 3.71677,-1.73844 c 7.90223,-3.69608 12.24605,-10.66089 12.25808,-19.654423 l 0.007,-5.425278 22.85814,0.07903 c 25.62651,0.0886 27.48933,0.371458 32.88997,4.994201 1.74854,1.496683 3.95396,4.393556 4.90093,6.437494 l 1.72176,3.716256 0.001,182.16361 c 10e-4,196.98637 0.2545,184.80421 -3.95676,190.32545 -2.47458,3.24433 -8.06989,6.57519 -10.90967,6.49444 -1.1885,-0.0338 -2.16091,0.2507 -2.16091,0.6322 0,0.89871 -301.56064,0.94183 -302.11602,0.0432 z m 82.82655,-108.62262 v -15.61044 h -15.61043 -15.61044 v 15.61044 15.61044 h 15.61044 15.61043 z m 167.99803,0 v -15.61044 h -65.04348 -65.04349 v 15.61044 15.61044 h 65.04349 65.04348 z M 174.32397,295.39777 h 13.28745 V 279.78733 264.1769 h -15.61043 -15.61044 v 16.07503 16.07503 l 2.32298,-0.4646 c 1.27764,-0.25552 8.30234,-0.46459 15.61044,-0.46459 z M 355.60945,279.78733 V 264.1769 h -65.04348 -65.04349 v 15.61043 15.61044 h 65.04349 65.04348 z M 187.61142,186.49639 v -15.98211 h -15.61043 -15.61044 v 15.98211 15.98211 h 15.61044 15.61043 z m 167.99803,0 v -15.98211 h -65.04348 -65.04349 v 15.98211 15.98211 h 65.04349 65.04348 z"
   id="path876" /><path
   style="fill:#800000;fill-opacity:0.0666667;fill-rule:evenodd;stroke:#000000;stroke-width:7.22329;stroke-opacity:0"
   d="m 104.69612,481.92898 c -0.26991,-0.43672 -0.99248,-0.6015 -1.60571,-0.36618 -1.6876,0.64759 -8.223491,-3.237 -10.693525,-6.35567 -4.474819,-5.64992 -4.162951,8.05893 -4.322224,-189.99264 L 87.92808,102.94475 89.555321,99.162124 c 1.931768,-4.490517 6.872513,-9.121509 11.310739,-10.601633 2.34747,-0.782867 8.85879,-1.087948 26.34784,-1.234501 l 23.22982,-0.194658 0.007,5.45296 c 0.012,8.976338 4.65503,16.289008 12.62976,19.891368 3.30358,1.4923 4.45665,1.51105 92.91926,1.51105 88.46261,0 89.61568,-0.0187 92.91926,-1.51105 7.86601,-3.55325 11.98084,-9.86117 12.4902,-19.147121 l 0.33984,-6.195421 23.13331,0.193765 c 17.40813,0.145811 23.90497,0.451112 26.25133,1.233608 4.38423,1.462118 9.38035,6.114303 11.26086,10.485693 l 1.57737,3.666686 -0.0207,182.3042 c -0.0225,198.7387 0.29007,184.2873 -4.11159,190.05818 -2.48503,3.25803 -9.01072,6.98581 -11.24668,6.42462 -0.99845,-0.25059 -1.69232,-0.0869 -1.69232,0.39919 0,1.14985 -301.49416,1.17968 -302.20476,0.0299 z m 82.9153,-108.47903 v -15.61044 h -15.61043 -15.61044 v 15.61044 15.61044 h 15.61044 15.61043 z m 167.99803,0 v -15.61044 h -65.04348 -65.04349 v 15.61044 15.61044 h 65.04349 65.04348 z M 187.61142,279.78733 V 264.1769 h -15.61043 -15.61044 v 15.61043 15.61044 h 15.61044 15.61043 z m 167.99803,0 V 264.1769 h -65.04348 -65.04349 v 15.61043 15.61044 h 65.04349 65.04348 z M 187.61142,186.49639 v -15.98211 h -15.61043 -15.61044 v 15.98211 15.98211 h 15.61044 15.61043 z m 167.99803,0 v -15.98211 h -65.04348 -65.04349 v 15.98211 15.98211 h 65.04349 65.04348 z"
   id="path878" /><path
   style="fill:#800000;fill-opacity:0.0666667;fill-rule:evenodd;stroke:#000000;stroke-width:7.22329;stroke-opacity:0"
   d="m 104.69612,481.92898 c -0.26991,-0.43672 -0.97986,-0.60634 -1.57767,-0.37694 -2.49036,0.95564 -9.82981,-4.21577 -12.535385,-8.83249 l -1.912178,-3.26288 -0.122733,-24.77354 -0.122733,-24.77355 -0.414748,21.55727 c -0.228112,11.8565 -0.457299,-58.55772 -0.509305,-156.47604 -0.05201,-97.91832 0.180718,-177.19704 0.517166,-176.17492 0.437815,1.33006 0.590434,0.48475 0.536842,-2.97342 -0.08594,-5.54559 1.134659,-8.522744 5.259189,-12.827642 4.86385,-5.076549 7.087785,-5.456805 33.302245,-5.694148 l 23.13274,-0.20944 0.34041,6.20636 c 0.40356,7.3575 1.93115,10.8244 6.71072,15.23006 6.44358,5.93948 -1.11976,5.53741 99.81435,5.30613 86.04439,-0.19716 90.0587,-0.26608 92.54759,-1.58888 3.66827,-1.94962 8.0314,-6.27405 9.85493,-9.76753 1.08236,-2.07356 1.6553,-4.855578 1.89316,-9.192666 l 0.3411,-6.219246 24.24708,0.324711 c 26.59421,0.356143 26.13306,0.280804 31.71439,5.181274 4.32972,3.801545 5.79608,7.464767 5.75062,14.366047 -0.0309,4.68846 0.0778,5.31765 0.51367,2.97342 0.30406,-1.63538 0.53628,77.14157 0.51604,175.05989 -0.0202,97.91832 -0.25596,174.85547 -0.52382,170.97145 l -0.48702,-7.06187 -0.0552,9.29193 c -0.0303,5.11056 -0.12129,9.62643 -0.20207,10.03528 -0.0808,0.40884 -0.11569,0.96901 -0.0776,1.24483 0.0381,0.27581 -1.0094,2.11349 -2.32787,4.08374 -2.87517,4.29648 -9.50789,8.62613 -12.18524,7.95416 -1.03523,-0.25983 -1.73397,-0.10318 -1.73397,0.38873 0,1.14985 -301.49417,1.17968 -302.20477,0.0299 z M 88.527716,414.90061 c -0.177805,-0.92467 -0.330033,-0.34318 -0.338284,1.2922 -0.0082,1.63538 0.137226,2.39193 0.323282,1.68122 0.186056,-0.71072 0.192807,-2.04876 0.015,-2.97342 z m 99.083704,-41.45066 v -15.61044 h -15.61043 -15.61044 v 15.61044 15.61044 h 15.61044 15.61043 z m 167.99803,0 v -15.61044 h -65.04348 -65.04349 v 15.61044 15.61044 h 65.04349 65.04348 z M 187.61142,279.78733 V 264.1769 h -15.61043 -15.61044 v 15.61043 15.61044 h 15.61044 15.61043 z m 167.99803,0 V 264.1769 h -65.04348 -65.04349 v 15.61043 15.61044 h 65.04349 65.04348 z M 187.61142,186.49639 v -15.98211 h -15.61043 -15.61044 v 15.98211 15.98211 h 15.61044 15.61043 z m 167.99803,0 v -15.98211 h -65.04348 -65.04349 v 15.98211 15.98211 h 65.04349 65.04348 z"
   id="path880" /><path
   style="fill:#800000;fill-opacity:0.0666667;fill-rule:evenodd;stroke:#000000;stroke-width:7.22329;stroke-opacity:0"
   d="m 104.35576,481.90523 c 0,-0.4554 -0.52295,-0.62732 -1.16212,-0.38205 -2.56036,0.9825 -9.8636,-4.11627 -12.611046,-8.80443 l -1.912648,-3.26369 -0.122162,-24.40106 -0.122162,-24.40106 -0.414849,21.55727 c -0.228166,11.85649 -0.457399,-58.89223 -0.509405,-157.2194 -0.05201,-98.32716 0.17975,-177.94039 0.515013,-176.91828 0.449367,1.36998 0.597417,0.68416 0.56333,-2.60956 -0.05365,-5.18442 1.639943,-9.112179 5.489792,-12.731815 5.239186,-4.925896 5.249395,-4.927595 31.931077,-5.314388 l 24.24655,-0.351492 0.34162,6.229342 c 0.40486,7.382343 1.92773,10.843113 6.71193,15.253043 6.44358,5.93948 -1.11976,5.53741 99.81435,5.30613 86.04439,-0.19716 90.0587,-0.26608 92.54759,-1.58888 3.66827,-1.94962 8.0314,-6.27405 9.85493,-9.76753 1.08255,-2.07392 1.6553,-4.855688 1.89331,-9.19547 l 0.34124,-6.22205 24.24694,0.337131 c 22.74075,0.316188 24.43164,0.433134 27.22035,1.882624 6.90753,3.590328 10.23418,9.20484 10.22212,17.252235 -0.007,4.58668 0.0916,5.06713 0.54024,2.63571 0.30176,-1.63538 0.5321,77.47609 0.51186,175.80325 -0.0202,98.32717 -0.25627,175.59883 -0.52452,171.7148 l -0.48771,-7.06186 -0.0529,8.92025 c -0.0291,4.90613 -0.11972,9.25475 -0.20139,9.6636 -0.0817,0.40884 -0.11727,0.96901 -0.0791,1.24483 0.0381,0.27581 -1.0094,2.11349 -2.32787,4.08374 -2.94439,4.39992 -9.50256,8.62746 -12.2961,7.92633 -1.27235,-0.31934 -1.6835,-0.20195 -1.3249,0.37827 0.38632,0.62508 -38.46126,0.84529 -151.16169,0.85688 -110.97256,0.0114 -151.68162,-0.20664 -151.68162,-0.81242 z M 88.517108,415.27776 c -0.188472,-0.72326 -0.355072,-0.31148 -0.370222,0.91505 -0.01515,1.22654 0.139056,1.81829 0.342678,1.31502 0.203622,-0.50328 0.216017,-1.5068 0.02754,-2.23007 z m 99.094312,-41.82781 v -15.61044 h -15.61043 -15.61044 v 15.61044 15.61044 h 15.61044 15.61043 z m 167.99803,0 v -15.61044 h -65.04348 -65.04349 v 15.61044 15.61044 h 65.04349 65.04348 z M 187.61142,279.78733 V 264.1769 h -15.61043 -15.61044 v 15.61043 15.61044 h 15.61044 15.61043 z m 167.99803,0 V 264.1769 h -65.04348 -65.04349 v 15.61043 15.61044 h 65.04349 65.04348 z M 187.61142,186.49639 v -15.98211 h -15.61043 -15.61044 v 15.98211 15.98211 h 15.61044 15.61043 z m 167.99803,0 v -15.98211 h -65.04348 -65.04349 v 15.98211 15.98211 h 65.04349 65.04348 z"
   id="path882" /><path
   style="fill:#800000;fill-opacity:0.0666667;fill-rule:evenodd;stroke:#000000;stroke-width:7.22329;stroke-opacity:0"
   d="m 104.35576,481.91498 c 0,-0.46076 -0.52295,-0.63707 -1.16212,-0.3918 -2.56105,0.98277 -9.863723,-4.11647 -12.612532,-8.80696 l -1.914134,-3.26623 -0.119814,-23.2835 -0.119813,-23.28349 -0.416259,20.81391 c -0.228942,11.44766 -0.452329,-59.97009 -0.496415,-158.7061 -0.04409,-98.73601 0.181602,-178.51649 0.501528,-177.28996 0.45763,1.75446 0.574817,1.27719 0.549479,-2.23788 -0.03737,-5.18378 1.665531,-9.123045 5.503823,-12.731815 5.229865,-4.917133 5.230195,-4.917187 32.022667,-5.306334 l 24.35155,-0.353693 v 4.793126 c 0,2.636219 0.53254,6.356067 1.18344,8.266326 1.61041,4.7263 6.80485,10.33137 11.41072,12.31277 l 3.71768,1.5993 90.15266,-0.19748 90.15266,-0.19748 3.06872,-1.64147 c 4.0877,-2.18653 8.81133,-7.67321 10.25583,-11.91256 0.64396,-1.889955 1.17085,-5.596228 1.17085,-8.236164 v -4.799883 l 24.35357,0.366713 c 22.87374,0.344429 24.53951,0.461571 27.41358,1.927809 4.8118,2.454803 9.73781,8.547404 9.27592,11.472695 -0.0484,0.30663 0.17871,0.55751 0.50471,0.55751 0.32602,0 0.51861,2.25794 0.42799,5.01764 -0.13693,4.16996 -0.0665,4.51531 0.4168,2.04423 0.31986,-1.63538 0.56582,77.64334 0.54657,176.17492 -0.0192,98.53159 -0.25252,176.13776 -0.51841,172.45816 l -0.48344,-6.69019 -0.0772,8.54857 c -0.0425,4.70172 -0.13585,8.88308 -0.20748,9.29193 -0.0717,0.40884 -0.099,0.96901 -0.0609,1.24483 0.0381,0.27581 -1.0094,2.11349 -2.32787,4.08374 -2.94439,4.39992 -9.50256,8.62746 -12.2961,7.92633 -1.24869,-0.3134 -1.68086,-0.19768 -1.33737,0.3581 0.3697,0.59818 -40.67194,0.83348 -151.16169,0.86662 -112.03653,0.0336 -151.66919,-0.17341 -151.66919,-0.79224 z M 88.49428,415.6353 c -0.206216,-0.51106 -0.374938,-0.0929 -0.374938,0.92919 0,1.02211 0.168722,1.44025 0.374938,0.92919 0.206215,-0.51105 0.206215,-1.34733 0,-1.85838 z m 99.11714,-42.18535 v -15.61044 h -15.61043 -15.61044 v 15.61044 15.61044 h 15.61044 15.61043 z m 167.99803,0 v -15.61044 h -65.04348 -65.04349 v 15.61044 15.61044 h 65.04349 65.04348 z M 187.61142,279.78733 V 264.1769 h -15.61043 -15.61044 v 15.61043 15.61044 h 15.61044 15.61043 z m 167.99803,0 V 264.1769 h -65.04348 -65.04349 v 15.61043 15.61044 h 65.04349 65.04348 z M 187.61142,186.51518 v -16.0009 h -15.61043 -15.61044 v 15.83451 15.83451 l 15.61044,0.1664 15.61043,0.16639 z m 167.99803,0.0439 v -16.04482 h -65.04348 -65.04349 l 3e-4,15.79628 3e-4,15.79627 65.04318,0.24855 65.04319,0.24855 z"
   id="path884" /><path
   style="fill:#800000;fill-opacity:0.0666667;fill-rule:evenodd;stroke:#000000;stroke-width:7.22329;stroke-opacity:0"
   d="m 104.35576,481.94407 c 0,-0.44924 -0.58539,-0.68408 -1.30087,-0.52187 -2.98817,0.67745 -9.73414,-4.03114 -12.474304,-8.70688 l -1.914656,-3.2671 -0.118894,-22.91094 -0.118895,-22.91093 -0.416943,20.44224 c -0.229319,11.24323 -0.459118,-60.34177 -0.510665,-159.07778 -0.05155,-98.73601 0.180296,-178.68374 0.515205,-177.66163 0.444123,1.35542 0.58767,0.65127 0.530386,-2.60174 -0.08731,-4.958155 0.577611,-6.574183 4.484132,-10.898235 5.345007,-5.916285 5.547721,-5.955465 33.026004,-6.383286 l 24.38746,-0.379698 V 91.8618 c 0,8.75221 3.75121,15.46987 11.02688,19.7469 l 3.46852,2.03899 89.53272,0.19762 c 101.92353,0.22497 94.01665,0.70179 100.79693,-6.07849 4.51535,-4.51535 6.28751,-8.99825 6.28751,-15.90502 v -4.795579 l 24.38746,0.379698 c 22.80283,0.355027 24.58409,0.480011 27.41358,1.923506 4.78187,2.439533 9.70257,8.538676 9.24203,11.455405 -0.0484,0.30663 0.17871,0.55751 0.50471,0.55751 0.32602,0 0.52143,2.25794 0.43425,5.01764 -0.14097,4.46274 -0.0956,4.64771 0.41064,1.67255 0.31303,-1.8398 0.55617,77.60617 0.54032,176.5466 -0.0158,98.94044 -0.24665,176.88111 -0.51286,173.20151 l -0.48403,-6.69019 -0.0302,8.29022 c -0.0166,4.55963 -0.25708,8.65737 -0.5344,9.10609 -0.27733,0.44873 -0.30865,0.81587 -0.0696,0.81587 0.70117,0 -1.61202,4.08272 -3.7585,6.63367 -2.47872,2.94579 -7.45155,5.56314 -10.2083,5.37294 -1.17131,-0.0808 -1.90468,0.16793 -1.6604,0.56317 0.27647,0.44735 -55.3838,0.73378 -151.21887,0.77818 -109.74081,0.0508 -151.65639,-0.15548 -151.65639,-0.74652 z M 88.49428,415.6353 c -0.206216,-0.51106 -0.374938,-0.0929 -0.374938,0.92919 0,1.02211 0.168722,1.44025 0.374938,0.92919 0.206215,-0.51105 0.206215,-1.34733 0,-1.85838 z m 99.11714,-42.18535 v -15.61044 h -15.61043 -15.61044 v 15.61044 15.61044 h 15.61044 15.61043 z m 167.99803,0 v -15.61044 h -65.04348 -65.04349 v 15.61044 15.61044 h 65.04349 65.04348 z M 187.61142,279.78733 V 264.1769 h -15.61043 -15.61044 v 15.61043 15.61044 h 15.61044 15.61043 z m 167.99803,0 V 264.1769 h -65.04348 -65.04349 v 15.61043 15.61044 h 65.04349 65.04348 z M 187.61142,186.61063 V 171.4861 l -9.03695,-0.48591 c -4.97033,-0.26726 -11.99503,-0.48591 -15.61044,-0.48591 h -6.57348 v 15.61043 15.61044 h 15.61044 15.61043 z m 167.99803,-0.48592 v -15.61043 h -31.47051 c -17.30879,0 -46.57836,0.22178 -65.04349,0.49286 L 225.52248,171.5 v 15.11758 15.11757 h 65.04349 65.04348 z"
   id="path886" /><path
   style="fill:#800000;fill-opacity:0.0666667;fill-rule:evenodd;stroke:#000000;stroke-width:7.22329;stroke-opacity:0"
   d="m 104.35576,482.04675 c 0,-0.39106 -0.97729,-0.68323 -2.17175,-0.64927 -2.972691,0.0845 -8.828483,-4.25194 -11.435251,-8.46829 l -2.086442,-3.37473 -0.115822,-21.84902 -0.115823,-21.84903 -0.419129,19.32721 c -0.230521,10.62997 -0.454656,-61.62405 -0.498078,-160.56449 -0.04342,-98.94043 0.182522,-178.88816 0.502097,-177.66163 0.451613,1.7333 0.566675,1.23653 0.516533,-2.23006 -0.07176,-4.961364 0.595831,-6.578823 4.498161,-10.898235 5.309427,-5.876902 5.474689,-5.908778 32.982754,-6.361821 l 24.43071,-0.402361 v 4.796178 c 0,6.898261 1.77306,11.391169 6.27003,15.888129 6.75943,6.75944 -0.99038,6.27003 99.28625,6.27003 100.27663,0 92.52682,0.48941 99.28626,-6.27003 4.49689,-4.49689 6.27002,-8.989864 6.27002,-15.887728 v -4.795777 l 24.4511,0.412359 c 22.52401,0.37986 24.68106,0.529681 27.36897,1.90095 4.4814,2.28624 10.57876,9.525149 9.49716,11.275216 -0.24747,0.4004 -0.16345,0.72799 0.18669,0.72799 0.35013,0 0.56529,2.25794 0.47811,5.01764 -0.14097,4.46274 -0.0956,4.64771 0.41064,1.67255 0.31303,-1.8398 0.55706,77.60617 0.54229,176.5466 -0.0148,98.94044 -0.24672,177.04837 -0.51547,173.57319 l -0.48863,-6.31851 -0.0715,7.80522 c -0.0393,4.29287 -0.13124,8.13972 -0.20426,8.54857 -0.073,0.40884 -0.10154,0.96901 -0.0634,1.24483 0.0381,0.27581 -1.0094,2.10502 -2.32788,4.06491 -3.19359,4.74726 -7.84941,7.97241 -11.32052,7.84193 -1.46293,-0.055 -2.47746,0.19514 -2.25452,0.55587 0.23362,0.378 -63.84233,0.69119 -151.24197,0.73925 -96.0635,0.0528 -151.64732,-0.17723 -151.64732,-0.62764 z M 88.49428,415.6353 c -0.206216,-0.51106 -0.374938,-0.0929 -0.374938,0.92919 0,1.02211 0.168722,1.44025 0.374938,0.92919 0.206215,-0.51105 0.206215,-1.34733 0,-1.85838 z m 99.11714,-42.18535 v -15.61044 h -15.61043 -15.61044 v 15.61044 15.61044 h 15.61044 15.61043 z m 167.99803,0 v -15.61044 h -65.04348 -65.04349 v 15.61044 15.61044 h 65.04349 65.04348 z M 187.61142,279.78733 V 264.1769 h -15.61043 -15.61044 v 15.61043 15.61044 h 15.61044 15.61043 z m 167.99803,0 V 264.1769 h -65.04348 -65.04349 v 15.61043 15.61044 h 65.04349 65.04348 z M 187.61142,186.49639 v -15.23876 h -15.61043 -15.61044 v 15.23876 15.23876 h 15.61044 15.61043 z m 167.99803,0 v -15.23876 h -65.04348 -65.04349 v 15.23876 15.23876 h 65.04349 65.04348 z"
   id="path888" /><path
   style="fill:#800000;fill-opacity:0.0666667;fill-rule:evenodd;stroke:#000000;stroke-width:7.22329;stroke-opacity:0"
   d="m 104.35576,482.04759 c 0,-0.39152 -0.98534,-0.68385 -2.18965,-0.6496 -3.693748,0.10502 -9.512624,-4.39777 -12.043796,-9.31979 -1.342449,-2.61048 -1.469595,-4.55974 -1.575836,-24.15901 l -0.115565,-21.31942 -0.41925,19.32721 c -0.230587,10.62996 -0.454776,-61.79131 -0.498198,-160.93617 -0.04342,-99.14485 0.182522,-179.25984 0.502097,-178.03331 0.451613,1.7333 0.566675,1.23653 0.516533,-2.23006 -0.07176,-4.961364 0.595831,-6.578823 4.498161,-10.898235 5.246143,-5.806854 5.351041,-5.827031 32.907524,-6.329936 l 24.50594,-0.447232 v 4.802671 c 0,6.904673 1.77191,11.396512 6.27003,15.894622 6.75943,6.75944 -0.99038,6.27003 99.28625,6.27003 100.27663,0 92.52682,0.48941 99.28626,-6.27003 4.49811,-4.49811 6.27002,-8.989949 6.27002,-15.894622 v -4.802671 l 24.50594,0.447232 c 22.31823,0.407307 24.757,0.576615 27.31826,1.896536 4.43658,2.286345 10.13586,8.95301 9.36691,10.956845 -0.21732,0.56633 -0.0871,1.02969 0.28935,1.02969 0.37646,0 0.6039,2.09069 0.50542,4.64597 -0.15417,4.00007 -0.0979,4.23259 0.40459,1.67254 0.32101,-1.63537 0.56792,78.14511 0.54867,177.28996 -0.0192,99.14486 -0.25895,177.25279 -0.53269,173.57319 l -0.49772,-6.69019 0.0807,8.36365 c 0.0444,4.60001 -0.18995,8.36324 -0.52072,8.36273 -0.33076,-5e-4 -0.41627,0.29861 -0.19001,0.66469 0.70323,1.13786 -4.25362,7.72513 -7.5438,10.02514 -2.18239,1.52561 -3.93801,2.15893 -5.79158,2.08925 -1.46293,-0.055 -2.4797,0.19153 -2.25949,0.54784 0.22701,0.36729 -65.26843,0.68778 -151.24196,0.74008 -96.18973,0.0585 -151.64236,-0.16806 -151.64236,-0.6196 z M 88.49428,415.6353 c -0.206216,-0.51106 -0.374938,-0.0929 -0.374938,0.92919 0,1.02211 0.168722,1.44025 0.374938,0.92919 0.206215,-0.51105 0.206215,-1.34733 0,-1.85838 z m 99.11714,-42.18535 v -15.61044 h -15.61043 -15.61044 v 15.61044 15.61044 h 15.61044 15.61043 z m 167.99803,0 v -15.61044 h -65.04348 -65.04349 v 15.61044 15.61044 h 65.04349 65.04348 z M 187.61142,279.78733 V 264.1769 h -15.61043 -15.61044 v 15.61043 15.61044 h 15.61044 15.61043 z m 167.99803,0 V 264.1769 h -65.04348 -65.04349 v 15.61043 15.61044 h 65.04349 65.04348 z M 187.61142,186.49639 v -15.23876 h -15.61043 -15.61044 v 15.23876 15.23876 h 15.61044 15.61043 z m 167.99803,0 v -15.23876 h -65.04348 -65.04349 v 15.23876 15.23876 h 65.04349 65.04348 z"
   id="path890" /><path
   id="path969"
   style="fill:#000000;fill-opacity:1;fill-rule:evenodd;stroke:#000000;stroke-width:7.22329;stroke-opacity:1"
   d="M 256 28.292969 C 249.6609 28.292969 244.64203 31.37195 241.67188 37.082031 C 240.10668 40.091096 239.51657 46.267718 240.55273 48.791016 C 241.03644 49.968963 242.4955 50.091797 256 50.091797 C 272.90604 50.091797 272.02383 50.439627 271.92773 43.771484 C 271.80209 35.050983 264.84821 28.292969 256 28.292969 z " /><path
   id="path975"
   style="fill:#000000;fill-opacity:1;fill-rule:evenodd;stroke:#ffffff;stroke-width:7.22329;stroke-opacity:1"
   d="M 361.55664 87.054688 L 361.55664 91.53125 C 361.55664 98.414388 359.64349 103.34336 355.25781 107.75586 C 348.54714 114.50757 356.27914 114.01953 256 114.01953 C 155.62788 114.01953 163.48552 114.52067 156.64453 107.67969 C 152.21193 103.24709 150.44336 98.629848 150.44336 91.484375 L 150.44336 87.058594 L 126.6582 87.34375 C 113.57668 87.500836 102.87209 87.909296 102.87109 88.25 C 102.86958 88.590705 102.45051 88.720803 101.93945 88.539062 C 100.48758 88.02275 96.040355 90.562799 93.498047 93.361328 C 89.156029 98.140945 88.433888 99.777823 88.517578 104.64453 C 88.577531 108.13083 88.461452 108.66812 88.015625 106.95703 C 87.69605 105.7305 87.470252 185.84538 87.513672 284.99023 C 87.557094 384.13509 87.780838 456.55769 88.011719 445.92773 L 88.431641 426.59961 L 88.546875 447.91797 C 88.651824 467.5217 88.777394 469.46325 90.121094 472.07617 C 92.657224 477.00786 98.472438 481.50384 102.17969 481.39844 C 103.39824 481.36379 104.18715 481.65166 103.94531 482.04297 C 103.48624 482.78576 402.97483 482.45981 409.01953 481.71094 C 412.45899 481.28483 414.8881 480.01606 418.30469 476.86523 C 420.65911 474.69395 423.44389 469.77982 422.72656 469.0625 C 422.47151 468.80745 422.57054 468.59911 422.94531 468.59961 C 423.32274 468.60012 423.58962 464.87084 423.54492 460.23828 L 423.46484 451.87305 L 423.96289 458.56445 C 424.23663 462.24405 424.47689 384.13509 424.49609 284.99023 C 424.51534 185.84538 424.26828 106.0658 423.94727 107.70117 C 423.44478 110.26122 423.3888 110.02741 423.54297 106.02734 C 423.64145 103.47206 423.41357 101.38281 423.03711 101.38281 C 422.66066 101.38281 422.53073 100.91985 422.74805 100.35352 C 423.51535 98.353982 417.81834 91.684156 413.39844 89.40625 C 410.86191 88.098987 408.34824 87.923315 386.08008 87.509766 L 361.55664 87.054688 z M 156.39062 171.25781 L 172.00195 171.25781 L 187.61133 171.25781 L 187.61133 186.49609 L 187.61133 201.73438 L 172.00195 201.73438 L 156.39062 201.73438 L 156.39062 186.49609 L 156.39062 171.25781 z M 225.52344 171.25781 L 290.56641 171.25781 L 355.60938 171.25781 L 355.60938 186.49609 L 355.60938 201.73438 L 290.56641 201.73438 L 225.52344 201.73438 L 225.52344 186.49609 L 225.52344 171.25781 z M 156.39062 264.17773 L 172.00195 264.17773 L 187.61133 264.17773 L 187.61133 279.78711 L 187.61133 295.39844 L 172.00195 295.39844 L 156.39062 295.39844 L 156.39062 279.78711 L 156.39062 264.17773 z M 225.52344 264.17773 L 290.56641 264.17773 L 355.60938 264.17773 L 355.60938 279.78711 L 355.60938 295.39844 L 290.56641 295.39844 L 225.52344 295.39844 L 225.52344 279.78711 L 225.52344 264.17773 z M 156.39062 357.83984 L 172.00195 357.83984 L 187.61133 357.83984 L 187.61133 373.44922 L 187.61133 389.06055 L 172.00195 389.06055 L 156.39062 389.06055 L 156.39062 373.44922 L 156.39062 357.83984 z M 225.52344 357.83984 L 290.56641 357.83984 L 355.60938 357.83984 L 355.60938 373.44922 L 355.60938 389.06055 L 290.56641 389.06055 L 225.52344 389.06055 L 225.52344 373.44922 L 225.52344 357.83984 z M 88.273438 415.33398 C 88.341042 415.34422 88.420779 415.45927 88.509766 415.68164 C 88.724495 416.21824 88.698183 416.86041 88.451172 417.10742 C 88.204162 417.35443 88.028267 416.91447 88.060547 416.13086 C 88.08284 415.58963 88.160764 415.31692 88.273438 415.33398 z " /><path
   id="path987"
   style="fill:#ffffff;fill-opacity:1;fill-rule:evenodd;stroke:#ffffff;stroke-width:7.22329;stroke-opacity:1"
   d="M 256 0.375 C 244.73772 0.375 233.47561 4.7847317 224.7793 13.605469 C 216.58013 21.921948 212.14258 32.948907 212.14258 45.005859 L 212.14258 50.833984 L 181.29297 50.833984 L 150.44336 50.833984 L 150.44336 54.550781 L 150.44336 58.267578 L 125.72656 58.279297 C 98.197169 58.291534 95.329989 58.63887 86.154297 63.091797 C 75.895782 68.070214 67.6021 76.698526 62.8125 87.373047 C 58.358625 97.299344 58.638672 84.020623 58.638672 284.99023 C 58.638672 491.91255 58.133214 473.12374 64.021484 484.95312 C 68.150801 493.24883 77.342744 502.30705 85.771484 506.38672 C 89.246665 508.06878 94.431056 509.92891 97.292969 510.51953 C 101.72694 511.4346 125.19795 511.59996 256 511.64062 C 426.95852 511.69376 414.4137 512.0764 426.13281 506.43555 C 431.40298 503.89882 433.67724 502.20673 438.88477 496.93945 C 445.79282 489.95214 449.54875 483.55258 452.0293 474.54688 C 453.29167 469.96368 453.36133 460.20888 453.36133 284.99023 C 453.36133 84.020624 453.64137 97.299344 449.1875 87.373047 C 444.3979 76.698526 436.10422 68.070214 425.8457 63.091797 C 416.67001 58.63887 413.80284 58.291527 386.27344 58.279297 L 361.55664 58.267578 L 361.55664 54.550781 L 361.55664 50.833984 L 330.70703 50.833984 L 299.85742 50.833984 L 299.85742 45.005859 C 299.85742 32.948907 295.41987 21.921948 287.2207 13.605469 C 278.52439 4.7847317 267.26228 0.375 256 0.375 z M 256 25.205078 C 260.80688 25.190322 262.12316 25.492154 265.55078 27.390625 C 271.92215 30.919552 275.32812 37.023758 275.32812 44.916016 C 275.32813 50.274638 273.90441 52.225439 269.35352 53.103516 C 266.11727 53.727937 249.09618 53.830142 242.82617 53.263672 C 237.95096 52.823216 236.42497 50.402788 236.8418 43.771484 C 237.21222 37.878732 238.65779 34.286979 242.05664 30.810547 C 246.09212 26.682967 249.71815 25.224358 256 25.205078 z M 358.03125 82.953125 L 363.69531 83.232422 C 366.81123 83.386914 378.45156 83.665485 389.56055 83.851562 C 402.81721 84.073611 410.84209 84.515937 412.91406 85.136719 C 417.02869 86.36949 424.16696 92.956767 425.89648 97.117188 C 426.93591 99.617585 427.32301 103.64299 427.77344 116.62109 C 428.5202 138.13859 428.53717 424.72858 427.79297 449.64453 C 427.26681 467.26047 427.06932 469.29982 425.56836 472.6875 C 423.60499 477.11882 420.38099 480.64293 415.82031 483.34375 L 412.47656 485.32422 L 375.30859 485.79297 C 321.49321 486.47127 111.69603 486.35002 104.96094 485.63672 C 101.81856 485.30391 97.933476 484.36196 96.328125 483.54297 C 92.141205 481.40696 86.894715 475.28831 85.9375 471.42578 C 84.092123 463.97938 83.51314 415.15801 83.5625 271.23828 C 83.590263 190.28702 83.895441 118.45962 84.240234 111.62109 C 84.812636 100.2682 85.029169 98.910378 86.744141 96.009766 C 89.377043 91.556614 93.677083 87.619259 98.037109 85.667969 C 101.54877 84.096362 102.90307 83.990806 122.56836 83.761719 C 134.01601 83.628362 145.80735 83.434296 148.77148 83.330078 L 154.16016 83.140625 L 154.16016 88.136719 C 154.16016 96.834296 155.30886 100.32447 159.63281 104.76367 C 163.11843 108.34203 163.84149 108.73976 167.91211 109.30859 C 173.7162 110.11968 338.28585 110.1233 343.96875 109.3125 C 347.42505 108.81937 348.9117 108.14774 351.26953 106.01758 C 355.90474 101.82994 357.27319 98.435211 357.67969 90.123047 L 358.03125 82.953125 z M 160.10742 174.97461 L 160.10742 186.49609 L 160.10742 198.01758 L 172.00195 198.01758 L 183.89453 198.01758 L 183.89453 186.49609 L 183.89453 174.97461 L 172.00195 174.97461 L 160.10742 174.97461 z M 229.23828 174.97461 L 229.23828 186.49609 L 229.23828 198.01758 L 290.56641 198.01758 L 351.89258 198.01758 L 351.89258 186.49609 L 351.89258 174.97461 L 290.56641 174.97461 L 229.23828 174.97461 z M 160.10742 267.89453 L 160.10742 279.78711 L 160.10742 291.68164 L 172.00195 291.68164 L 183.89453 291.68164 L 183.89453 279.78711 L 183.89453 267.89453 L 172.00195 267.89453 L 160.10742 267.89453 z M 229.23828 267.89453 L 229.23828 279.78711 L 229.23828 291.68164 L 290.56641 291.68164 L 351.89258 291.68164 L 351.89258 279.78711 L 351.89258 267.89453 L 290.56641 267.89453 L 229.23828 267.89453 z M 160.10742 361.55664 L 160.10742 373.44922 L 160.10742 385.34375 L 172.00195 385.34375 L 183.89453 385.34375 L 183.89453 373.44922 L 183.89453 361.55664 L 172.00195 361.55664 L 160.10742 361.55664 z M 229.23828 361.55664 L 229.23828 373.44922 L 229.23828 385.34375 L 290.56641 385.34375 L 351.89258 385.34375 L 351.89258 373.44922 L 351.89258 361.55664 L 290.56641 361.55664 L 229.23828 361.55664 z " /></svg>
