<?xml version="1.0" encoding="UTF-8" standalone="no"?>
<svg
   xmlns:dc="http://purl.org/dc/elements/1.1/"
   xmlns:cc="http://creativecommons.org/ns#"
   xmlns:rdf="http://www.w3.org/1999/02/22-rdf-syntax-ns#"
   xmlns:svg="http://www.w3.org/2000/svg"
   xmlns="http://www.w3.org/2000/svg"
   xmlns:sodipodi="http://sodipodi.sourceforge.net/DTD/sodipodi-0.dtd"
   xmlns:inkscape="http://www.inkscape.org/namespaces/inkscape"
   version="1.1"
   id="_x32_"
   x="0px"
   y="0px"
   width="512px"
   height="512px"
   viewBox="0 0 512 512"
   style="width: 64px; height: 64px; opacity: 1;"
   xml:space="preserve"
   sodipodi:docname="question.svg"
   inkscape:version="1.0.2 (e86c8708, 2021-01-15)"><metadata
   id="metadata856"><rdf:RDF><cc:Work
       rdf:about=""><dc:format>image/svg+xml</dc:format><dc:type
         rdf:resource="http://purl.org/dc/dcmitype/StillImage" /></cc:Work></rdf:RDF></metadata><defs
   id="defs854" /><sodipodi:namedview
   pagecolor="#ffffff"
   bordercolor="#666666"
   borderopacity="1"
   objecttolerance="10"
   gridtolerance="10"
   guidetolerance="10"
   inkscape:pageopacity="0"
   inkscape:pageshadow="2"
   inkscape:window-width="864"
   inkscape:window-height="480"
   id="namedview852"
   showgrid="false"
   inkscape:zoom="0.48368679"
   inkscape:cx="256"
   inkscape:cy="256"
   inkscape:window-x="0"
   inkscape:window-y="25"
   inkscape:window-maximized="0"
   inkscape:current-layer="_x32_" />
<style
   type="text/css"
   id="style833">

	.st0{fill:#4B4B4B;}

</style>
<g
   id="g849">
	<path
   class="st0"
   d="M449.891,87.953c-3.766-8.906-10.031-16.438-17.922-21.781c-7.891-5.328-17.5-8.469-27.719-8.469h-42.656   v-7.359h-61.828c0.281-2,0.438-4.063,0.438-6.141C300.203,19.828,280.375,0,256,0s-44.203,19.828-44.203,44.203   c0,2.078,0.156,4.141,0.438,6.141h-61.828v7.359H107.75c-6.813,0-13.359,1.391-19.281,3.906   c-8.906,3.766-16.453,10.031-21.797,17.922c-5.328,7.906-8.469,17.5-8.469,27.719v355.219c0,6.781,1.391,13.344,3.906,19.281   c3.766,8.906,10.031,16.438,17.922,21.781c7.906,5.344,17.5,8.469,27.719,8.469h296.5c6.797,0,13.359-1.375,19.281-3.906   c8.922-3.75,16.453-10.031,21.797-17.922c5.328-7.891,8.469-17.5,8.469-27.703V107.25   C453.797,100.438,452.422,93.891,449.891,87.953z M256,27.797c9.047,0,16.406,7.359,16.406,16.406c0,2.172-0.438,4.234-1.203,6.141   h-30.391c-0.781-1.906-1.219-3.969-1.219-6.141C239.594,35.156,246.969,27.797,256,27.797z M424.328,462.469   c0,2.813-0.563,5.406-1.578,7.797c-1.5,3.578-4.063,6.672-7.281,8.859c-3.219,2.156-7,3.406-11.219,3.406h-296.5   c-2.813,0-5.422-0.563-7.813-1.563c-3.594-1.516-6.672-4.094-8.844-7.297c-2.156-3.219-3.406-7-3.422-11.203V107.25   c0-2.813,0.563-5.422,1.578-7.813c1.516-3.594,4.078-6.688,7.281-8.844c3.219-2.156,7-3.406,11.219-3.422h42.656v6.141   c0,11.531,9.344,20.875,20.891,20.875h169.422c11.531,0,20.875-9.344,20.875-20.875v-6.141h42.656c2.813,0,5.422,0.563,7.813,1.578   c3.578,1.5,6.672,4.063,8.844,7.281s3.422,7,3.422,11.219V462.469z"
   style="fill: rgb(75, 75, 75);"
   id="path835" />
	<rect
   x="156.141"
   y="170.672"
   class="st0"
   width="31.625"
   height="31.625"
   style="fill: rgb(75, 75, 75);"
   id="rect837" />
	<rect
   x="225.516"
   y="170.672"
   class="st0"
   width="130.359"
   height="31.625"
   style="fill: rgb(75, 75, 75);"
   id="rect839" />
	<rect
   x="156.141"
   y="264.125"
   class="st0"
   width="31.625"
   height="31.625"
   style="fill: rgb(75, 75, 75);"
   id="rect841" />
	<rect
   x="225.516"
   y="264.125"
   class="st0"
   width="130.359"
   height="31.625"
   style="fill: rgb(75, 75, 75);"
   id="rect843" />
	<rect
   x="156.141"
   y="357.594"
   class="st0"
   width="31.625"
   height="31.625"
   style="fill: rgb(75, 75, 75);"
   id="rect845" />
	<rect
   x="225.516"
   y="357.594"
   class="st0"
   width="130.359"
   height="31.625"
   style="fill: rgb(75, 75, 75);"
   id="rect847" />
</g>
<path
   style="fill:#000000;fill-rule:evenodd;stroke:#ffffff;stroke-width:7.22329"
   d="m 96.92222,510.55788 c -2.657491,-0.57077 -7.675131,-2.43091 -11.150312,-4.13366 -5.101223,-2.49948 -7.53695,-4.32891 -12.643006,-9.49596 -6.918482,-7.00112 -9.977461,-12.01462 -12.749317,-20.89544 l -1.740102,-5.57516 V 285.36249 c 0,-152.04656 0.177606,-185.825165 0.994718,-189.183624 0.547095,-2.248646 2.523136,-7.225001 4.391203,-11.058567 5.626213,-11.545862 16.028209,-20.619373 28.436691,-24.804912 4.548907,-1.534404 6.387722,-1.644569 31.406715,-1.881599 l 26.57491,-0.251771 v -3.673876 -3.673876 h 30.84919 30.8492 v -6.162332 c 0,-20.377268 13.5098,-37.8940175 33.08756,-42.9011634 10.57282,-2.70407128 21.99122,-1.3107083 31.81762,3.882635 5.94315,3.1410059 14.30238,11.5002374 17.44339,17.4433804 3.27049,6.188152 5.36721,14.747201 5.36721,21.909556 v 5.827924 h 30.8492 30.84919 v 3.673876 3.673876 l 26.57491,0.251771 c 25.01899,0.23703 26.85781,0.347195 31.40671,1.881599 15.49344,5.226133 27.949,18.418199 32.45756,34.376771 1.30792,4.62955 1.36506,12.579732 1.36506,189.926972 0,207.21473 0.5012,188.38283 -5.33112,200.30886 -3.99694,8.173 -13.27709,17.32125 -21.80131,21.49143 -11.55854,5.65462 0.87938,5.27386 -170.59977,5.22239 -128.75233,-0.0387 -154.66315,-0.21561 -158.7061,-1.08393 z m 314.75114,-29.36323 c 4.68582,-1.75319 10.11696,-7.17223 11.718,-11.6919 0.79871,-2.25477 0.97835,-36.2 0.97835,-184.88362 V 102.49738 l -1.57794,-3.411546 c -1.77275,-3.832741 -5.79371,-8.171729 -9.39832,-10.141677 -2.13578,-1.167215 -5.15059,-1.338699 -27.01057,-1.536387 l -24.60646,-0.222515 -0.42989,5.684146 c -0.70862,9.369479 -4.23008,15.001149 -11.96901,19.141269 l -3.06,1.63702 H 256 165.68248 l -3.06,-1.63702 c -7.72749,-4.134 -11.26063,-9.7748 -11.96624,-19.104584 l -0.42712,-5.64747 h -23.68813 c -22.78441,0 -23.81956,0.06177 -27.13285,1.619204 -4.393052,2.064978 -8.192079,5.867027 -10.19991,10.208014 l -1.577937,3.411546 -0.200735,181.00672 c -0.182642,164.69132 -0.09288,181.34175 0.995869,184.7235 2.007028,6.23403 6.83998,11.31876 12.769573,13.43482 2.29433,0.81877 29.71727,1.00112 154.59128,1.02796 151.40074,0.0326 151.81299,0.0286 155.88708,-1.49573 z M 272.03899,48.190762 c 1.37072,-7.306538 -1.3623,-14.077533 -7.25664,-17.978227 -2.70421,-1.789562 -3.82208,-2.050571 -8.78235,-2.050571 -4.96027,0 -6.07814,0.261009 -8.78235,2.050571 -5.89434,3.900694 -8.62736,10.671689 -7.25664,17.978227 l 0.49592,2.643503 H 256 271.54307 Z"
   id="path858" /><path
   style="fill:#000000;fill-rule:evenodd;stroke:#ffffff;stroke-width:7.22329"
   d="m 101.94195,484.9328 c -6.25114,-1.06153 -12.490586,-6.33615 -15.696281,-13.26912 l -1.588792,-3.43608 -0.1946,-183.49177 -0.1946,-183.49177 2.052985,-3.81419 c 2.732071,-5.075843 6.907205,-9.160331 11.59447,-11.342742 3.820388,-1.778789 3.962938,-1.78744 29.574398,-1.794666 l 25.7355,-0.0073 0.51779,5.389317 c 0.28478,2.964125 0.86455,6.791406 1.28837,8.505069 0.94318,3.813582 4.99501,8.698752 8.84316,10.661932 2.80011,1.42852 4.85302,1.46107 92.12565,1.46107 87.27263,0 89.32554,-0.0326 92.12565,-1.46107 3.84311,-1.9606 7.89712,-6.84403 8.8511,-10.661932 0.42818,-1.713663 1.005,-5.64352 1.28183,-8.733016 l 0.5033,-5.617264 23.51199,0.246231 c 12.93159,0.135427 25.24226,0.426092 27.35705,0.645923 6.42805,0.668193 12.6563,5.929606 16.91435,14.288668 1.16678,2.29054 1.23725,15.08885 1.02537,186.21021 l -0.22752,183.75061 -1.70953,3.47035 c -1.96984,3.99878 -6.74497,8.66803 -11.41111,11.15809 l -3.23315,1.72535 -152.75927,0.10366 c -84.0176,0.057 -154.34724,-0.16601 -156.28811,-0.4956 z M 187.9831,373.44995 v -15.98211 h -15.98211 -15.98212 l -0.20176,15.21869 c -0.11096,8.37027 -0.0353,15.65253 0.16821,16.18278 0.29046,0.75695 3.76775,0.92098 16.18386,0.76343 l 15.81392,-0.20068 z m 167.99803,0 v -15.98211 l -65.22933,-0.1899 -65.22932,-0.1899 v 16.36191 16.36191 l 65.22932,-0.1899 65.22933,-0.1899 z m -167.79741,-93.47678 0.20063,-15.79627 h -16.36858 -16.36858 v 15.48654 c 0,8.5176 0.22948,15.71602 0.50996,15.99649 0.28047,0.28048 7.55605,0.41986 16.16795,0.30974 l 15.658,-0.20022 z m 168.16909,0.18584 V 264.1769 h -65.41517 -65.41516 v 15.98211 15.98211 h 65.41516 65.41517 z m -168.16909,-93.84846 0.20063,-15.79627 h -16.36858 -16.36858 v 15.99661 15.9966 l 16.16796,-0.20033 16.16795,-0.20033 z m 168.16909,0.18584 v -15.98211 h -65.41517 -65.41516 v 15.98211 15.98211 h 65.41516 65.41517 z"
   id="path860" /><path
   style="fill:#ffffff;fill-rule:evenodd;stroke:#ffffff;stroke-width:7.22329"
   d="m 237.13739,51.4847 c -1.11088,-5.554392 -0.51305,-12.154958 1.4594,-16.113156 2.23679,-4.488656 6.87832,-8.758359 10.66444,-9.810132 3.40032,-0.944597 10.07722,-0.944597 13.47754,0 3.78612,1.051773 8.42765,5.321476 10.66444,9.810132 1.97245,3.958198 2.57028,10.558764 1.4594,16.113156 l -0.4646,2.322981 H 256 237.60199 Z"
   id="path864" /><path
   style="fill:#cccccc;fill-rule:evenodd;stroke:#ffffff;stroke-width:7.22329"
   d="M 131.11651,507.31863 C 97.404883,506.89281 96.453178,506.84059 92.611202,505.20584 84.984811,501.96083 82.378549,500.29768 77.301344,495.43605 70.862977,489.27108 67.074114,483.503 64.617507,476.12648 l -1.920709,-5.76737 0.201405,-186.90428 0.201405,-186.904287 2.369764,-5.379676 C 70.709893,79.274205 78.031964,71.426842 88.745325,66.225083 l 6.31851,-3.067885 16.353795,-0.528 c 8.99458,-0.2904 22.29133,-0.554239 29.54832,-0.58631 l 13.19454,-0.05831 v -3.716771 -3.716771 h 30.73982 30.73981 l 0.42412,-8.73441 c 0.6937,-14.286046 4.44417,-22.983461 13.45451,-31.201237 12.05191,-10.9918103 30.31675,-13.2486036 45.40503,-5.6102216 5.56766,2.8186036 14.06004,11.6604956 16.71212,17.3999126 2.77567,6.006884 4.50522,14.517104 4.50522,22.167785 v 5.978171 h 30.8492 30.84919 v 3.716771 3.716771 l 13.19454,0.05831 c 7.25699,0.03207 20.55374,0.295911 29.54832,0.586311 l 16.3538,0.528 6.63283,3.213896 c 13.18064,6.386592 23.50815,19.965669 25.00307,32.875143 0.86016,7.428072 0.82948,355.193732 -0.0324,367.686932 -0.64197,9.30502 -0.8358,10.15674 -3.46795,15.23876 -1.96786,3.79945 -4.65744,7.25234 -9.14323,11.73814 -7.99168,7.99168 -14.43826,11.56898 -22.88417,12.69877 -6.54587,0.87562 -225.21497,1.42615 -281.92777,0.70979 z m 283.88228,-19.72379 c 5.24801,-2.65938 11.38595,-8.6198 14.0783,-13.67118 l 2.35448,-4.41745 -0.004,-182.01771 C 431.42457,177.14227 431.1475,103.78715 430.72294,101.19498 429.38066,92.999748 421.30937,83.9597 413.3415,81.727333 410.49629,80.930183 402.43341,80.51887 382.18466,80.137916 L 354.8664,79.623953 v 3.020189 c 0,4.833556 -1.51941,14.41516 -2.6249,16.552935 -0.55876,1.080513 -2.15347,2.963353 -3.5438,4.184083 -2.50346,2.19807 -2.63783,2.22427 -13.90822,2.71209 -14.79714,0.64046 -142.78122,0.64046 -157.57836,0 -11.27038,-0.48782 -11.40475,-0.51402 -13.90821,-2.71209 -3.75276,-3.29496 -4.67285,-5.698578 -5.63046,-14.708736 l -0.86798,-8.16828 -28.64003,0.217981 -28.640021,0.217981 -3.967655,2.08971 c -4.985965,2.626032 -9.529932,7.135627 -12.604146,12.508791 l -2.383729,4.166322 V 284.1733 468.64167 l 2.272253,4.50131 c 2.76294,5.47335 7.26561,10.4926 11.808718,13.16347 2.934111,1.72496 4.482993,2.04916 11.56475,2.4207 4.49729,0.23595 75.00625,0.48683 156.68658,0.55752 l 148.50971,0.12852 z M 278.10062,55.480228 c 0.31443,-1.124323 0.57118,-5.723827 0.57057,-10.221119 -7.5e-4,-7.059822 -0.23007,-8.605668 -1.67711,-11.315482 -2.38926,-4.474272 -5.79963,-8.127907 -9.75988,-10.456039 -3.14094,-1.846477 -4.08464,-2.015811 -11.2342,-2.015811 -7.14956,0 -8.09326,0.169334 -11.2342,2.015811 -3.96025,2.328132 -7.37062,5.981767 -9.75988,10.456039 -1.44704,2.709814 -1.67615,4.25566 -1.67711,11.315482 -6.1e-4,4.497292 0.25614,9.096796 0.57057,10.221119 l 0.57167,2.044224 H 256 277.52895 Z"
   id="path866" /><path
   style="fill:#cccccc;fill-rule:evenodd;stroke:#ffffff;stroke-width:7.22329"
   d="m 152.67319,186.68223 5.9e-4,-19.14137 19.51304,-4.3e-4 19.51305,-4.2e-4 -0.2523,18.77012 c -0.13877,10.32356 -0.30776,18.82761 -0.37555,18.89788 -0.0678,0.0703 -8.73539,0.23752 -19.26134,0.37168 l -19.13808,0.24391 z m 31.96482,-0.18584 v -12.26534 h -12.63702 -12.63702 v 12.26534 12.26534 h 12.63702 12.63702 z"
   id="path868" /><path
   style="fill:#cccccc;fill-rule:evenodd;stroke:#ffffff;stroke-width:7.22329"
   d="m 229.23925,186.49639 v -12.26534 h 61.69839 61.69839 v 12.26534 12.26534 h -61.69839 -61.69839 z"
   id="path870" /><path
   style="fill:#cccccc;fill-rule:evenodd;stroke:#ffffff;stroke-width:7.22329"
   d="m 159.92148,292.02139 c -0.30663,-0.3235 -0.55751,-5.88458 -0.55751,-12.35795 v -11.76977 h 12.75223 12.75224 l -0.45351,11.61249 c -0.24943,6.38687 -0.59506,11.75405 -0.76806,11.92705 -0.60936,0.60936 -23.17505,1.16878 -23.72539,0.58818 z"
   id="path872" /><path
   style="fill:#cccccc;fill-rule:evenodd;stroke:#ffffff;stroke-width:7.22329"
   d="m 222.54906,280.15901 v -18.95553 h 68.38858 68.38858 v 18.95553 18.95553 h -68.38858 -68.38858 z m 130.08697,0 v -12.26534 h -61.69839 -61.69839 v 12.26534 12.26534 h 61.69839 61.69839 z"
   id="path874" /><path
   style="fill:#cccccc;fill-rule:evenodd;stroke:#ffffff;stroke-width:7.22329"
   d="m 154.32589,391.61997 c -1.63062,-1.14213 -1.65211,-1.39349 -1.65211,-19.3272 v -18.17003 h 19.32721 19.3272 v 19.32721 19.32721 h -17.6751 c -14.79424,0 -17.94437,-0.18861 -19.3272,-1.15719 z m 30.31212,-18.17002 v -12.63702 h -12.63702 -12.63702 v 12.63702 12.63702 h 12.63702 12.63702 z"
   id="path876" /><path
   style="fill:#ffffff;fill-rule:evenodd;stroke:#ffffff;stroke-width:7.22329"
   d="m 229.23925,373.44995 v -12.63702 l 27.31827,8.8e-4 c 15.02504,4.9e-4 42.62206,0.2223 61.32671,0.49291 l 34.00845,0.49202 v 11.65121 11.65121 l -34.00845,0.49202 c -18.70465,0.27061 -46.30167,0.49242 -61.32671,0.4929 l -27.31827,8.9e-4 z"
   id="path878" /><path
   style="fill:#ffffff;fill-rule:evenodd;stroke:#ffffff;stroke-width:7.22329"
   d="m 222.54906,373.44995 v -19.32721 h 68.38858 68.38858 v 19.32721 19.32721 h -68.38858 -68.38858 z"
   id="path880" /><path
   style="fill:#ffffff;fill-rule:evenodd;stroke:#ffffff;stroke-width:7.22329"
   d="m 163.08074,373.44995 v -8.92025 h 8.92025 8.92024 v 8.92025 8.92025 h -8.92024 -8.92025 z"
   id="path882" /><path
   style="fill:#ffffff;fill-rule:evenodd;stroke:#ffffff;stroke-width:7.22329"
   d="m 232.95602,280.15901 v -8.54857 h 57.98162 57.98162 v 8.54857 8.54857 h -57.98162 -57.98162 z"
   id="path884" /><path
   style="fill:#ffffff;fill-rule:evenodd;stroke:#ffffff;stroke-width:7.22329"
   d="m 163.08074,280.15901 v -8.54857 h 9.00456 9.00456 l -0.2904,7.84484 c -0.21694,5.86063 -0.5673,8.01996 -1.38518,8.53719 -0.60213,0.38079 -4.52351,0.69747 -8.71416,0.70373 l -7.61938,0.0114 z"
   id="path886" /><path
   style="fill:#ffffff;fill-rule:evenodd;stroke:#ffffff;stroke-width:7.22329"
   d="m 163.08074,186.49639 v -8.54857 h 8.92025 8.92024 v 8.54857 8.54857 h -8.92024 -8.92025 z"
   id="path888" /><path
   style="fill:#ffffff;fill-rule:evenodd;stroke:#ffffff;stroke-width:7.22329"
   d="m 232.95602,186.49639 v -8.54857 h 57.98162 57.98162 v 8.54857 8.54857 h -57.98162 -57.98162 z"
   id="path890" /><path
   style="fill:#cccccc;fill-rule:evenodd;stroke:#ffffff;stroke-width:7.22329"
   d="m 230.81421,57.938634 c -0.45738,-1.816424 -0.8316,-7.437404 -0.8316,-12.491067 0,-8.498851 0.15117,-9.492336 2.01415,-13.23704 2.47485,-4.974583 7.6364,-10.256977 12.15843,-12.443087 2.88945,-1.396864 4.65014,-1.640756 11.84481,-1.640756 7.19467,0 8.95536,0.243892 11.84481,1.640756 4.52203,2.18611 9.68358,7.468504 12.15843,12.443087 1.86298,3.744704 2.01415,4.738189 2.01415,13.23704 0,5.053663 -0.37422,10.674643 -0.8316,12.491067 l -0.8316,3.302589 H 256 231.64581 Z"
   id="path894" /><path
   style="fill:#ffffff;fill-rule:evenodd;stroke:#ffffff;stroke-width:7.22329"
   d="m 134.83328,492.4126 -36.796029,-0.39767 -3.71677,-1.81172 c -5.07669,-2.47462 -11.346038,-9.05463 -14.689694,-15.41762 L 76.851659,469.4969 V 284.09502 98.693144 l 2.645294,-4.416394 c 3.589785,-5.993251 9.311772,-11.64653 14.760495,-14.583254 l 4.523157,-2.437868 30.663355,-0.281806 c 17.76812,-0.163295 30.66336,-0.0019 30.66336,0.383784 0,3.292763 2.37467,18.538813 3.12617,20.070871 0.52925,1.078976 1.90651,2.660883 3.06057,3.515333 2.0904,1.54773 2.381,1.55452 77.30882,1.80755 41.3658,0.13968 81.05325,0.0171 88.19434,-0.27245 l 12.98381,-0.52643 2.32499,-2.329291 c 1.96375,-1.967389 2.45848,-3.229097 3.18415,-8.120651 0.47254,-3.185248 0.85916,-8.003206 0.85916,-10.706574 v -4.915216 l 26.57491,0.531392 c 30.01128,0.600105 35.82147,1.12396 40.8694,3.684846 4.45142,2.258266 11.23918,9.345082 13.62328,14.223495 1.75839,3.598074 1.83151,4.405204 2.28987,25.274039 0.26042,11.8565 0.5113,95.60427 0.55751,186.10615 l 0.084,164.54889 -2.39877,4.50056 c -3.0241,5.67379 -10.35161,12.98059 -16.07832,16.0329 l -4.40331,2.34694 -120.31932,-0.15985 c -66.17558,-0.0879 -136.87748,-0.3388 -157.1153,-0.55751 z m 277.87651,-11.84929 c 3.24677,-1.65638 9.49954,-8.09954 10.55549,-10.87688 0.47422,-1.24732 0.73275,-66.43629 0.73275,-184.76789 0,-155.21453 -0.15756,-183.21769 -1.0428,-185.336363 -1.45084,-3.472345 -6.10265,-8.4296 -9.57023,-10.198629 C 410.71285,88.02032 408.49716,87.864 386.19624,87.46534 l -24.27954,-0.434029 -0.88442,6.485903 c -1.02277,7.500436 -3.04337,11.552326 -7.78491,15.610896 -1.71375,1.46691 -4.30856,2.99842 -5.76624,3.40336 -3.61839,1.00518 -179.34387,1.00518 -182.96226,0 -3.41606,-0.94897 -8.37996,-5.21354 -10.72379,-9.21297 -1.13818,-1.94217 -2.21543,-5.538547 -2.82024,-9.415359 l -0.97863,-6.272848 -23.88118,0.153271 c -18.66354,0.119784 -24.43265,0.383685 -26.405223,1.207879 -3.557119,1.48626 -7.70884,5.326072 -10.016743,9.264211 l -1.968851,3.359586 0.202358,183.28001 c 0.180962,163.89973 0.324322,183.51859 1.355762,185.53625 2.230911,4.364 5.48082,7.73378 9.288741,9.63134 l 3.846536,1.91681 h 153.75796 c 149.74473,0 153.83042,-0.0369 156.53422,-1.41634 z"
   id="path896" /><path
   style="fill:#ffffff;fill-rule:evenodd;stroke:#ffffff;stroke-width:7.22329"
   d="m 162.33738,496.12433 -65.043483,-0.39263 -3.716771,-1.79856 c -5.339387,-2.58376 -14.2474,-11.85395 -17.662588,-18.3807 l -2.77965,-5.31219 V 283.8499 97.459543 l 4.109609,-6.17636 c 4.66983,-7.018322 9.746386,-11.791434 16.286735,-15.313215 l 4.506019,-2.426356 31.377339,-0.01852 c 28.34458,-0.01673 31.4977,0.101568 32.62265,1.22396 0.83716,0.83527 1.71613,4.367879 2.68186,10.778635 0.79011,5.244883 1.88786,10.234865 2.43945,11.088849 0.94209,1.458573 1.89257,1.582495 15.67922,2.044224 18.47214,0.618651 145.55585,0.499672 154.55951,-0.144702 l 6.69018,-0.478804 1.36323,-2.789962 c 1.03087,-2.109754 1.46691,-5.262933 1.78851,-12.933173 l 0.42528,-10.143211 26.08727,0.526299 c 39.27077,0.792269 43.37895,1.392419 51.11974,7.467896 4.43356,3.479754 10.16127,10.916628 11.76093,15.270412 1.45272,3.953907 2.09236,73.352845 2.1675,235.167515 l 0.0652,140.38988 -2.40536,4.56418 c -3.16989,6.01489 -12.86939,15.71439 -18.88429,18.88428 l -4.56417,2.40536 -92.81521,-0.16489 c -51.04837,-0.0907 -122.08478,-0.34157 -157.8587,-0.55751 z m 247.6908,-18.37086 c 2.12426,-0.63933 7.38056,-5.25257 9.2695,-8.13546 0.9902,-1.51124 1.12264,-22.91696 1.14124,-184.4651 0.0188,-163.30753 -0.10105,-182.99157 -1.12627,-184.97412 -0.63102,-1.22026 -2.62856,-3.584024 -4.43898,-5.25281 -3.99273,-3.680374 -4.86939,-3.794 -31.70283,-4.109088 l -18.1549,-0.213182 -1.21738,5.575156 c -0.66957,3.066336 -1.92141,6.913194 -2.78188,8.548574 -1.84172,3.50032 -6.20848,7.82291 -9.86735,9.76753 -2.49642,1.3268 -6.34843,1.38278 -95.14933,1.38278 h -92.54759 l -3.05709,-1.63554 c -6.83947,-3.65909 -11.38545,-10.89451 -12.69578,-20.206692 l -0.45849,-3.25838 -22.93795,0.347765 -22.93795,0.347765 -2.778978,2.236968 c -1.528441,1.230333 -3.916858,3.710892 -5.307594,5.512354 l -2.52861,3.27539 0.496853,180.63505 c 0.273268,99.34927 0.70115,182.04632 0.950845,183.77123 0.55924,3.86323 4.176639,8.3111 8.612304,10.58947 l 3.17411,1.63039 L 256,478.7413 c 83.60875,-0.21021 152.92143,-0.65474 154.02818,-0.98783 z"
   id="path902" /><path
   style="fill:#ffffff;fill-rule:evenodd;stroke:#ffffff;stroke-width:7.22329"
   d="m 124.42632,503.63613 -27.875777,-0.47089 -5.812797,-2.77553 C 80.908042,495.69614 72.215828,486.12787 68.278187,475.66652 L 66.444701,470.7954 V 284.29978 97.804158 L 68.63707,92.917786 C 73.582631,81.895064 79.941299,74.992405 90.170676,69.541964 l 5.83736,-3.110275 30.934614,-0.486122 30.93461,-0.486123 v -3.595819 -3.595819 h 30.42402 30.42404 l 0.39395,-3.902609 c 0.21668,-2.146435 0.5716,-6.756516 0.78871,-10.244625 0.6739,-10.827091 3.1679,-17.250271 9.3054,-23.965681 7.30724,-7.995282 15.82942,-11.7570782 26.6885,-11.7806293 11.29467,-0.024496 19.53708,3.6128803 26.90122,11.8715103 6.94284,7.786166 9.58576,16.046635 9.60835,30.030977 l 0.0129,7.991057 h 30.8492 30.84919 v 3.595819 3.595819 l 30.93461,0.486123 30.93461,0.486122 6.03977,3.165761 c 8.29004,4.345252 15.62528,11.664278 19.45385,19.410881 2.50942,5.077465 2.91939,6.677855 3.41876,13.345939 0.74435,9.93946 0.73271,344.25456 -0.0126,360.70381 -0.56654,12.50436 -0.6075,12.73402 -3.11454,17.46652 -3.28182,6.19503 -12.88239,15.8697 -18.92153,19.06758 -2.46555,1.30556 -6.58202,2.71183 -9.14771,3.12502 -5.47896,0.88236 -246.18226,1.64698 -289.28167,0.91893 z m 294.29679,-5.79118 c 6.63284,-3.6775 17.52299,-14.61668 21.26168,-21.35739 l 2.84,-5.12041 -0.5138,-168.82446 c -0.28259,-92.85344 -0.80292,-177.57737 -1.1563,-188.27539 -0.64231,-19.445412 -0.6431,-19.45208 -2.766,-23.352541 -2.92887,-5.381304 -11.22677,-14.061919 -15.84433,-16.575111 -2.1086,-1.147646 -6.40737,-2.554929 -9.55281,-3.127296 -6.04868,-1.100659 -67.3818,-3.192631 -68.24665,-2.327781 -0.25887,0.25887 -0.74957,5.418832 -1.09044,11.466583 -0.34088,6.047751 -0.83152,11.715923 -1.09032,12.595935 -0.44034,1.497346 -1.09824,1.632711 -10.25224,2.109409 -16.11119,0.839009 -160.85301,0.134963 -161.77448,-0.786885 -0.43665,-0.436825 -1.30306,-3.781918 -1.92536,-7.433541 -0.6223,-3.651623 -1.63595,-8.419367 -2.25255,-10.59498 -1.7664,-6.23258 -0.80978,-6.07962 -38.02225,-6.07962 H 96.519458 l -5.559614,3.281256 c -6.467082,3.81684 -12.445945,9.699193 -17.76596,17.479182 l -3.775766,5.521679 V 283.66608 470.88857 l 1.591338,3.12964 c 4.64849,9.14205 14.192649,19.48356 21.45905,23.2518 l 4.082037,2.11688 102.582867,0.44394 c 56.42058,0.24416 127.80618,0.5089 158.63467,0.58831 l 56.0518,0.14436 z M 284.33172,60.31203 c 0.61194,-2.758193 1.02703,-8.874568 1.02157,-15.052921 -0.009,-9.982522 -0.0953,-10.571194 -2.11978,-14.433949 C 280.4659,25.544548 274.82121,19.649534 269.94593,16.948333 266.16783,14.855031 265.69514,14.78159 256,14.78159 c -9.69514,0 -10.16783,0.07344 -13.94593,2.166743 -4.87528,2.701201 -10.51997,8.596215 -13.28758,13.876827 -2.02451,3.862755 -2.11096,4.451427 -2.11978,14.433949 -0.005,6.178353 0.40963,12.294728 1.02157,15.052921 l 1.03077,4.645963 H 256 283.30095 Z"
   id="path904" /><path
   style="fill:#000000;fill-rule:evenodd;stroke:#ffffff;stroke-width:7.22329"
   d="m 234.02303,55.739379 c -0.24641,-0.981789 -0.33641,-5.969524 -0.2,-11.083856 l 0.24802,-9.298783 2.97342,-4.259935 c 1.63538,-2.342963 4.428,-5.299825 6.20583,-6.570804 3.21293,-2.296949 3.28973,-2.310869 12.7497,-2.310869 9.48703,0 9.52753,0.0074 12.73571,2.331406 1.77013,1.282274 4.56275,4.231178 6.20582,6.553121 l 2.98742,4.221715 0.24802,9.316466 c 0.13641,5.124057 0.0464,10.11975 -0.2,11.101539 l -0.44803,1.785073 H 256 234.47106 Z"
   id="path906" /></svg>
