<?xml version="1.0" encoding="UTF-8" standalone="no"?>
<svg
   xmlns:dc="http://purl.org/dc/elements/1.1/"
   xmlns:cc="http://creativecommons.org/ns#"
   xmlns:rdf="http://www.w3.org/1999/02/22-rdf-syntax-ns#"
   xmlns:svg="http://www.w3.org/2000/svg"
   xmlns="http://www.w3.org/2000/svg"
   xmlns:sodipodi="http://sodipodi.sourceforge.net/DTD/sodipodi-0.dtd"
   xmlns:inkscape="http://www.inkscape.org/namespaces/inkscape"
   width="133.594"
   height="200"
   viewBox="0 0 133.594 200"
   version="1.1"
   id="svg835"
   sodipodi:docname="ifn0112.svg"
   inkscape:version="1.0.2 (e86c8708, 2021-01-15)">
  <metadata
     id="metadata841">
    <rdf:RDF>
      <cc:Work
         rdf:about="">
        <dc:format>image/svg+xml</dc:format>
        <dc:type
           rdf:resource="http://purl.org/dc/dcmitype/StillImage" />
      </cc:Work>
    </rdf:RDF>
  </metadata>
  <defs
     id="defs839" />
  <sodipodi:namedview
     pagecolor="#ffffff"
     bordercolor="#666666"
     borderopacity="1"
     objecttolerance="10"
     gridtolerance="10"
     guidetolerance="10"
     inkscape:pageopacity="0"
     inkscape:pageshadow="2"
     inkscape:window-width="1440"
     inkscape:window-height="900"
     id="namedview837"
     showgrid="false"
     showguides="false"
     inkscape:zoom="3.4438499"
     inkscape:cx="122.83893"
     inkscape:cy="94.192546"
     inkscape:window-x="0"
     inkscape:window-y="0"
     inkscape:window-maximized="0"
     inkscape:current-layer="svg835" />
  <path
     d="M826.965,1731.594l-66.8,101.98-66.8-101.98h42.406v-98.02h48.782v98.02Z"
     transform="translate(-693.371 -1633.574)"
     id="path833" />
  <path
     style="fill:#0000ff;fill-opacity:0.0656717;fill-rule:evenodd;stroke:#000000;stroke-width:2.8216;stroke-opacity:0"
     d="M 33.514734,148.9989 0.37765955,98.40295 21.391675,98.328461 42.40569,98.253972 V 49.182881 0.11179112 H 66.796997 91.188304 V 49.182881 98.253972 l 21.014046,0.07449 21.01405,0.07449 -33.13711,50.595638 c -18.225409,27.82761 -33.20244,50.59578 -33.282293,50.59595 -0.07985,1.7e-4 -15.05687,-22.76787 -33.282263,-50.59564 z"
     id="path843" />
  <path
     style="fill:#0000ff;fill-opacity:0.0656717;fill-rule:evenodd;stroke:#000000;stroke-width:2.8216;stroke-opacity:0"
     d="M 33.511185,148.99912 0.37056159,98.40295 21.388126,98.328461 42.40569,98.253972 V 49.182881 0.11179112 H 66.796997 91.188304 V 49.182881 98.253972 l 21.017286,0.07449 21.01729,0.07449 -33.14035,50.597438 c -18.227191,27.82859 -33.20568,50.59687 -33.285533,50.59617 -0.07985,-7e-4 -15.058467,-22.76955 -33.285812,-50.59744 z"
     id="path845" />
  <path
     style="fill:#0000ff;fill-opacity:0.06666667;fill-rule:evenodd;stroke:#000000;stroke-width:2.8216;stroke-opacity:0"
     d="M 33.502314,149.00039 0.3622398,98.40295 21.383965,98.328461 42.40569,98.253972 V 49.182881 0.11179112 H 66.796997 91.188304 V 49.182881 98.253972 l 21.021736,0.07449 21.02173,0.07449 -33.14479,50.597338 c -18.22964,27.82854 -33.21225,50.59739 -33.294696,50.59744 -0.08244,6e-5 -15.06293,-22.76874 -33.28997,-50.59734 z"
     id="path847" />
  <path
     style="fill:#0000ff;fill-opacity:0.0666667;fill-rule:evenodd;stroke:#000000;stroke-width:2.8216;stroke-opacity:0"
     d="M 64.288856,196.01697 C 62.921117,193.91397 47.997133,171.11964 31.124447,145.36291 14.25176,119.60617 0.44683507,98.47153 0.44683507,98.397032 c 0,-0.0745 9.44074243,-0.168976 20.97942793,-0.209951 l 20.979427,-0.0745 0.07344,-49.000393 0.07343,-49.00039288 h 24.244436 24.244436 l 0.07344,49.00039288 0.07344,49.000393 20.979428,0.0745 c 11.53869,0.04097 20.97943,0.135279 20.97943,0.209565 0,0.10612 -64.718985,99.050584 -66.037082,100.959614 -0.285294,0.4132 -0.699772,-0.0774 -2.821224,-3.33929 z"
     id="path853" />
  <path
     style="fill:#0000ff;fill-opacity:0.0666667;fill-rule:evenodd;stroke:#000000;stroke-width:2.8216;stroke-opacity:0"
     d="M 33.694509,149.31965 C 15.488141,121.5261 0.54875289,98.667947 0.49586912,98.523757 0.43938515,98.369752 9.0646499,98.230855 21.402704,98.187087 L 42.40569,98.112577 42.47913,49.112184 42.55256,0.11179112 h 24.244436 24.244436 l 0.07344,49.00039288 0.07344,49.000393 20.979428,0.0745 c 11.53869,0.04097 20.97943,0.13818 20.97943,0.216006 0,0.07783 -13.50091,20.755137 -30.00202,45.949577 -16.501119,25.19443 -31.429905,47.98891 -33.175086,50.65439 l -3.173059,4.84633 z"
     id="path855" />
  <path
     style="fill:#0000ff;fill-opacity:0.0666667;fill-rule:evenodd;stroke:#000000;stroke-width:2.8216;stroke-opacity:0"
     d="M 63.386242,194.6297 C 15.151528,121.00797 0.44683507,98.527285 0.44683507,98.40728 c 0,-0.08013 9.44074243,-0.179224 20.97942793,-0.220199 l 20.979427,-0.0745 0.07344,-49.000393 0.07343,-49.00039288 h 24.244436 24.244436 l 0.07344,49.00039288 0.07344,49.000393 20.979428,0.0745 c 11.53869,0.04097 20.97943,0.138502 20.97943,0.216729 0,0.07822 -4.68325,7.29675 -10.40721,16.04118 -44.12591,67.4106 -55.324409,84.47791 -55.66055,84.83067 -0.323548,0.33955 -0.910905,-0.39934 -3.69316,-4.64596 z"
     id="path857" />
  <path
     style="fill:#0000ff;fill-opacity:0.0666667;fill-rule:evenodd;stroke:#000000;stroke-width:2.8216;stroke-opacity:0"
     d="M 63.386242,194.6297 C 15.151528,121.00797 0.44683507,98.527285 0.44683507,98.40728 c 0,-0.08013 9.44074243,-0.179224 20.97942793,-0.220199 l 20.979427,-0.0745 0.07344,-49.000393 0.07343,-49.00039288 h 24.244436 24.244436 l 0.07344,49.00039288 0.07344,49.000393 20.979428,0.0745 c 11.53869,0.04097 20.97943,0.137625 20.97943,0.214777 0,0.07715 -9.64842,14.874412 -21.44094,32.882802 -11.792512,18.00839 -26.572375,40.58258 -32.844138,50.16488 -6.271762,9.5823 -11.575153,17.60406 -11.785313,17.82612 -0.320629,0.33881 -0.914383,-0.40866 -3.690529,-4.64596 z"
     id="path859" />
  <path
     style="fill:#0000ff;fill-opacity:0.0666667;fill-rule:evenodd;stroke:#000000;stroke-width:2.8216;stroke-opacity:0"
     d="M 63.932058,195.46003 C 62.445852,193.18423 58.4437,187.07551 55.038389,181.8851 31.507184,146.01857 0.44683507,98.520627 0.44683507,98.402892 c 0,-0.07772 9.44074243,-0.174836 20.97942793,-0.215811 l 20.979427,-0.0745 0.07344,-49.000393 0.07343,-49.00039288 h 24.244436 24.244436 l 0.07344,49.00039288 0.07344,49.000393 20.979428,0.0745 c 11.53869,0.04097 20.97943,0.138389 20.97943,0.216476 0,0.114294 -20.72045,31.793313 -62.912422,96.185353 -1.805117,2.75491 -3.353683,5.00893 -3.441256,5.00893 -0.08758,0 -1.375217,-1.86202 -2.861426,-4.13781 z"
     id="path861" />
  <path
     style="fill:#0000ff;fill-opacity:0.0666667;fill-rule:evenodd;stroke:#000000;stroke-width:2.8216;stroke-opacity:0"
     d="M 63.932708,195.46003 C 62.44686,193.18423 54.850045,181.58747 47.050898,169.68945 16.138947,122.53158 0.44683507,98.52671 0.44683507,98.397285 c 0,-0.07464 9.44074243,-0.169229 20.97942793,-0.210204 l 20.979427,-0.0745 0.07344,-49.000393 0.07343,-49.00039288 h 24.244436 24.244436 l 0.07344,49.00039288 0.07344,49.000393 20.979428,0.0745 c 11.53869,0.04097 20.97943,0.131339 20.97943,0.200808 0,0.149539 -3.28113,5.172481 -35.610318,54.514371 -13.53126,20.65186 -25.949897,39.60685 -27.596972,42.12221 -1.647072,2.51535 -3.06464,4.57337 -3.150149,4.57337 -0.08551,0 -1.371163,-1.86202 -2.857015,-4.13781 z"
     id="path863" />
  <path
     style="fill:#0000ff;fill-opacity:0.0666667;fill-rule:evenodd;stroke:#000000;stroke-width:2.8216;stroke-opacity:0"
     d="M 63.654163,195.02447 C 62.007111,192.50911 48.504225,171.89628 33.647753,149.21817 -0.32370356,97.36143 0.44683507,98.541092 0.44683507,98.388954 c 0,-0.07005 9.44074243,-0.160898 20.97942793,-0.201873 l 20.979427,-0.0745 0.07344,-49.000393 0.07343,-49.00039288 h 24.244436 24.244436 l 0.07344,49.00039288 0.07344,49.000393 20.979428,0.0745 c 11.53869,0.04097 20.97943,0.134272 20.97943,0.207323 0,0.120662 -19.43429,29.844166 -49.368168,75.505446 -6.281806,9.5823 -12.641697,19.28438 -14.133095,21.56018 -1.491395,2.27579 -2.775859,4.13781 -2.854361,4.13781 -0.07851,0 -1.490323,-2.05802 -3.137375,-4.57337 z"
     id="path865" />
  <path
     style="fill:#0000ff;fill-opacity:0.0666667;fill-rule:evenodd;stroke:#000000;stroke-width:2.8216;stroke-opacity:0"
     d="M 63.876577,195.34466 C 52.982469,178.80116 0.44683507,98.503007 0.44683507,98.395392 c 0,-0.07359 9.44074243,-0.167336 20.97942793,-0.208311 l 20.979427,-0.0745 0.07344,-49.000393 0.07343,-49.00039288 h 24.244436 24.244436 l 0.07344,49.00039288 0.07344,49.000393 20.979428,0.0745 c 11.53869,0.04097 20.97943,0.133668 20.97943,0.205982 0,0.07231 -12.39142,19.050937 -27.53649,42.174727 -15.145074,23.12378 -29.928276,45.70194 -32.851568,50.17368 -2.923293,4.47174 -5.478741,8.30719 -5.678779,8.52322 -0.298076,0.32191 -0.876173,-0.38544 -3.203748,-3.92003 z"
     id="path867" />
  <path
     style="fill:#0000ff;fill-opacity:0.0666667;fill-rule:evenodd;stroke:#000000;stroke-width:2.8216;stroke-opacity:0"
     d="M 63.86842,195.31484 C 57.30077,185.39848 0.44683507,98.513634 0.44683507,98.393228 c 0,-0.0724 9.44074243,-0.165172 20.97942793,-0.206147 l 20.979427,-0.0745 0.07344,-49.000393 0.07343,-49.00039288 h 24.244436 24.244436 l 0.07344,49.00039288 0.07344,49.000393 20.979428,0.0745 c 11.53869,0.04097 20.97943,0.129411 20.97943,0.196525 0,0.155227 1.15498,-1.610413 -63.501911,97.076424 -1.491037,2.27579 -2.76255,4.13781 -2.825579,4.13781 -0.06303,0 -1.391094,-1.92735 -2.951252,-4.283 z"
     id="path869" />
  <path
     style="fill:#0000ff;fill-opacity:0.0666667;fill-rule:evenodd;stroke:#000000;stroke-width:2.8216;stroke-opacity:0"
     d="M 63.599483,194.89308 C 61.094231,191.11841 38.476312,156.60201 3.4521606,103.10439 1.7992315,100.57963 0.44683507,98.457137 0.44683507,98.387746 c 0,-0.06939 9.44074243,-0.15969 20.97942793,-0.200665 l 20.979427,-0.0745 0.07344,-49.000393 0.07343,-49.00039288 h 24.244436 24.244436 l 0.07344,49.00039288 0.07344,49.000393 20.979428,0.0745 c 11.53869,0.04097 20.97943,0.130067 20.97943,0.197982 0,0.129411 -3.69174,5.779527 -38.716086,59.253917 -22.91507,34.98622 -27.12732,41.38832 -27.472588,41.75488 -0.119973,0.12737 -1.631523,-1.89798 -3.359005,-4.50078 z"
     id="path871" />
  <path
     style="fill:#0000ff;fill-opacity:0.0666667;fill-rule:evenodd;stroke:#000000;stroke-width:2.8216;stroke-opacity:0"
     d="M 61.21581,191.265 C 51.547776,176.62026 0.44683507,98.51948 0.44683507,98.387952 c 0,-0.0695 9.44074243,-0.159896 20.97942793,-0.200871 l 20.979427,-0.0745 0.07344,-49.000393 0.07343,-49.00039288 h 24.244436 24.244436 l 0.07344,49.00039288 0.07344,49.000393 20.999908,0.145187 20.99991,0.145186 -3.3074,5.081516 C 115.31266,125.867 67.381793,198.91435 66.947628,199.39543 66.8319,199.52366 64.252583,195.86497 61.21581,191.265 Z"
     id="path873" />
</svg>
